<svg width="30" height="30" viewBox="0 0 30 30" fill="none" xmlns="http://www.w3.org/2000/svg">
<path d="M10 0H3.33333C1.49238 0 0 1.49238 0 3.33333V10C0 11.841 1.49238 13.3333 3.33333 13.3333H10C11.841 13.3333 13.3333 11.841 13.3333 10V3.33333C13.3333 1.49238 11.841 0 10 0Z" fill="#0F172A"/>
<path d="M26.6667 0H20C18.1591 0 16.6667 1.49238 16.6667 3.33333V10C16.6667 11.841 18.1591 13.3333 20 13.3333H26.6667C28.5076 13.3333 30 11.841 30 10V3.33333C30 1.49238 28.5076 0 26.6667 0Z" fill="#0F172A"/>
<path d="M10 16.6666H3.33333C1.49238 16.6666 0 18.159 0 20V26.6666C0 28.5076 1.49238 30 3.33333 30H10C11.841 30 13.3333 28.5076 13.3333 26.6666V20C13.3333 18.159 11.841 16.6666 10 16.6666Z" fill="#0F172A"/>
<path d="M26.6667 16.6666H20C18.1591 16.6666 16.6667 18.159 16.6667 20V26.6666C16.6667 28.5076 18.1591 30 20 30H26.6667C28.5076 30 30 28.5076 30 26.6666V20C30 18.159 28.5076 16.6666 26.6667 16.6666Z" fill="#0F172A"/>
</svg>
