<svg width="123" height="32" viewBox="0 0 123 32" fill="none" xmlns="http://www.w3.org/2000/svg">
<path d="M4.40692 17.7998H12.0526C15.4485 17.7998 18.2006 14.9297 18.2006 11.3882V0.362225L4.40692 17.7998Z" fill="url(#paint0_linear_1_2)"/>
<path d="M3.26305 11.7181C2.19009 10.3592 1.95116 8.55038 2.51309 6.99304C-0.088573 11.1644 -0.829692 16.7132 1.51092 22.3634C2.85599 25.6073 5.33376 28.2052 8.44204 29.6195C11.8711 31.1814 15.2603 31.4491 18.3044 30.7523L3.26305 11.7181Z" fill="url(#paint1_linear_1_2)"/>
<path d="M2.94014 19.7056C2.34282 20.3862 1.84948 22.5688 2.41361 24.1238C0.88713 21.6759 0 18.7573 0 15.6219C0 6.99304 6.70547 0 14.9794 0C16.0856 0 17.1652 0.124587 18.2028 0.362226L2.94014 19.7056Z" fill="url(#paint2_linear_1_2)"/>
<path d="M49.293 30.2458H28.1545V0.397942H49.1691V5.04459H32.7339V13.1035H48.5164V17.5379H32.7339V25.553H49.293V30.2435V30.2458Z" fill="black"/>
<path d="M67.9537 9.22518H72.042V30.2458H68.0356L67.832 26.8358C67.206 28.114 66.2303 29.0945 64.9096 29.7775C63.5866 30.4604 62.246 30.8018 60.8832 30.8018C57.8568 30.8295 55.3768 29.8628 53.4433 27.9017C51.5075 25.9406 50.5407 23.2113 50.5407 19.7159C50.5407 16.2205 51.5296 13.625 53.5052 11.6777C55.4808 9.73045 57.9674 8.75682 60.9673 8.75682C62.4119 8.75682 63.7614 9.09829 65.0158 9.78121C66.2702 10.4641 67.2104 11.387 67.8365 12.5521L67.9581 9.22518H67.9537ZM56.629 14.6609C55.3746 15.9252 54.7485 17.6094 54.7485 19.7136C54.7485 21.8177 55.3746 23.5089 56.629 24.7871C57.8833 26.0652 59.4364 26.7066 61.2903 26.7066C62.4893 26.7066 63.5601 26.4505 64.5003 25.9383C65.4405 25.4261 66.1485 24.7594 66.6263 23.9334C67.1042 23.1097 67.4582 22.2076 67.6904 21.2248C67.9227 20.2442 67.9227 19.2568 67.6904 18.2624C67.4582 17.268 67.1042 16.359 66.6263 15.533C66.1485 14.7093 65.4405 14.0402 64.5003 13.5281C63.5601 13.0159 62.4893 12.7598 61.2903 12.7598C59.4364 12.7598 57.8833 13.3919 56.629 14.6563V14.6609Z" fill="black"/>
<path d="M91.0657 9.22518V11.2716L80.9267 25.9383H91.1475V30.2458H74.4668V28.4555L84.8934 13.2327H75.1637V9.22518H91.0679H91.0657Z" fill="black"/>
<path d="M95.3596 0.654037C96.2313 0.199524 97.1051 0.199524 97.9768 0.654037C98.8484 1.10855 99.2842 1.90452 99.2842 3.04196C99.2842 4.1794 98.8484 4.98229 97.9768 5.45065C97.1051 5.919 96.2313 5.919 95.3596 5.45065C94.488 4.98229 94.0522 4.1794 94.0522 3.04196C94.0522 1.90452 94.488 1.10855 95.3596 0.654037ZM94.5411 9.13981V30.2458H98.7511V9.13981H94.5411Z" fill="black"/>
<path d="M120.078 11.9315C122.027 14.0218 123 16.6289 123 19.7551C123 22.8813 122.04 25.5184 120.117 27.5787C118.195 29.639 115.668 30.6703 112.534 30.6703C109.399 30.6703 106.919 29.639 105.012 27.5787C103.105 25.5184 102.149 22.909 102.149 19.7551C102.149 16.6012 103.109 13.9849 105.032 11.9107C106.954 9.83658 109.454 8.79836 112.534 8.79836C115.613 8.79836 118.129 9.8435 120.078 11.9315ZM108.058 14.8524C106.928 16.1882 106.361 17.824 106.361 19.7551C106.361 21.6862 106.921 23.3082 108.038 24.6163C109.155 25.9245 110.655 26.5774 112.536 26.5774C114.416 26.5774 115.923 25.9245 117.053 24.6163C118.184 23.3082 118.75 21.6885 118.75 19.7551C118.75 17.8217 118.164 16.2228 116.991 14.8731C115.819 13.5234 114.334 12.8474 112.536 12.8474C110.737 12.8474 109.191 13.5165 108.058 14.8524Z" fill="black"/>
<defs>
<linearGradient id="paint0_linear_1_2" x1="13.7074" y1="17.5668" x2="9.25611" y2="3.11939" gradientUnits="userSpaceOnUse">
<stop stop-color="#FF9002"/>
<stop offset="0.57" stop-color="#E93D00"/>
<stop offset="1" stop-color="#960B08"/>
</linearGradient>
<linearGradient id="paint1_linear_1_2" x1="18.3044" y1="19.0549" x2="0.101684" y2="19.0549" gradientUnits="userSpaceOnUse">
<stop stop-color="#FF9002"/>
<stop offset="0.57" stop-color="#E93D00"/>
<stop offset="1" stop-color="#960B08"/>
</linearGradient>
<linearGradient id="paint2_linear_1_2" x1="9.10138" y1="24.1238" x2="9.10138" y2="0" gradientUnits="userSpaceOnUse">
<stop stop-color="#F4D65E"/>
<stop offset="0.57" stop-color="#E5B32E"/>
<stop offset="1" stop-color="#F6822B"/>
</linearGradient>
</defs>
</svg>
