<svg width="123" height="31" viewBox="0 0 123 31" fill="none" xmlns="http://www.w3.org/2000/svg">
<path d="M4.40692 17.7337H12.0526C15.4485 17.7337 18.2006 14.8743 18.2006 11.3459V0.360878L4.40692 17.7337Z" fill="url(#paint0_linear_1_13)"/>
<path d="M3.26305 11.6746C2.19009 10.3207 1.95116 8.51862 2.51309 6.96706C-0.0885729 11.1229 -0.829691 16.6511 1.51092 22.2803C2.85599 25.5122 5.33376 28.1004 8.44203 29.5095C11.8711 31.0656 15.2603 31.3322 18.3044 30.6381L3.26305 11.6746Z" fill="url(#paint1_linear_1_13)"/>
<path d="M2.94014 19.6324C2.34282 20.3104 1.84948 22.4849 2.41361 24.0342C0.88713 21.5954 0 18.6876 0 15.5638C0 6.96706 6.70546 0 14.9794 0C16.0856 0 17.1652 0.124125 18.2028 0.360881L2.94014 19.6324Z" fill="url(#paint2_linear_1_13)"/>
<path d="M49.293 30.1335H28.1545V0.396463H49.1691V5.02585H32.7339V13.0549H48.5164V17.4728H32.7339V25.4581H49.293V30.1312V30.1335Z" fill="white"/>
<path d="M67.9537 9.19092H72.042V30.1335H68.0356L67.832 26.7361C67.2059 28.0096 66.2303 28.9865 64.9096 29.6669C63.5866 30.3472 62.246 30.6874 60.8832 30.6874C57.8568 30.715 55.3768 29.7519 53.4433 27.7981C51.5075 25.8443 50.5407 23.125 50.5407 19.6427C50.5407 16.1603 51.5296 13.5743 53.5052 11.6343C55.4808 9.69431 57.9674 8.7243 60.9673 8.7243C62.4119 8.7243 63.7614 9.06449 65.0158 9.74488C66.2701 10.4253 67.2104 11.3447 67.8364 12.5055L67.9581 9.19092H67.9537ZM56.629 14.6064C55.3746 15.8661 54.7485 17.544 54.7485 19.6404C54.7485 21.7367 55.3746 23.4216 56.629 24.695C57.8833 25.9684 59.4364 26.6074 61.2903 26.6074C62.4893 26.6074 63.5601 26.3523 64.5003 25.842C65.4405 25.3317 66.1485 24.6674 66.6263 23.8445C67.1042 23.0239 67.4581 22.1251 67.6904 21.1459C67.9227 20.169 67.9227 19.1852 67.6904 18.1945C67.4581 17.2038 67.1042 16.2982 66.6263 15.4753C66.1485 14.6547 65.4405 13.9881 64.5003 13.4778C63.5601 12.9675 62.4893 12.7124 61.2903 12.7124C59.4364 12.7124 57.8833 13.3422 56.629 14.6018V14.6064Z" fill="white"/>
<path d="M91.0657 9.19091V11.2298L80.9267 25.842H91.1475V30.1335H74.4668V28.3498L84.8934 13.1836H75.1637V9.19091H91.0679H91.0657Z" fill="white"/>
<path d="M95.3596 0.651607C96.2312 0.198783 97.1051 0.198783 97.9767 0.651607C98.8484 1.10443 99.2842 1.89745 99.2842 3.03066C99.2842 4.16387 98.8484 4.96378 97.9767 5.4304C97.1051 5.89702 96.2312 5.89702 95.3596 5.4304C94.488 4.96378 94.0521 4.16387 94.0521 3.03066C94.0521 1.89745 94.488 1.10443 95.3596 0.651607ZM94.541 9.10586V30.1335H98.751V9.10586H94.541Z" fill="white"/>
<path d="M120.078 11.8872C122.027 13.9697 123 16.5671 123 19.6817C123 22.7963 122.04 25.4236 120.117 27.4763C118.195 29.5289 115.668 30.5564 112.534 30.5564C109.399 30.5564 106.919 29.5289 105.012 27.4763C103.105 25.4236 102.149 22.8239 102.149 19.6817C102.149 16.5395 103.109 13.9329 105.032 11.8665C106.954 9.80004 109.454 8.76567 112.534 8.76567C115.613 8.76567 118.129 9.80694 120.078 11.8872ZM108.058 14.7972C106.928 16.1281 106.361 17.7578 106.361 19.6817C106.361 21.6057 106.921 23.2216 108.038 24.5249C109.155 25.8282 110.655 26.4787 112.536 26.4787C114.416 26.4787 115.923 25.8282 117.053 24.5249C118.184 23.2216 118.75 21.608 118.75 19.6817C118.75 17.7555 118.164 16.1626 116.991 14.8179C115.819 13.4732 114.334 12.7997 112.536 12.7997C110.737 12.7997 109.191 13.4663 108.058 14.7972Z" fill="white"/>
<defs>
<linearGradient id="paint0_linear_1_13" x1="13.7074" y1="17.5016" x2="9.28628" y2="3.09854" gradientUnits="userSpaceOnUse">
<stop stop-color="#FF9002"/>
<stop offset="0.57" stop-color="#E93D00"/>
<stop offset="1" stop-color="#960B08"/>
</linearGradient>
<linearGradient id="paint1_linear_1_13" x1="18.3044" y1="18.9842" x2="0.101684" y2="18.9842" gradientUnits="userSpaceOnUse">
<stop stop-color="#FF9002"/>
<stop offset="0.57" stop-color="#E93D00"/>
<stop offset="1" stop-color="#960B08"/>
</linearGradient>
<linearGradient id="paint2_linear_1_13" x1="9.10138" y1="24.0342" x2="9.10138" y2="0" gradientUnits="userSpaceOnUse">
<stop stop-color="#F4D65E"/>
<stop offset="0.57" stop-color="#E5B32E"/>
<stop offset="1" stop-color="#F6822B"/>
</linearGradient>
</defs>
</svg>
