<svg width="19" height="19" viewBox="0 0 19 19" fill="none" xmlns="http://www.w3.org/2000/svg">
<path d="M17 8.999H19C19 3.869 15.127 0 9.98999 0V2C14.052 2 17 4.943 17 8.999Z" fill="white"/>
<path d="M10 5.99999C12.103 5.99999 13 6.89699 13 8.99999H15C15 5.77499 13.225 3.99999 10 3.99999V5.99999ZM13.422 11.443C13.2299 11.2683 12.9774 11.1752 12.7178 11.1832C12.4583 11.1912 12.212 11.2998 12.031 11.486L9.63804 13.947C9.06204 13.837 7.90404 13.476 6.71204 12.287C5.52004 11.094 5.15904 9.933 5.05204 9.361L7.51104 6.96699C7.69745 6.78612 7.80617 6.53982 7.8142 6.2802C7.82222 6.02059 7.72892 5.76804 7.55404 5.57599L3.85904 1.51299C3.68408 1.32035 3.44092 1.2035 3.18119 1.18725C2.92146 1.17101 2.66564 1.25665 2.46804 1.42599L0.298038 3.28699C0.125149 3.46051 0.0219574 3.69145 0.00803782 3.93599C-0.00696218 4.18599 -0.292962 10.108 4.29904 14.702C8.30504 18.707 13.323 19 14.705 19C14.907 19 15.031 18.994 15.064 18.992C15.3086 18.9783 15.5394 18.8747 15.712 18.701L17.572 16.53C17.7415 16.3325 17.8273 16.0768 17.8113 15.817C17.7952 15.5573 17.6785 15.3141 17.486 15.139L13.422 11.443V11.443Z" fill="white"/>
</svg>
