<svg width="300" height="380" viewBox="0 0 300 380" fill="none" xmlns="http://www.w3.org/2000/svg">
<g clip-path="url(#clip0_0_1)">
<rect width="300" height="380" rx="24" fill="#111218"/>
<g clip-path="url(#clip1_0_1)">
<path d="M211.571 67.6889C210.932 64.2162 213.255 60.875 216.756 60.4062C239.292 57.3892 262.252 58.8976 284.193 64.8633C306.063 70.8098 326.403 81.0441 343.958 94.9041C346.77 97.1238 347.008 101.257 344.583 103.901L317.209 133.745C314.898 136.266 311.017 136.486 308.304 134.412C296.818 125.631 283.63 119.119 269.49 115.275C255.368 111.435 240.618 110.342 226.091 112.037C222.644 112.439 219.39 110.189 218.763 106.777L211.571 67.6889Z" fill="#FFEBA5"/>
<path d="M122.487 115.022C119.806 112.645 119.624 108.508 122.197 106.008C141.127 87.6181 164.408 73.9531 190.023 66.1997C193.332 65.198 196.765 67.1701 197.7 70.4962L208.474 108.823C209.433 112.235 207.399 115.757 204.025 116.852C188.214 121.984 173.796 130.492 161.845 141.742C159.355 144.086 155.473 144.271 152.918 142.006L122.487 115.022Z" fill="#FFA70A"/>
<path d="M80.4054 216.805C76.9049 216.765 74.0902 213.893 74.2791 210.397C75.9828 178.866 87.3198 148.516 106.857 123.195C108.947 120.486 112.837 120.075 115.532 122.175L147.706 147.243C150.531 149.443 150.951 153.539 148.826 156.426C137.006 172.482 129.981 191.374 128.524 211.025C128.266 214.516 125.411 217.325 121.911 217.284L80.4054 216.805Z" fill="#FFA70A"/>
<path d="M222.266 169.694H216.156L214.61 165.432H203.823L202.239 169.694H196.129L205.859 144.537H212.573L222.266 169.694ZM213.139 160.717L209.216 149.893L205.294 160.717H213.139ZM242.392 169.694H224.589V144.537H242.392V149.252H229.945V154.57H242.128V159.284H229.945V164.979H242.392V169.694ZM256.498 169.694H246.579V144.537H256.498C260.446 144.537 263.652 145.694 266.116 148.007C268.605 150.32 269.85 153.363 269.85 157.134C269.85 160.906 268.618 163.949 266.154 166.262C263.689 168.55 260.471 169.694 256.498 169.694ZM256.498 164.979C258.912 164.979 260.823 164.225 262.231 162.716C263.664 161.208 264.381 159.347 264.381 157.134C264.381 154.821 263.689 152.935 262.306 151.477C260.924 149.993 258.987 149.252 256.498 149.252H251.934V164.979H256.498ZM200.805 216.147C196.656 216.147 193.425 214.889 191.112 212.375L194.091 208.641C195.852 210.477 198.077 211.394 200.767 211.394C202.201 211.394 203.332 211.042 204.162 210.338C205.017 209.609 205.444 208.716 205.444 207.66C205.444 206.529 205.042 205.624 204.237 204.945C203.433 204.266 202.326 203.926 200.918 203.926C198.831 203.926 197.071 204.605 195.638 205.963L191.904 204.983V190.537H209.178V195.252H197.26V201.399C198.668 199.991 200.516 199.287 202.804 199.287C205.042 199.287 206.94 200.029 208.499 201.513C210.083 202.996 210.875 204.97 210.875 207.434C210.875 210.099 209.958 212.224 208.122 213.808C206.286 215.367 203.847 216.147 200.805 216.147ZM230.541 215.694H225.185V210.489H213.153V206.265L223.148 190.537H230.541V205.775H233.784V210.489H230.541V215.694ZM225.185 205.775V195.289L218.396 205.775H225.185ZM245.163 215.694H239.279L248.293 195.252H235.621V190.537H254.517V194.271L245.163 215.694ZM267.413 216.147C263.792 216.147 261.076 214.94 259.266 212.526C257.456 210.112 256.55 206.994 256.55 203.172C256.55 199.275 257.594 196.132 259.681 193.743C261.768 191.354 264.634 190.16 268.28 190.16C271.197 190.16 273.674 191.027 275.711 192.762L273.297 196.873C271.914 195.566 270.242 194.912 268.28 194.912C266.445 194.912 264.936 195.604 263.754 196.987C262.573 198.344 261.982 200.029 261.982 202.041C261.982 202.267 261.994 202.443 262.019 202.569C262.648 201.663 263.553 200.897 264.735 200.268C265.917 199.639 267.161 199.325 268.469 199.325C270.858 199.325 272.882 200.054 274.541 201.513C276.201 202.946 277.031 204.945 277.031 207.51C277.031 209.999 276.138 212.061 274.353 213.695C272.567 215.329 270.254 216.147 267.413 216.147ZM267.111 211.394C268.469 211.394 269.55 211.017 270.355 210.263C271.185 209.509 271.599 208.654 271.599 207.698C271.599 206.466 271.147 205.536 270.242 204.907C269.336 204.253 268.23 203.926 266.923 203.926C264.911 203.926 263.277 204.719 262.019 206.303C262.145 207.711 262.623 208.918 263.453 209.923C264.282 210.904 265.502 211.394 267.111 211.394Z" fill="#F7F7F7"/>
</g>
<path d="M33.2912 323V309.909H38.2003C39.206 309.909 40.0497 310.097 40.7315 310.472C41.4176 310.847 41.9354 311.362 42.2848 312.018C42.6385 312.67 42.8153 313.412 42.8153 314.243C42.8153 315.082 42.6385 315.828 42.2848 316.48C41.9311 317.132 41.4091 317.646 40.7188 318.021C40.0284 318.391 39.1783 318.577 38.1683 318.577H34.9148V316.627H37.8487C38.4368 316.627 38.9183 316.525 39.2933 316.32C39.6683 316.116 39.9453 315.835 40.1243 315.477C40.3075 315.119 40.3991 314.707 40.3991 314.243C40.3991 313.778 40.3075 313.369 40.1243 313.016C39.9453 312.662 39.6662 312.387 39.2869 312.191C38.9119 311.991 38.4283 311.891 37.8359 311.891H35.6626V323H33.2912ZM47.4224 323.198C46.8002 323.198 46.2399 323.087 45.7413 322.866C45.247 322.64 44.8549 322.308 44.5652 321.869C44.2797 321.43 44.1369 320.888 44.1369 320.245C44.1369 319.691 44.2392 319.233 44.4437 318.871C44.6483 318.509 44.9274 318.219 45.2811 318.001C45.6348 317.784 46.0332 317.62 46.4764 317.509C46.9238 317.394 47.3862 317.311 47.8635 317.26C48.4387 317.2 48.9054 317.147 49.2633 317.1C49.6213 317.049 49.8812 316.972 50.0431 316.87C50.2093 316.763 50.2924 316.599 50.2924 316.378V316.339C50.2924 315.858 50.1497 315.485 49.8642 315.221C49.5787 314.957 49.1674 314.825 48.6305 314.825C48.0637 314.825 47.6142 314.948 47.2818 315.195C46.9537 315.442 46.7321 315.734 46.617 316.071L44.4565 315.764C44.627 315.168 44.9082 314.669 45.3002 314.268C45.6923 313.864 46.1717 313.561 46.7385 313.361C47.3052 313.156 47.9316 313.054 48.6177 313.054C49.0907 313.054 49.5616 313.109 50.0304 313.22C50.4991 313.331 50.9274 313.514 51.3152 313.77C51.7029 314.021 52.014 314.364 52.2484 314.799C52.487 315.234 52.6064 315.777 52.6064 316.429V323H50.3819V321.651H50.3052C50.1646 321.924 49.9664 322.18 49.7108 322.418C49.4593 322.653 49.1419 322.842 48.7583 322.987C48.3791 323.128 47.9338 323.198 47.4224 323.198ZM48.0233 321.498C48.4877 321.498 48.8904 321.406 49.2314 321.223C49.5723 321.036 49.8343 320.788 50.0176 320.482C50.2051 320.175 50.2988 319.84 50.2988 319.478V318.321C50.2264 318.381 50.1028 318.436 49.9281 318.487C49.7576 318.538 49.5659 318.583 49.3528 318.621C49.1397 318.66 48.9288 318.694 48.72 318.724C48.5112 318.754 48.3301 318.779 48.1767 318.8C47.8315 318.847 47.5225 318.924 47.2498 319.031C46.9771 319.137 46.7619 319.286 46.6042 319.478C46.4466 319.665 46.3677 319.908 46.3677 320.207C46.3677 320.633 46.5233 320.955 46.8343 321.172C47.1454 321.389 47.5417 321.498 48.0233 321.498ZM56.0197 326.682C55.7044 326.682 55.4125 326.656 55.144 326.605C54.8798 326.558 54.6689 326.503 54.5112 326.439L55.0481 324.636C55.3848 324.734 55.6852 324.781 55.9494 324.777C56.2136 324.773 56.4458 324.69 56.6461 324.528C56.8507 324.37 57.0233 324.106 57.1639 323.735L57.362 323.205L53.8017 313.182H56.2562L58.519 320.597H58.6213L60.8904 313.182H63.3514L59.4203 324.189C59.237 324.709 58.9941 325.154 58.6916 325.525C58.389 325.9 58.0183 326.185 57.5794 326.381C57.1447 326.582 56.6248 326.682 56.0197 326.682ZM64.9526 323V313.182H67.1962V314.818H67.2985C67.4775 314.251 67.7843 313.815 68.2189 313.508C68.6578 313.197 69.1586 313.041 69.7211 313.041C69.8489 313.041 69.9917 313.048 70.1493 313.06C70.3113 313.069 70.4455 313.084 70.552 313.105V315.234C70.454 315.2 70.2985 315.17 70.0854 315.144C69.8766 315.114 69.6742 315.099 69.4782 315.099C69.0563 315.099 68.677 315.191 68.3404 315.374C68.008 315.553 67.7459 315.803 67.5542 316.122C67.3624 316.442 67.2665 316.81 67.2665 317.228V323H64.9526ZM75.9677 323.192C75.0089 323.192 74.1779 322.981 73.4748 322.559C72.7717 322.137 72.2262 321.547 71.8384 320.788C71.4549 320.03 71.2631 319.143 71.2631 318.129C71.2631 317.115 71.4549 316.227 71.8384 315.464C72.2262 314.701 72.7717 314.109 73.4748 313.687C74.1779 313.265 75.0089 313.054 75.9677 313.054C76.9265 313.054 77.7575 313.265 78.4606 313.687C79.1637 314.109 79.707 314.701 80.0906 315.464C80.4783 316.227 80.6722 317.115 80.6722 318.129C80.6722 319.143 80.4783 320.03 80.0906 320.788C79.707 321.547 79.1637 322.137 78.4606 322.559C77.7575 322.981 76.9265 323.192 75.9677 323.192ZM75.9805 321.338C76.5004 321.338 76.935 321.195 77.2844 320.91C77.6339 320.62 77.8938 320.232 78.0643 319.746C78.239 319.261 78.3263 318.719 78.3263 318.123C78.3263 317.522 78.239 316.979 78.0643 316.493C77.8938 316.003 77.6339 315.613 77.2844 315.323C76.935 315.033 76.5004 314.888 75.9805 314.888C75.4478 314.888 75.0046 315.033 74.6509 315.323C74.3015 315.613 74.0394 316.003 73.8647 316.493C73.6942 316.979 73.609 317.522 73.609 318.123C73.609 318.719 73.6942 319.261 73.8647 319.746C74.0394 320.232 74.3015 320.62 74.6509 320.91C75.0046 321.195 75.4478 321.338 75.9805 321.338ZM84.9501 309.909V323H82.6362V309.909H84.9501ZM89.6435 309.909V323H87.3295V309.909H89.6435Z" fill="#F7F7F7"/>
<path d="M40.0092 338.035C39.9131 337.733 39.7839 337.463 39.6214 337.224C39.4624 336.982 39.2718 336.777 39.0497 336.608C38.8277 336.436 38.5741 336.305 38.2891 336.215C38.0073 336.126 37.6974 336.081 37.3594 336.081C36.786 336.081 36.2689 336.228 35.8082 336.523C35.3475 336.818 34.983 337.251 34.7145 337.821C34.4493 338.388 34.3168 339.082 34.3168 339.904C34.3168 340.729 34.451 341.427 34.7195 341.997C34.9879 342.567 35.3558 343 35.8232 343.295C36.2905 343.59 36.8224 343.737 37.419 343.737C37.9725 343.737 38.4548 343.625 38.8658 343.399C39.2801 343.174 39.5999 342.856 39.8253 342.445C40.054 342.03 40.1683 341.543 40.1683 340.983L40.5661 341.058H37.6527V339.79H41.6548V340.948C41.6548 341.803 41.4725 342.546 41.108 343.175C40.7467 343.802 40.2462 344.286 39.6065 344.627C38.9702 344.969 38.241 345.139 37.419 345.139C36.4976 345.139 35.6889 344.927 34.9929 344.503C34.3002 344.079 33.7599 343.477 33.3722 342.698C32.9844 341.916 32.7905 340.988 32.7905 339.914C32.7905 339.102 32.9032 338.373 33.1286 337.727C33.3539 337.08 33.6705 336.532 34.0781 336.081C34.4891 335.627 34.9714 335.281 35.5249 335.042C36.0817 334.8 36.6899 334.679 37.3494 334.679C37.8996 334.679 38.4117 334.76 38.8857 334.923C39.3629 335.085 39.7872 335.315 40.1584 335.614C40.5329 335.912 40.8428 336.267 41.0881 336.678C41.3333 337.085 41.4991 337.538 41.5852 338.035H40.0092ZM45.7079 345.169C45.224 345.169 44.7865 345.08 44.3954 344.901C44.0043 344.718 43.6944 344.455 43.4657 344.11C43.2404 343.765 43.1277 343.343 43.1277 342.842C43.1277 342.411 43.2105 342.057 43.3762 341.778C43.542 341.5 43.7657 341.28 44.0474 341.117C44.3291 340.955 44.644 340.832 44.992 340.749C45.34 340.666 45.6947 340.603 46.0559 340.56C46.5133 340.507 46.8845 340.464 47.1696 340.431C47.4546 340.395 47.6618 340.337 47.791 340.257C47.9203 340.178 47.9849 340.048 47.9849 339.869V339.835C47.9849 339.4 47.8623 339.064 47.617 338.825C47.3751 338.587 47.0138 338.467 46.5332 338.467C46.0327 338.467 45.6383 338.578 45.35 338.8C45.0649 339.019 44.8677 339.263 44.7583 339.531L43.3613 339.213C43.527 338.749 43.769 338.375 44.0872 338.089C44.4087 337.801 44.7782 337.592 45.1958 337.463C45.6135 337.33 46.0526 337.264 46.5133 337.264C46.8182 337.264 47.1414 337.301 47.4828 337.374C47.8275 337.443 48.149 337.572 48.4473 337.761C48.7489 337.95 48.9958 338.22 49.188 338.572C49.3803 338.92 49.4764 339.372 49.4764 339.929V345H48.0247V343.956H47.965C47.8689 344.148 47.7247 344.337 47.5325 344.523C47.3403 344.708 47.0933 344.862 46.7917 344.985C46.4901 345.108 46.1288 345.169 45.7079 345.169ZM46.0311 343.976C46.4421 343.976 46.7934 343.895 47.085 343.732C47.38 343.57 47.6038 343.358 47.7562 343.096C47.912 342.831 47.9899 342.547 47.9899 342.246V341.261C47.9368 341.314 47.8341 341.364 47.6816 341.411C47.5325 341.454 47.3618 341.492 47.1696 341.525C46.9773 341.555 46.7901 341.583 46.6078 341.609C46.4255 341.633 46.273 341.652 46.1504 341.669C45.862 341.705 45.5985 341.767 45.3599 341.853C45.1246 341.939 44.9357 342.063 44.7931 342.226C44.6539 342.385 44.5843 342.597 44.5843 342.862C44.5843 343.23 44.7202 343.509 44.992 343.697C45.2638 343.883 45.6101 343.976 46.0311 343.976ZM55.021 337.364V338.557H50.8498V337.364H55.021ZM51.9684 335.534H53.4549V342.758C53.4549 343.046 53.498 343.263 53.5842 343.409C53.6703 343.552 53.7814 343.649 53.9173 343.702C54.0565 343.752 54.2073 343.777 54.3697 343.777C54.489 343.777 54.5934 343.769 54.6829 343.752C54.7724 343.736 54.842 343.722 54.8917 343.712L55.1602 344.94C55.074 344.973 54.9513 345.007 54.7923 345.04C54.6332 345.076 54.4343 345.096 54.1957 345.099C53.8046 345.106 53.44 345.036 53.1019 344.891C52.7638 344.745 52.4904 344.519 52.2816 344.214C52.0728 343.91 51.9684 343.527 51.9684 343.066V335.534ZM59.8745 345.154C59.1221 345.154 58.4741 344.993 57.9306 344.672C57.3903 344.347 56.9727 343.891 56.6777 343.305C56.3861 342.715 56.2402 342.024 56.2402 341.232C56.2402 340.449 56.3861 339.76 56.6777 339.163C56.9727 338.567 57.3837 338.101 57.9107 337.766C58.441 337.432 59.0608 337.264 59.7701 337.264C60.2009 337.264 60.6185 337.335 61.0229 337.478C61.4273 337.621 61.7902 337.844 62.1117 338.149C62.4332 338.454 62.6867 338.85 62.8723 339.337C63.0579 339.821 63.1507 340.41 63.1507 341.102V341.629H57.0804V340.516H61.6941C61.6941 340.125 61.6145 339.778 61.4554 339.477C61.2963 339.172 61.0726 338.931 60.7843 338.756C60.4992 338.58 60.1645 338.492 59.78 338.492C59.3624 338.492 58.9978 338.595 58.6863 338.8C58.378 339.003 58.1394 339.268 57.9703 339.596C57.8046 339.921 57.7218 340.274 57.7218 340.655V341.525C57.7218 342.035 57.8113 342.469 57.9902 342.827C58.1725 343.185 58.4261 343.459 58.7509 343.648C59.0757 343.833 59.4552 343.926 59.8894 343.926C60.1711 343.926 60.428 343.886 60.66 343.807C60.892 343.724 61.0925 343.601 61.2615 343.439C61.4306 343.277 61.5598 343.076 61.6493 342.837L63.0563 343.091C62.9436 343.505 62.7414 343.868 62.4498 344.18C62.1614 344.488 61.7985 344.728 61.361 344.901C60.9268 345.07 60.4313 345.154 59.8745 345.154ZM66.4419 345L64.1948 337.364H65.731L67.2275 342.972H67.302L68.8034 337.364H70.3397L71.8311 342.947H71.9057L73.3922 337.364H74.9284L72.6863 345H71.1699L69.6188 339.487H69.5044L67.9533 345H66.4419ZM78.5614 345.169C78.0775 345.169 77.64 345.08 77.2489 344.901C76.8578 344.718 76.5479 344.455 76.3192 344.11C76.0939 343.765 75.9812 343.343 75.9812 342.842C75.9812 342.411 76.064 342.057 76.2298 341.778C76.3955 341.5 76.6192 341.28 76.9009 341.117C77.1826 340.955 77.4975 340.832 77.8455 340.749C78.1935 340.666 78.5482 340.603 78.9094 340.56C79.3668 340.507 79.738 340.464 80.0231 340.431C80.3081 340.395 80.5153 340.337 80.6445 340.257C80.7738 340.178 80.8384 340.048 80.8384 339.869V339.835C80.8384 339.4 80.7158 339.064 80.4705 338.825C80.2286 338.587 79.8673 338.467 79.3867 338.467C78.8862 338.467 78.4918 338.578 78.2035 338.8C77.9184 339.019 77.7212 339.263 77.6119 339.531L76.2148 339.213C76.3806 338.749 76.6225 338.375 76.9407 338.089C77.2622 337.801 77.6317 337.592 78.0494 337.463C78.467 337.33 78.9061 337.264 79.3668 337.264C79.6718 337.264 79.9949 337.301 80.3363 337.374C80.681 337.443 81.0025 337.572 81.3008 337.761C81.6024 337.95 81.8493 338.22 82.0415 338.572C82.2338 338.92 82.3299 339.372 82.3299 339.929V345H80.8782V343.956H80.8185C80.7224 344.148 80.5782 344.337 80.386 344.523C80.1938 344.708 79.9469 344.862 79.6452 344.985C79.3436 345.108 78.9824 345.169 78.5614 345.169ZM78.8846 343.976C79.2956 343.976 79.6469 343.895 79.9386 343.732C80.2335 343.57 80.4573 343.358 80.6097 343.096C80.7655 342.831 80.8434 342.547 80.8434 342.246V341.261C80.7904 341.314 80.6876 341.364 80.5352 341.411C80.386 341.454 80.2153 341.492 80.0231 341.525C79.8308 341.555 79.6436 341.583 79.4613 341.609C79.279 341.633 79.1265 341.652 79.0039 341.669C78.7156 341.705 78.4521 341.767 78.2134 341.853C77.9781 341.939 77.7892 342.063 77.6467 342.226C77.5075 342.385 77.4379 342.597 77.4379 342.862C77.4379 343.23 77.5737 343.509 77.8455 343.697C78.1173 343.883 78.4637 343.976 78.8846 343.976ZM84.976 347.864C84.754 347.864 84.5518 347.845 84.3695 347.809C84.1872 347.776 84.0513 347.739 83.9618 347.7L84.3198 346.482C84.5916 346.554 84.8335 346.586 85.0456 346.576C85.2578 346.566 85.445 346.487 85.6074 346.337C85.7731 346.188 85.919 345.945 86.0449 345.607L86.2289 345.099L83.4348 337.364H85.0257L86.9597 343.29H87.0392L88.9732 337.364H90.5691L87.4221 346.019C87.2762 346.417 87.0906 346.753 86.8652 347.028C86.6399 347.307 86.3714 347.516 86.0598 347.655C85.7483 347.794 85.387 347.864 84.976 347.864ZM99.2358 337.364V338.557H95.0646V337.364H99.2358ZM96.1832 335.534H97.6697V342.758C97.6697 343.046 97.7128 343.263 97.799 343.409C97.8852 343.552 97.9962 343.649 98.1321 343.702C98.2713 343.752 98.4221 343.777 98.5845 343.777C98.7038 343.777 98.8082 343.769 98.8977 343.752C98.9872 343.736 99.0568 343.722 99.1065 343.712L99.375 344.94C99.2888 344.973 99.1662 345.007 99.0071 345.04C98.848 345.076 98.6491 345.096 98.4105 345.099C98.0194 345.106 97.6548 345.036 97.3168 344.891C96.9787 344.745 96.7053 344.519 96.4964 344.214C96.2876 343.91 96.1832 343.527 96.1832 343.066V335.534ZM104.015 345.154C103.299 345.154 102.674 344.99 102.14 344.662C101.607 344.334 101.193 343.875 100.898 343.285C100.603 342.695 100.455 342.005 100.455 341.217C100.455 340.424 100.603 339.732 100.898 339.138C101.193 338.545 101.607 338.085 102.14 337.756C102.674 337.428 103.299 337.264 104.015 337.264C104.731 337.264 105.355 337.428 105.889 337.756C106.423 338.085 106.837 338.545 107.132 339.138C107.427 339.732 107.574 340.424 107.574 341.217C107.574 342.005 107.427 342.695 107.132 343.285C106.837 343.875 106.423 344.334 105.889 344.662C105.355 344.99 104.731 345.154 104.015 345.154ZM104.02 343.906C104.484 343.906 104.868 343.784 105.173 343.538C105.478 343.293 105.703 342.967 105.849 342.559C105.998 342.151 106.073 341.702 106.073 341.212C106.073 340.724 105.998 340.277 105.849 339.869C105.703 339.458 105.478 339.129 105.173 338.88C104.868 338.631 104.484 338.507 104.02 338.507C103.552 338.507 103.165 338.631 102.856 338.88C102.551 339.129 102.324 339.458 102.175 339.869C102.029 340.277 101.956 340.724 101.956 341.212C101.956 341.702 102.029 342.151 102.175 342.559C102.324 342.967 102.551 343.293 102.856 343.538C103.165 343.784 103.552 343.906 104.02 343.906ZM112.939 347.864V337.364H114.39V338.602H114.515C114.601 338.442 114.725 338.259 114.888 338.05C115.05 337.841 115.275 337.659 115.564 337.503C115.852 337.344 116.233 337.264 116.707 337.264C117.324 337.264 117.874 337.42 118.358 337.732C118.842 338.043 119.221 338.492 119.496 339.079C119.775 339.665 119.914 340.371 119.914 341.197C119.914 342.022 119.776 342.73 119.501 343.32C119.226 343.906 118.848 344.359 118.368 344.677C117.887 344.992 117.339 345.149 116.722 345.149C116.258 345.149 115.879 345.071 115.584 344.915C115.292 344.76 115.063 344.577 114.898 344.369C114.732 344.16 114.604 343.974 114.515 343.812H114.425V347.864H112.939ZM114.395 341.182C114.395 341.719 114.473 342.189 114.629 342.594C114.785 342.998 115.01 343.315 115.305 343.543C115.6 343.769 115.961 343.881 116.389 343.881C116.833 343.881 117.204 343.764 117.503 343.528C117.801 343.29 118.026 342.967 118.179 342.559C118.335 342.151 118.412 341.692 118.412 341.182C118.412 340.678 118.336 340.226 118.184 339.825C118.035 339.424 117.809 339.107 117.508 338.875C117.209 338.643 116.836 338.527 116.389 338.527C115.958 338.527 115.594 338.638 115.295 338.86C115 339.082 114.777 339.392 114.624 339.79C114.472 340.187 114.395 340.652 114.395 341.182ZM123.802 345.169C123.318 345.169 122.88 345.08 122.489 344.901C122.098 344.718 121.788 344.455 121.559 344.11C121.334 343.765 121.221 343.343 121.221 342.842C121.221 342.411 121.304 342.057 121.47 341.778C121.636 341.5 121.859 341.28 122.141 341.117C122.423 340.955 122.738 340.832 123.086 340.749C123.434 340.666 123.788 340.603 124.15 340.56C124.607 340.507 124.978 340.464 125.263 340.431C125.548 340.395 125.756 340.337 125.885 340.257C126.014 340.178 126.079 340.048 126.079 339.869V339.835C126.079 339.4 125.956 339.064 125.711 338.825C125.469 338.587 125.108 338.467 124.627 338.467C124.126 338.467 123.732 338.578 123.444 338.8C123.159 339.019 122.961 339.263 122.852 339.531L121.455 339.213C121.621 338.749 121.863 338.375 122.181 338.089C122.502 337.801 122.872 337.592 123.29 337.463C123.707 337.33 124.146 337.264 124.607 337.264C124.912 337.264 125.235 337.301 125.577 337.374C125.921 337.443 126.243 337.572 126.541 337.761C126.843 337.95 127.09 338.22 127.282 338.572C127.474 338.92 127.57 339.372 127.57 339.929V345H126.118V343.956H126.059C125.963 344.148 125.818 344.337 125.626 344.523C125.434 344.708 125.187 344.862 124.885 344.985C124.584 345.108 124.223 345.169 123.802 345.169ZM124.125 343.976C124.536 343.976 124.887 343.895 125.179 343.732C125.474 343.57 125.698 343.358 125.85 343.096C126.006 342.831 126.084 342.547 126.084 342.246V341.261C126.031 341.314 125.928 341.364 125.775 341.411C125.626 341.454 125.456 341.492 125.263 341.525C125.071 341.555 124.884 341.583 124.702 341.609C124.519 341.633 124.367 341.652 124.244 341.669C123.956 341.705 123.692 341.767 123.454 341.853C123.218 341.939 123.029 342.063 122.887 342.226C122.748 342.385 122.678 342.597 122.678 342.862C122.678 343.23 122.814 343.509 123.086 343.697C123.358 343.883 123.704 343.976 124.125 343.976ZM130.216 347.864C129.994 347.864 129.792 347.845 129.61 347.809C129.427 347.776 129.292 347.739 129.202 347.7L129.56 346.482C129.832 346.554 130.074 346.586 130.286 346.576C130.498 346.566 130.685 346.487 130.848 346.337C131.013 346.188 131.159 345.945 131.285 345.607L131.469 345.099L128.675 337.364H130.266L132.2 343.29H132.279L134.213 337.364H135.809L132.662 346.019C132.516 346.417 132.331 346.753 132.105 347.028C131.88 347.307 131.612 347.516 131.3 347.655C130.989 347.794 130.627 347.864 130.216 347.864ZM137.206 345V337.364H138.633V338.607H138.728C138.887 338.186 139.147 337.857 139.508 337.622C139.869 337.384 140.302 337.264 140.806 337.264C141.316 337.264 141.744 337.384 142.088 337.622C142.436 337.861 142.693 338.189 142.859 338.607H142.939C143.121 338.199 143.411 337.874 143.809 337.632C144.206 337.387 144.68 337.264 145.23 337.264C145.923 337.264 146.488 337.481 146.926 337.915C147.367 338.35 147.587 339.004 147.587 339.879V345H146.1V340.018C146.1 339.501 145.96 339.127 145.678 338.895C145.396 338.663 145.06 338.547 144.669 338.547C144.185 338.547 143.809 338.696 143.54 338.994C143.272 339.289 143.137 339.669 143.137 340.133V345H141.656V339.924C141.656 339.51 141.527 339.177 141.268 338.925C141.01 338.673 140.673 338.547 140.259 338.547C139.977 338.547 139.717 338.621 139.478 338.771C139.243 338.916 139.052 339.12 138.907 339.382C138.764 339.644 138.693 339.947 138.693 340.292V345H137.206ZM152.871 345.154C152.118 345.154 151.47 344.993 150.927 344.672C150.386 344.347 149.969 343.891 149.674 343.305C149.382 342.715 149.236 342.024 149.236 341.232C149.236 340.449 149.382 339.76 149.674 339.163C149.969 338.567 150.38 338.101 150.907 337.766C151.437 337.432 152.057 337.264 152.766 337.264C153.197 337.264 153.615 337.335 154.019 337.478C154.423 337.621 154.786 337.844 155.108 338.149C155.429 338.454 155.683 338.85 155.868 339.337C156.054 339.821 156.147 340.41 156.147 341.102V341.629H150.077V340.516H154.69C154.69 340.125 154.611 339.778 154.452 339.477C154.292 339.172 154.069 338.931 153.78 338.756C153.495 338.58 153.161 338.492 152.776 338.492C152.358 338.492 151.994 338.595 151.682 338.8C151.374 339.003 151.135 339.268 150.966 339.596C150.801 339.921 150.718 340.274 150.718 340.655V341.525C150.718 342.035 150.807 342.469 150.986 342.827C151.169 343.185 151.422 343.459 151.747 343.648C152.072 343.833 152.451 343.926 152.885 343.926C153.167 343.926 153.424 343.886 153.656 343.807C153.888 343.724 154.089 343.601 154.258 343.439C154.427 343.277 154.556 343.076 154.645 342.837L156.052 343.091C155.94 343.505 155.738 343.868 155.446 344.18C155.157 344.488 154.795 344.728 154.357 344.901C153.923 345.07 153.427 345.154 152.871 345.154ZM159.283 340.466V345H157.796V337.364H159.223V338.607H159.317C159.493 338.202 159.768 337.877 160.143 337.632C160.521 337.387 160.996 337.264 161.57 337.264C162.09 337.264 162.546 337.374 162.937 337.592C163.328 337.808 163.631 338.129 163.847 338.557C164.062 338.984 164.17 339.513 164.17 340.143V345H162.683V340.322C162.683 339.768 162.539 339.336 162.251 339.024C161.962 338.709 161.566 338.552 161.062 338.552C160.718 338.552 160.411 338.626 160.143 338.776C159.878 338.925 159.667 339.143 159.511 339.432C159.359 339.717 159.283 340.062 159.283 340.466ZM169.728 337.364V338.557H165.557V337.364H169.728ZM166.675 335.534H168.162V342.758C168.162 343.046 168.205 343.263 168.291 343.409C168.377 343.552 168.488 343.649 168.624 343.702C168.763 343.752 168.914 343.777 169.077 343.777C169.196 343.777 169.3 343.769 169.39 343.752C169.479 343.736 169.549 343.722 169.599 343.712L169.867 344.94C169.781 344.973 169.658 345.007 169.499 345.04C169.34 345.076 169.141 345.096 168.903 345.099C168.512 345.106 168.147 345.036 167.809 344.891C167.471 344.745 167.197 344.519 166.989 344.214C166.78 343.91 166.675 343.527 166.675 343.066V335.534ZM175.077 347.864V337.364H176.529V338.602H176.653C176.74 338.442 176.864 338.259 177.026 338.05C177.189 337.841 177.414 337.659 177.702 337.503C177.991 337.344 178.372 337.264 178.846 337.264C179.462 337.264 180.013 337.42 180.496 337.732C180.98 338.043 181.36 338.492 181.635 339.079C181.913 339.665 182.053 340.371 182.053 341.197C182.053 342.022 181.915 342.73 181.64 343.32C181.365 343.906 180.987 344.359 180.506 344.677C180.026 344.992 179.477 345.149 178.861 345.149C178.397 345.149 178.017 345.071 177.722 344.915C177.431 344.76 177.202 344.577 177.036 344.369C176.871 344.16 176.743 343.974 176.653 343.812H176.564V347.864H175.077ZM176.534 341.182C176.534 341.719 176.612 342.189 176.768 342.594C176.924 342.998 177.149 343.315 177.444 343.543C177.739 343.769 178.1 343.881 178.528 343.881C178.972 343.881 179.343 343.764 179.641 343.528C179.94 343.29 180.165 342.967 180.317 342.559C180.473 342.151 180.551 341.692 180.551 341.182C180.551 340.678 180.475 340.226 180.322 339.825C180.173 339.424 179.948 339.107 179.646 338.875C179.348 338.643 178.975 338.527 178.528 338.527C178.097 338.527 177.732 338.638 177.434 338.86C177.139 339.082 176.915 339.392 176.763 339.79C176.61 340.187 176.534 340.652 176.534 341.182ZM187.009 345.154C186.257 345.154 185.609 344.993 185.065 344.672C184.525 344.347 184.107 343.891 183.812 343.305C183.521 342.715 183.375 342.024 183.375 341.232C183.375 340.449 183.521 339.76 183.812 339.163C184.107 338.567 184.518 338.101 185.045 337.766C185.576 337.432 186.196 337.264 186.905 337.264C187.336 337.264 187.753 337.335 188.158 337.478C188.562 337.621 188.925 337.844 189.246 338.149C189.568 338.454 189.821 338.85 190.007 339.337C190.193 339.821 190.286 340.41 190.286 341.102V341.629H184.215V340.516H188.829C188.829 340.125 188.749 339.778 188.59 339.477C188.431 339.172 188.207 338.931 187.919 338.756C187.634 338.58 187.299 338.492 186.915 338.492C186.497 338.492 186.133 338.595 185.821 338.8C185.513 339.003 185.274 339.268 185.105 339.596C184.939 339.921 184.857 340.274 184.857 340.655V341.525C184.857 342.035 184.946 342.469 185.125 342.827C185.307 343.185 185.561 343.459 185.886 343.648C186.21 343.833 186.59 343.926 187.024 343.926C187.306 343.926 187.563 343.886 187.795 343.807C188.027 343.724 188.227 343.601 188.396 343.439C188.565 343.277 188.695 343.076 188.784 342.837L190.191 343.091C190.078 343.505 189.876 343.868 189.585 344.18C189.296 344.488 188.933 344.728 188.496 344.901C188.062 345.07 187.566 345.154 187.009 345.154ZM191.935 345V337.364H193.372V338.577H193.451C193.59 338.166 193.836 337.843 194.187 337.607C194.542 337.369 194.943 337.249 195.39 337.249C195.483 337.249 195.592 337.253 195.718 337.259C195.847 337.266 195.949 337.274 196.021 337.284V338.706C195.962 338.689 195.856 338.671 195.703 338.651C195.551 338.628 195.398 338.616 195.246 338.616C194.895 338.616 194.581 338.691 194.306 338.84C194.035 338.986 193.819 339.19 193.66 339.452C193.501 339.71 193.421 340.005 193.421 340.337V345H191.935ZM201.393 337.364V338.557H197.078V337.364H201.393ZM198.261 345V336.479C198.261 336.001 198.366 335.605 198.574 335.29C198.783 334.972 199.06 334.735 199.405 334.58C199.749 334.42 200.124 334.341 200.528 334.341C200.827 334.341 201.082 334.366 201.294 334.415C201.506 334.462 201.663 334.505 201.766 334.545L201.418 335.748C201.349 335.728 201.259 335.705 201.15 335.678C201.04 335.648 200.908 335.634 200.752 335.634C200.391 335.634 200.132 335.723 199.976 335.902C199.824 336.081 199.748 336.339 199.748 336.678V345H198.261ZM205.917 345.154C205.165 345.154 204.517 344.993 203.974 344.672C203.433 344.347 203.016 343.891 202.721 343.305C202.429 342.715 202.283 342.024 202.283 341.232C202.283 340.449 202.429 339.76 202.721 339.163C203.016 338.567 203.427 338.101 203.954 337.766C204.484 337.432 205.104 337.264 205.813 337.264C206.244 337.264 206.662 337.335 207.066 337.478C207.47 337.621 207.833 337.844 208.155 338.149C208.476 338.454 208.73 338.85 208.915 339.337C209.101 339.821 209.194 340.41 209.194 341.102V341.629H203.123V340.516H207.737C207.737 340.125 207.657 339.778 207.498 339.477C207.339 339.172 207.116 338.931 206.827 338.756C206.542 338.58 206.207 338.492 205.823 338.492C205.405 338.492 205.041 338.595 204.729 338.8C204.421 339.003 204.182 339.268 204.013 339.596C203.848 339.921 203.765 340.274 203.765 340.655V341.525C203.765 342.035 203.854 342.469 204.033 342.827C204.215 343.185 204.469 343.459 204.794 343.648C205.119 343.833 205.498 343.926 205.932 343.926C206.214 343.926 206.471 343.886 206.703 343.807C206.935 343.724 207.135 343.601 207.305 343.439C207.474 343.277 207.603 343.076 207.692 342.837L209.099 343.091C208.987 343.505 208.784 343.868 208.493 344.18C208.204 344.488 207.841 344.728 207.404 344.901C206.97 345.07 206.474 345.154 205.917 345.154ZM214.06 345.154C213.321 345.154 212.684 344.987 212.151 344.652C211.62 344.314 211.213 343.848 210.928 343.255C210.643 342.662 210.5 341.982 210.5 341.217C210.5 340.441 210.646 339.757 210.938 339.163C211.229 338.567 211.64 338.101 212.17 337.766C212.701 337.432 213.326 337.264 214.045 337.264C214.625 337.264 215.142 337.372 215.596 337.587C216.05 337.799 216.416 338.098 216.695 338.482C216.976 338.867 217.144 339.316 217.197 339.83H215.75C215.67 339.472 215.488 339.163 215.203 338.905C214.921 338.646 214.544 338.517 214.07 338.517C213.655 338.517 213.292 338.626 212.981 338.845C212.673 339.061 212.432 339.369 212.26 339.77C212.088 340.168 212.001 340.638 212.001 341.182C212.001 341.739 212.086 342.219 212.255 342.624C212.424 343.028 212.663 343.341 212.971 343.563C213.282 343.785 213.649 343.896 214.07 343.896C214.351 343.896 214.607 343.845 214.835 343.742C215.067 343.636 215.261 343.485 215.417 343.29C215.576 343.094 215.687 342.859 215.75 342.584H217.197C217.144 343.078 216.983 343.518 216.714 343.906C216.446 344.294 216.086 344.599 215.636 344.821C215.188 345.043 214.663 345.154 214.06 345.154ZM222.351 337.364V338.557H218.18V337.364H222.351ZM219.298 335.534H220.785V342.758C220.785 343.046 220.828 343.263 220.914 343.409C221 343.552 221.111 343.649 221.247 343.702C221.387 343.752 221.537 343.777 221.7 343.777C221.819 343.777 221.923 343.769 222.013 343.752C222.102 343.736 222.172 343.722 222.222 343.712L222.49 344.94C222.404 344.973 222.281 345.007 222.122 345.04C221.963 345.076 221.764 345.096 221.526 345.099C221.135 345.106 220.77 345.036 220.432 344.891C220.094 344.745 219.82 344.519 219.612 344.214C219.403 343.91 219.298 343.527 219.298 343.066V335.534ZM223.995 345V337.364H225.482V345H223.995ZM224.746 336.185C224.488 336.185 224.266 336.099 224.08 335.927C223.898 335.751 223.806 335.542 223.806 335.3C223.806 335.055 223.898 334.846 224.08 334.674C224.266 334.498 224.488 334.411 224.746 334.411C225.005 334.411 225.225 334.498 225.407 334.674C225.593 334.846 225.686 335.055 225.686 335.3C225.686 335.542 225.593 335.751 225.407 335.927C225.225 336.099 225.005 336.185 224.746 336.185ZM230.698 345.154C229.982 345.154 229.358 344.99 228.824 344.662C228.29 344.334 227.876 343.875 227.581 343.285C227.286 342.695 227.139 342.005 227.139 341.217C227.139 340.424 227.286 339.732 227.581 339.138C227.876 338.545 228.29 338.085 228.824 337.756C229.358 337.428 229.982 337.264 230.698 337.264C231.414 337.264 232.039 337.428 232.573 337.756C233.106 338.085 233.521 338.545 233.816 339.138C234.11 339.732 234.258 340.424 234.258 341.217C234.258 342.005 234.11 342.695 233.816 343.285C233.521 343.875 233.106 344.334 232.573 344.662C232.039 344.99 231.414 345.154 230.698 345.154ZM230.703 343.906C231.167 343.906 231.552 343.784 231.857 343.538C232.162 343.293 232.387 342.967 232.533 342.559C232.682 342.151 232.757 341.702 232.757 341.212C232.757 340.724 232.682 340.277 232.533 339.869C232.387 339.458 232.162 339.129 231.857 338.88C231.552 338.631 231.167 338.507 230.703 338.507C230.236 338.507 229.848 338.631 229.54 338.88C229.235 339.129 229.008 339.458 228.859 339.869C228.713 340.277 228.64 340.724 228.64 341.212C228.64 341.702 228.713 342.151 228.859 342.559C229.008 342.967 229.235 343.293 229.54 343.538C229.848 343.784 230.236 343.906 230.703 343.906ZM237.404 340.466V345H235.917V337.364H237.344V338.607H237.439C237.614 338.202 237.889 337.877 238.264 337.632C238.642 337.387 239.117 337.264 239.691 337.264C240.211 337.264 240.667 337.374 241.058 337.592C241.449 337.808 241.752 338.129 241.968 338.557C242.183 338.984 242.291 339.513 242.291 340.143V345H240.804V340.322C240.804 339.768 240.66 339.336 240.372 339.024C240.083 338.709 239.687 338.552 239.184 338.552C238.839 338.552 238.532 338.626 238.264 338.776C237.999 338.925 237.788 339.143 237.632 339.432C237.48 339.717 237.404 340.062 237.404 340.466ZM245.264 345.094C244.992 345.094 244.758 344.998 244.563 344.806C244.367 344.611 244.27 344.375 244.27 344.1C244.27 343.828 244.367 343.596 244.563 343.404C244.758 343.209 244.992 343.111 245.264 343.111C245.536 343.111 245.769 343.209 245.965 343.404C246.16 343.596 246.258 343.828 246.258 344.1C246.258 344.282 246.212 344.45 246.119 344.602C246.029 344.751 245.91 344.871 245.761 344.96C245.612 345.05 245.446 345.094 245.264 345.094Z" fill="#F7F7F7"/>
</g>
<defs>
<clipPath id="clip0_0_1">
<rect width="300" height="380" rx="24" fill="white"/>
</clipPath>
<clipPath id="clip1_0_1">
<rect width="300" height="380" rx="24" fill="white"/>
</clipPath>
</defs>
</svg>
