<svg width="300" height="380" viewBox="0 0 300 380" fill="none" xmlns="http://www.w3.org/2000/svg">
<g clip-path="url(#clip0_0_1)">
<rect width="300" height="380" rx="24" fill="#111218"/>
<rect x="77" y="109" width="136.35" height="136.35" rx="68.175" fill="#FFE9D3"/>
<path fill-rule="evenodd" clip-rule="evenodd" d="M148.544 137.082L159.551 159.083C160.102 160.192 161.167 160.967 162.402 161.146L187.045 164.683C188.043 164.816 188.941 165.335 189.554 166.128C190.704 167.616 190.528 169.722 189.15 171.002L171.29 188.162C170.382 189.012 169.978 190.259 170.216 191.473L174.493 215.688C174.792 217.695 173.414 219.575 171.394 219.901C170.558 220.028 169.702 219.896 168.942 219.523L146.994 208.09C145.892 207.495 144.571 207.495 143.468 208.09L121.359 219.584C119.51 220.519 117.248 219.825 116.24 218.026C115.855 217.299 115.722 216.472 115.855 215.665L120.133 191.449C120.347 190.24 119.943 188.998 119.059 188.143L101.103 170.987C99.6394 169.542 99.6299 167.191 101.089 165.736C101.094 165.732 101.098 165.722 101.103 165.717C101.707 165.174 102.448 164.811 103.251 164.669L127.898 161.132C129.129 160.939 130.189 160.174 130.75 159.064L141.747 137.082C142.189 136.189 142.974 135.504 143.924 135.193C144.879 134.876 145.925 134.952 146.823 135.401C147.56 135.764 148.163 136.354 148.544 137.082Z" fill="#FFA70A"/>
<path d="M33.2912 323V309.909H35.6626V315.451H41.7287V309.909H44.1065V323H41.7287V317.439H35.6626V323H33.2912ZM50.8661 323.192C49.9073 323.192 49.0763 322.981 48.3732 322.559C47.6701 322.137 47.1246 321.547 46.7369 320.788C46.3533 320.03 46.1616 319.143 46.1616 318.129C46.1616 317.115 46.3533 316.227 46.7369 315.464C47.1246 314.701 47.6701 314.109 48.3732 313.687C49.0763 313.265 49.9073 313.054 50.8661 313.054C51.8249 313.054 52.6559 313.265 53.359 313.687C54.0621 314.109 54.6055 314.701 54.989 315.464C55.3768 316.227 55.5707 317.115 55.5707 318.129C55.5707 319.143 55.3768 320.03 54.989 320.788C54.6055 321.547 54.0621 322.137 53.359 322.559C52.6559 322.981 51.8249 323.192 50.8661 323.192ZM50.8789 321.338C51.3988 321.338 51.8335 321.195 52.1829 320.91C52.5323 320.62 52.7923 320.232 52.9627 319.746C53.1374 319.261 53.2248 318.719 53.2248 318.123C53.2248 317.522 53.1374 316.979 52.9627 316.493C52.7923 316.003 52.5323 315.613 52.1829 315.323C51.8335 315.033 51.3988 314.888 50.8789 314.888C50.3462 314.888 49.9031 315.033 49.5494 315.323C49.1999 315.613 48.9379 316.003 48.7631 316.493C48.5927 316.979 48.5075 317.522 48.5075 318.123C48.5075 318.719 48.5927 319.261 48.7631 319.746C48.9379 320.232 49.1999 320.62 49.5494 320.91C49.9031 321.195 50.3462 321.338 50.8789 321.338ZM59.8485 309.909V323H57.5346V309.909H59.8485ZM62.228 323V313.182H64.5419V323H62.228ZM63.3913 311.788C63.0249 311.788 62.7095 311.667 62.4453 311.424C62.1811 311.177 62.049 310.881 62.049 310.536C62.049 310.186 62.1811 309.89 62.4453 309.647C62.7095 309.4 63.0249 309.276 63.3913 309.276C63.7621 309.276 64.0774 309.4 64.3374 309.647C64.6016 309.89 64.7337 310.186 64.7337 310.536C64.7337 310.881 64.6016 311.177 64.3374 311.424C64.0774 311.667 63.7621 311.788 63.3913 311.788ZM70.5648 323.173C69.7935 323.173 69.1032 322.974 68.4938 322.578C67.8844 322.182 67.4029 321.607 67.0492 320.852C66.6955 320.098 66.5186 319.182 66.5186 318.104C66.5186 317.013 66.6976 316.092 67.0556 315.342C67.4178 314.588 67.9057 314.019 68.5194 313.636C69.133 313.248 69.8169 313.054 70.5712 313.054C71.1465 313.054 71.6195 313.152 71.9902 313.348C72.361 313.54 72.655 313.772 72.8723 314.045C73.0897 314.313 73.258 314.567 73.3773 314.805H73.4732V309.909H75.7935V323H73.5179V321.453H73.3773C73.258 321.692 73.0854 321.945 72.8596 322.214C72.6337 322.478 72.3354 322.704 71.9647 322.891C71.5939 323.079 71.1273 323.173 70.5648 323.173ZM71.2104 321.274C71.7005 321.274 72.1181 321.142 72.4632 320.878C72.8084 320.609 73.0705 320.237 73.2495 319.759C73.4284 319.282 73.5179 318.726 73.5179 318.091C73.5179 317.456 73.4284 316.904 73.2495 316.435C73.0748 315.967 72.8148 315.602 72.4696 315.342C72.1287 315.082 71.709 314.952 71.2104 314.952C70.6948 314.952 70.2644 315.087 69.9192 315.355C69.574 315.624 69.3141 315.994 69.1394 316.467C68.9647 316.94 68.8773 317.482 68.8773 318.091C68.8773 318.705 68.9647 319.252 69.1394 319.734C69.3184 320.211 69.5804 320.588 69.9256 320.865C70.275 321.138 70.7033 321.274 71.2104 321.274ZM81.0845 323.198C80.4624 323.198 79.902 323.087 79.4034 322.866C78.9091 322.64 78.517 322.308 78.2273 321.869C77.9418 321.43 77.799 320.888 77.799 320.245C77.799 319.691 77.9013 319.233 78.1058 318.871C78.3104 318.509 78.5895 318.219 78.9432 318.001C79.2969 317.784 79.6953 317.62 80.1385 317.509C80.5859 317.394 81.0483 317.311 81.5256 317.26C82.1009 317.2 82.5675 317.147 82.9254 317.1C83.2834 317.049 83.5433 316.972 83.7053 316.87C83.8714 316.763 83.9545 316.599 83.9545 316.378V316.339C83.9545 315.858 83.8118 315.485 83.5263 315.221C83.2408 314.957 82.8295 314.825 82.2926 314.825C81.7259 314.825 81.2763 314.948 80.9439 315.195C80.6158 315.442 80.3942 315.734 80.2791 316.071L78.1186 315.764C78.2891 315.168 78.5703 314.669 78.9624 314.268C79.3544 313.864 79.8338 313.561 80.4006 313.361C80.9673 313.156 81.5938 313.054 82.2798 313.054C82.7528 313.054 83.2237 313.109 83.6925 313.22C84.1612 313.331 84.5895 313.514 84.9773 313.77C85.3651 314.021 85.6761 314.364 85.9105 314.799C86.1491 315.234 86.2685 315.777 86.2685 316.429V323H84.044V321.651H83.9673C83.8267 321.924 83.6286 322.18 83.3729 322.418C83.1214 322.653 82.804 322.842 82.4205 322.987C82.0412 323.128 81.5959 323.198 81.0845 323.198ZM81.6854 321.498C82.1499 321.498 82.5526 321.406 82.8935 321.223C83.2344 321.036 83.4964 320.788 83.6797 320.482C83.8672 320.175 83.9609 319.84 83.9609 319.478V318.321C83.8885 318.381 83.7649 318.436 83.5902 318.487C83.4197 318.538 83.228 318.583 83.0149 318.621C82.8018 318.66 82.5909 318.694 82.3821 318.724C82.1733 318.754 81.9922 318.779 81.8388 318.8C81.4936 318.847 81.1847 318.924 80.9119 319.031C80.6392 319.137 80.424 319.286 80.2663 319.478C80.1087 319.665 80.0298 319.908 80.0298 320.207C80.0298 320.633 80.1854 320.955 80.4964 321.172C80.8075 321.389 81.2038 321.498 81.6854 321.498ZM89.6818 326.682C89.3665 326.682 89.0746 326.656 88.8061 326.605C88.5419 326.558 88.331 326.503 88.1733 326.439L88.7102 324.636C89.0469 324.734 89.3473 324.781 89.6115 324.777C89.8757 324.773 90.108 324.69 90.3082 324.528C90.5128 324.37 90.6854 324.106 90.826 323.735L91.0241 323.205L87.4638 313.182H89.9183L92.1811 320.597H92.2834L94.5526 313.182H97.0135L93.0824 324.189C92.8991 324.709 92.6563 325.154 92.3537 325.525C92.0511 325.9 91.6804 326.185 91.2415 326.381C90.8068 326.582 90.2869 326.682 89.6818 326.682Z" fill="#F7F7F7"/>
<path d="M41.5753 338.129H40.0241C39.9645 337.798 39.8535 337.506 39.6911 337.254C39.5286 337.002 39.3298 336.789 39.0945 336.613C38.8591 336.437 38.5956 336.305 38.304 336.215C38.0156 336.126 37.709 336.081 37.3842 336.081C36.7976 336.081 36.2723 336.228 35.8082 336.523C35.3475 336.818 34.983 337.251 34.7145 337.821C34.4493 338.391 34.3168 339.087 34.3168 339.909C34.3168 340.738 34.4493 341.437 34.7145 342.007C34.983 342.577 35.3492 343.008 35.8132 343.3C36.2772 343.591 36.7992 343.737 37.3793 343.737C37.7008 343.737 38.0057 343.694 38.294 343.608C38.5857 343.518 38.8492 343.388 39.0845 343.215C39.3198 343.043 39.5187 342.832 39.6811 342.584C39.8468 342.332 39.9612 342.044 40.0241 341.719L41.5753 341.724C41.4924 342.224 41.3317 342.685 41.093 343.106C40.8577 343.523 40.5545 343.885 40.1832 344.19C39.8153 344.491 39.3944 344.725 38.9205 344.891C38.4465 345.056 37.9295 345.139 37.3693 345.139C36.4877 345.139 35.7022 344.93 35.0128 344.513C34.3234 344.092 33.7798 343.49 33.3821 342.708C32.9877 341.926 32.7905 340.993 32.7905 339.909C32.7905 338.822 32.9893 337.889 33.3871 337.11C33.7848 336.328 34.3284 335.728 35.0178 335.31C35.7071 334.889 36.491 334.679 37.3693 334.679C37.9096 334.679 38.4134 334.757 38.8807 334.913C39.3513 335.065 39.7739 335.29 40.1484 335.589C40.523 335.884 40.8329 336.245 41.0781 336.673C41.3234 337.097 41.4891 337.582 41.5753 338.129ZM46.5108 345.154C45.7949 345.154 45.1702 344.99 44.6365 344.662C44.1029 344.334 43.6886 343.875 43.3936 343.285C43.0987 342.695 42.9512 342.005 42.9512 341.217C42.9512 340.424 43.0987 339.732 43.3936 339.138C43.6886 338.545 44.1029 338.085 44.6365 337.756C45.1702 337.428 45.7949 337.264 46.5108 337.264C47.2267 337.264 47.8515 337.428 48.3851 337.756C48.9187 338.085 49.333 338.545 49.628 339.138C49.923 339.732 50.0705 340.424 50.0705 341.217C50.0705 342.005 49.923 342.695 49.628 343.285C49.333 343.875 48.9187 344.334 48.3851 344.662C47.8515 344.99 47.2267 345.154 46.5108 345.154ZM46.5158 343.906C46.9798 343.906 47.3643 343.784 47.6692 343.538C47.9741 343.293 48.1995 342.967 48.3453 342.559C48.4945 342.151 48.5691 341.702 48.5691 341.212C48.5691 340.724 48.4945 340.277 48.3453 339.869C48.1995 339.458 47.9741 339.129 47.6692 338.88C47.3643 338.631 46.9798 338.507 46.5158 338.507C46.0485 338.507 45.6607 338.631 45.3525 338.88C45.0475 339.129 44.8205 339.458 44.6713 339.869C44.5255 340.277 44.4526 340.724 44.4526 341.212C44.4526 341.702 44.5255 342.151 44.6713 342.559C44.8205 342.967 45.0475 343.293 45.3525 343.538C45.6607 343.784 46.0485 343.906 46.5158 343.906ZM56.5671 341.833V337.364H58.0586V345H56.5969V343.678H56.5174C56.3417 344.085 56.06 344.425 55.6722 344.697C55.2878 344.965 54.8088 345.099 54.2354 345.099C53.7449 345.099 53.3107 344.992 52.9329 344.776C52.5584 344.558 52.2634 344.234 52.0479 343.807C51.8358 343.379 51.7298 342.851 51.7298 342.221V337.364H53.2163V342.042C53.2163 342.562 53.3604 342.977 53.6488 343.285C53.9371 343.593 54.3117 343.747 54.7724 343.747C55.0508 343.747 55.3275 343.678 55.6026 343.538C55.881 343.399 56.1114 343.189 56.2937 342.907C56.4793 342.625 56.5704 342.267 56.5671 341.833ZM61.5424 340.466V345H60.0559V337.364H61.4828V338.607H61.5772C61.7529 338.202 62.028 337.877 62.4025 337.632C62.7804 337.387 63.256 337.264 63.8294 337.264C64.3497 337.264 64.8055 337.374 65.1966 337.592C65.5877 337.808 65.8909 338.129 66.1064 338.557C66.3218 338.984 66.4295 339.513 66.4295 340.143V345H64.943V340.322C64.943 339.768 64.7988 339.336 64.5105 339.024C64.2221 338.709 63.8261 338.552 63.3223 338.552C62.9776 338.552 62.671 338.626 62.4025 338.776C62.1374 338.925 61.9269 339.143 61.7711 339.432C61.6187 339.717 61.5424 340.062 61.5424 340.466ZM71.9877 337.364V338.557H67.8166V337.364H71.9877ZM68.9352 335.534H70.4217V342.758C70.4217 343.046 70.4648 343.263 70.551 343.409C70.6371 343.552 70.7482 343.649 70.8841 343.702C71.0233 343.752 71.1741 343.777 71.3365 343.777C71.4558 343.777 71.5602 343.769 71.6497 343.752C71.7392 343.736 71.8088 343.722 71.8585 343.712L72.127 344.94C72.0408 344.973 71.9181 345.007 71.7591 345.04C71.6 345.076 71.4011 345.096 71.1625 345.099C70.7714 345.106 70.4068 345.036 70.0687 344.891C69.7306 344.745 69.4572 344.519 69.2484 344.214C69.0396 343.91 68.9352 343.527 68.9352 343.066V335.534ZM78.2768 347.864C78.0547 347.864 77.8526 347.845 77.6703 347.809C77.488 347.776 77.3521 347.739 77.2626 347.7L77.6206 346.482C77.8923 346.554 78.1343 346.586 78.3464 346.576C78.5585 346.566 78.7458 346.487 78.9082 346.337C79.0739 346.188 79.2198 345.945 79.3457 345.607L79.5297 345.099L76.7356 337.364H78.3265L80.2605 343.29H80.34L82.274 337.364H83.8699L80.7228 346.019C80.577 346.417 80.3914 346.753 80.166 347.028C79.9406 347.307 79.6722 347.516 79.3606 347.655C79.0491 347.794 78.6878 347.864 78.2768 347.864ZM88.2237 345.154C87.5078 345.154 86.883 344.99 86.3494 344.662C85.8158 344.334 85.4015 343.875 85.1065 343.285C84.8116 342.695 84.6641 342.005 84.6641 341.217C84.6641 340.424 84.8116 339.732 85.1065 339.138C85.4015 338.545 85.8158 338.085 86.3494 337.756C86.883 337.428 87.5078 337.264 88.2237 337.264C88.9396 337.264 89.5644 337.428 90.098 337.756C90.6316 338.085 91.0459 338.545 91.3409 339.138C91.6359 339.732 91.7834 340.424 91.7834 341.217C91.7834 342.005 91.6359 342.695 91.3409 343.285C91.0459 343.875 90.6316 344.334 90.098 344.662C89.5644 344.99 88.9396 345.154 88.2237 345.154ZM88.2287 343.906C88.6927 343.906 89.0772 343.784 89.3821 343.538C89.687 343.293 89.9124 342.967 90.0582 342.559C90.2074 342.151 90.282 341.702 90.282 341.212C90.282 340.724 90.2074 340.277 90.0582 339.869C89.9124 339.458 89.687 339.129 89.3821 338.88C89.0772 338.631 88.6927 338.507 88.2287 338.507C87.7614 338.507 87.3736 338.631 87.0653 338.88C86.7604 339.129 86.5334 339.458 86.3842 339.869C86.2384 340.277 86.1655 340.724 86.1655 341.212C86.1655 341.702 86.2384 342.151 86.3842 342.559C86.5334 342.967 86.7604 343.293 87.0653 343.538C87.3736 343.784 87.7614 343.906 88.2287 343.906ZM98.28 341.833V337.364H99.7715V345H98.3098V343.678H98.2303C98.0546 344.085 97.7729 344.425 97.3851 344.697C97.0007 344.965 96.5217 345.099 95.9483 345.099C95.4578 345.099 95.0236 344.992 94.6458 344.776C94.2712 344.558 93.9763 344.234 93.7608 343.807C93.5487 343.379 93.4426 342.851 93.4426 342.221V337.364H94.9292V342.042C94.9292 342.562 95.0733 342.977 95.3617 343.285C95.65 343.593 96.0246 343.747 96.4853 343.747C96.7637 343.747 97.0404 343.678 97.3155 343.538C97.5939 343.399 97.8243 343.189 98.0066 342.907C98.1922 342.625 98.2833 342.267 98.28 341.833ZM101.769 345V337.364H103.206V338.577H103.285C103.424 338.166 103.67 337.843 104.021 337.607C104.376 337.369 104.777 337.249 105.224 337.249C105.317 337.249 105.426 337.253 105.552 337.259C105.681 337.266 105.783 337.274 105.855 337.284V338.706C105.796 338.689 105.69 338.671 105.537 338.651C105.385 338.628 105.232 338.616 105.08 338.616C104.729 338.616 104.415 338.691 104.14 338.84C103.868 338.986 103.653 339.19 103.494 339.452C103.335 339.71 103.255 340.005 103.255 340.337V345H101.769ZM112.333 340.466V345H110.847V334.818H112.314V338.607H112.408C112.587 338.196 112.86 337.869 113.228 337.627C113.596 337.385 114.077 337.264 114.67 337.264C115.194 337.264 115.651 337.372 116.042 337.587C116.437 337.803 116.742 338.124 116.957 338.552C117.176 338.976 117.285 339.506 117.285 340.143V345H115.799V340.322C115.799 339.762 115.654 339.327 115.366 339.019C115.078 338.708 114.677 338.552 114.163 338.552C113.812 338.552 113.497 338.626 113.218 338.776C112.943 338.925 112.726 339.143 112.567 339.432C112.411 339.717 112.333 340.062 112.333 340.466ZM122.485 345.154C121.77 345.154 121.145 344.99 120.611 344.662C120.078 344.334 119.663 343.875 119.368 343.285C119.073 342.695 118.926 342.005 118.926 341.217C118.926 340.424 119.073 339.732 119.368 339.138C119.663 338.545 120.078 338.085 120.611 337.756C121.145 337.428 121.77 337.264 122.485 337.264C123.201 337.264 123.826 337.428 124.36 337.756C124.893 338.085 125.308 338.545 125.603 339.138C125.898 339.732 126.045 340.424 126.045 341.217C126.045 342.005 125.898 342.695 125.603 343.285C125.308 343.875 124.893 344.334 124.36 344.662C123.826 344.99 123.201 345.154 122.485 345.154ZM122.49 343.906C122.954 343.906 123.339 343.784 123.644 343.538C123.949 343.293 124.174 342.967 124.32 342.559C124.469 342.151 124.544 341.702 124.544 341.212C124.544 340.724 124.469 340.277 124.32 339.869C124.174 339.458 123.949 339.129 123.644 338.88C123.339 338.631 122.954 338.507 122.49 338.507C122.023 338.507 121.635 338.631 121.327 338.88C121.022 339.129 120.795 339.458 120.646 339.869C120.5 340.277 120.427 340.724 120.427 341.212C120.427 341.702 120.5 342.151 120.646 342.559C120.795 342.967 121.022 343.293 121.327 343.538C121.635 343.784 122.023 343.906 122.49 343.906ZM129.191 334.818V345H127.704V334.818H129.191ZM131.191 345V337.364H132.677V345H131.191ZM131.941 336.185C131.683 336.185 131.461 336.099 131.275 335.927C131.093 335.751 131.002 335.542 131.002 335.3C131.002 335.055 131.093 334.846 131.275 334.674C131.461 334.498 131.683 334.411 131.941 334.411C132.2 334.411 132.42 334.498 132.603 334.674C132.788 334.846 132.881 335.055 132.881 335.3C132.881 335.542 132.788 335.751 132.603 335.927C132.42 336.099 132.2 336.185 131.941 336.185ZM137.536 345.149C136.919 345.149 136.369 344.992 135.885 344.677C135.405 344.359 135.027 343.906 134.752 343.32C134.48 342.73 134.344 342.022 134.344 341.197C134.344 340.371 134.481 339.665 134.757 339.079C135.035 338.492 135.416 338.043 135.9 337.732C136.384 337.42 136.932 337.264 137.546 337.264C138.02 337.264 138.401 337.344 138.689 337.503C138.981 337.659 139.206 337.841 139.365 338.05C139.528 338.259 139.654 338.442 139.743 338.602H139.833V334.818H141.319V345H139.867V343.812H139.743C139.654 343.974 139.524 344.16 139.355 344.369C139.19 344.577 138.961 344.76 138.669 344.915C138.378 345.071 138 345.149 137.536 345.149ZM137.864 343.881C138.291 343.881 138.653 343.769 138.948 343.543C139.246 343.315 139.471 342.998 139.624 342.594C139.78 342.189 139.857 341.719 139.857 341.182C139.857 340.652 139.781 340.187 139.629 339.79C139.476 339.392 139.253 339.082 138.958 338.86C138.663 338.638 138.298 338.527 137.864 338.527C137.416 338.527 137.044 338.643 136.745 338.875C136.447 339.107 136.222 339.424 136.069 339.825C135.92 340.226 135.845 340.678 135.845 341.182C135.845 341.692 135.922 342.151 136.074 342.559C136.227 342.967 136.452 343.29 136.75 343.528C137.052 343.764 137.423 343.881 137.864 343.881ZM145.663 345.169C145.179 345.169 144.742 345.08 144.35 344.901C143.959 344.718 143.65 344.455 143.421 344.11C143.195 343.765 143.083 343.343 143.083 342.842C143.083 342.411 143.166 342.057 143.331 341.778C143.497 341.5 143.721 341.28 144.002 341.117C144.284 340.955 144.599 340.832 144.947 340.749C145.295 340.666 145.65 340.603 146.011 340.56C146.468 340.507 146.84 340.464 147.125 340.431C147.41 340.395 147.617 340.337 147.746 340.257C147.875 340.178 147.94 340.048 147.94 339.869V339.835C147.94 339.4 147.817 339.064 147.572 338.825C147.33 338.587 146.969 338.467 146.488 338.467C145.988 338.467 145.593 338.578 145.305 338.8C145.02 339.019 144.823 339.263 144.713 339.531L143.316 339.213C143.482 338.749 143.724 338.375 144.042 338.089C144.364 337.801 144.733 337.592 145.151 337.463C145.569 337.33 146.008 337.264 146.468 337.264C146.773 337.264 147.096 337.301 147.438 337.374C147.783 337.443 148.104 337.572 148.402 337.761C148.704 337.95 148.951 338.22 149.143 338.572C149.335 338.92 149.431 339.372 149.431 339.929V345H147.98V343.956H147.92C147.824 344.148 147.68 344.337 147.488 344.523C147.295 344.708 147.048 344.862 146.747 344.985C146.445 345.108 146.084 345.169 145.663 345.169ZM145.986 343.976C146.397 343.976 146.748 343.895 147.04 343.732C147.335 343.57 147.559 343.358 147.711 343.096C147.867 342.831 147.945 342.547 147.945 342.246V341.261C147.892 341.314 147.789 341.364 147.637 341.411C147.488 341.454 147.317 341.492 147.125 341.525C146.932 341.555 146.745 341.583 146.563 341.609C146.381 341.633 146.228 341.652 146.105 341.669C145.817 341.705 145.554 341.767 145.315 341.853C145.08 341.939 144.891 342.063 144.748 342.226C144.609 342.385 144.539 342.597 144.539 342.862C144.539 343.23 144.675 343.509 144.947 343.697C145.219 343.883 145.565 343.976 145.986 343.976ZM152.078 347.864C151.856 347.864 151.653 347.845 151.471 347.809C151.289 347.776 151.153 347.739 151.063 347.7L151.421 346.482C151.693 346.554 151.935 346.586 152.147 346.576C152.359 346.566 152.547 346.487 152.709 346.337C152.875 346.188 153.021 345.945 153.146 345.607L153.33 345.099L150.536 337.364H152.127L154.061 343.29H154.141L156.075 337.364H157.671L154.524 346.019C154.378 346.417 154.192 346.753 153.967 347.028C153.741 347.307 153.473 347.516 153.161 347.655C152.85 347.794 152.489 347.864 152.078 347.864ZM164.79 339.228L163.443 339.467C163.386 339.294 163.297 339.13 163.174 338.974C163.055 338.819 162.892 338.691 162.687 338.592C162.481 338.492 162.225 338.442 161.916 338.442C161.495 338.442 161.144 338.537 160.862 338.726C160.581 338.911 160.44 339.152 160.44 339.447C160.44 339.702 160.534 339.907 160.723 340.063C160.912 340.219 161.217 340.347 161.638 340.446L162.851 340.724C163.554 340.887 164.077 341.137 164.422 341.475C164.767 341.813 164.939 342.252 164.939 342.793C164.939 343.25 164.807 343.658 164.541 344.016C164.28 344.37 163.913 344.649 163.443 344.851C162.975 345.053 162.433 345.154 161.817 345.154C160.962 345.154 160.264 344.972 159.724 344.607C159.184 344.239 158.852 343.717 158.73 343.041L160.166 342.822C160.256 343.197 160.44 343.48 160.718 343.673C160.997 343.862 161.36 343.956 161.807 343.956C162.294 343.956 162.684 343.855 162.975 343.653C163.267 343.447 163.413 343.197 163.413 342.902C163.413 342.663 163.323 342.463 163.144 342.3C162.969 342.138 162.699 342.015 162.334 341.933L161.041 341.649C160.329 341.487 159.802 341.228 159.46 340.874C159.122 340.519 158.953 340.07 158.953 339.526C158.953 339.076 159.079 338.681 159.331 338.343C159.583 338.005 159.931 337.741 160.375 337.553C160.819 337.36 161.328 337.264 161.901 337.264C162.727 337.264 163.376 337.443 163.85 337.801C164.324 338.156 164.637 338.631 164.79 339.228ZM170.279 345V337.364H171.765V345H170.279ZM171.029 336.185C170.771 336.185 170.549 336.099 170.363 335.927C170.181 335.751 170.09 335.542 170.09 335.3C170.09 335.055 170.181 334.846 170.363 334.674C170.549 334.498 170.771 334.411 171.029 334.411C171.288 334.411 171.508 334.498 171.691 334.674C171.876 334.846 171.969 335.055 171.969 335.3C171.969 335.542 171.876 335.751 171.691 335.927C171.508 336.099 171.288 336.185 171.029 336.185ZM175.251 340.466V345H173.765V337.364H175.192V338.607H175.286C175.462 338.202 175.737 337.877 176.112 337.632C176.489 337.387 176.965 337.264 177.538 337.264C178.059 337.264 178.514 337.374 178.906 337.592C179.297 337.808 179.6 338.129 179.815 338.557C180.031 338.984 180.138 339.513 180.138 340.143V345H178.652V340.322C178.652 339.768 178.508 339.336 178.219 339.024C177.931 338.709 177.535 338.552 177.031 338.552C176.687 338.552 176.38 338.626 176.112 338.776C175.846 338.925 175.636 339.143 175.48 339.432C175.328 339.717 175.251 340.062 175.251 340.466ZM183.112 345.094C182.84 345.094 182.606 344.998 182.411 344.806C182.215 344.611 182.117 344.375 182.117 344.1C182.117 343.828 182.215 343.596 182.411 343.404C182.606 343.209 182.84 343.111 183.112 343.111C183.383 343.111 183.617 343.209 183.812 343.404C184.008 343.596 184.106 343.828 184.106 344.1C184.106 344.282 184.059 344.45 183.967 344.602C183.877 344.751 183.758 344.871 183.609 344.96C183.46 345.05 183.294 345.094 183.112 345.094Z" fill="#F7F7F7"/>
</g>
<defs>
<clipPath id="clip0_0_1">
<rect width="300" height="380" rx="24" fill="white"/>
</clipPath>
</defs>
</svg>
