<svg width="300" height="380" viewBox="0 0 300 380" fill="none" xmlns="http://www.w3.org/2000/svg">
<g clip-path="url(#clip0_0_1)">
<rect width="300" height="380" rx="24" fill="#F5C252" fill-opacity="0.45"/>
<g clip-path="url(#clip1_0_1)">
<line opacity="0.05" x1="59.7945" y1="229.248" x2="412.485" y2="229.126" stroke="white" stroke-width="0.710075" stroke-dasharray="3.76 3.76"/>
<line opacity="0.05" x1="60.2369" y1="192.903" x2="412.485" y2="192.903" stroke="white" stroke-width="0.710075" stroke-dasharray="3.76 3.76"/>
<line opacity="0.05" x1="59.7943" y1="156.123" x2="412.485" y2="155.796" stroke="white" stroke-width="0.710075" stroke-dasharray="3.76 3.76"/>
<line opacity="0.05" x1="59.7946" y1="119.561" x2="412.485" y2="119.561" stroke="white" stroke-width="0.710075" stroke-dasharray="3.76 3.76"/>
<line opacity="0.05" x1="59.795" y1="82.9994" x2="412.486" y2="83.3228" stroke="white" stroke-width="0.710075" stroke-dasharray="3.76 3.76"/>
<line opacity="0.05" x1="59.7945" y1="46.4375" x2="412.485" y2="46.2187" stroke="white" stroke-width="0.710075" stroke-dasharray="3.76 3.76"/>
<line opacity="0.05" x1="61.0469" y1="8.86374" x2="413.738" y2="8.64494" stroke="white" stroke-width="0.710075" stroke-dasharray="3.76 3.76"/>
<g opacity="0.7">
<path opacity="0.7" d="M41.5147 88.1241C40.987 88.1241 40.5328 88.0473 40.152 87.8937C39.778 87.74 39.4907 87.5163 39.2903 87.2223C39.0966 86.9284 38.9998 86.5744 38.9998 86.1603C38.9998 85.8329 39.0666 85.5424 39.2002 85.2885C39.3338 85.028 39.5208 84.8176 39.7613 84.6573C40.0017 84.497 40.279 84.3968 40.5929 84.3567V84.507C40.1587 84.4135 39.8114 84.2098 39.5509 83.8958C39.297 83.5752 39.1701 83.1978 39.1701 82.7636C39.1701 82.3628 39.2636 82.0255 39.4507 81.7516C39.6444 81.471 39.9182 81.2573 40.2723 81.1103C40.6263 80.9567 41.0404 80.8799 41.5147 80.8799C41.9957 80.8799 42.4098 80.9567 42.7572 81.1103C43.1112 81.2573 43.3851 81.471 43.5788 81.7516C43.7725 82.0255 43.8693 82.3628 43.8693 82.7636C43.8693 83.0508 43.8092 83.318 43.689 83.5652C43.5754 83.8056 43.4118 84.006 43.198 84.1663C42.9843 84.3267 42.7338 84.4369 42.4465 84.497V84.3567C42.9208 84.4235 43.3016 84.6206 43.5888 84.9479C43.8827 85.2685 44.0297 85.6726 44.0297 86.1603C44.0297 86.5744 43.9295 86.9284 43.7291 87.2223C43.5353 87.5163 43.2481 87.74 42.8674 87.8937C42.4933 88.0473 42.0424 88.1241 41.5147 88.1241ZM41.5147 87.4428C42.0825 87.4428 42.51 87.3326 42.7972 87.1121C43.0911 86.8917 43.2381 86.5577 43.2381 86.1102C43.2381 85.6693 43.0911 85.342 42.7972 85.1282C42.51 84.9078 42.0825 84.7976 41.5147 84.7976C40.9536 84.7976 40.5261 84.9078 40.2322 85.1282C39.9383 85.342 39.7913 85.6693 39.7913 86.1102C39.7913 86.5577 39.9383 86.8917 40.2322 87.1121C40.5261 87.3326 40.9536 87.4428 41.5147 87.4428ZM41.5147 84.1162C41.842 84.1162 42.1192 84.0661 42.3463 83.9659C42.5801 83.8591 42.7605 83.7088 42.8874 83.5151C43.0143 83.3213 43.0778 83.0942 43.0778 82.8337C43.0778 82.4329 42.9375 82.1223 42.657 81.9019C42.3831 81.6748 42.0023 81.5612 41.5147 81.5612C41.0271 81.5612 40.6463 81.6748 40.3725 81.9019C40.0986 82.1223 39.9617 82.4329 39.9617 82.8337C39.9617 83.2345 40.0986 83.5485 40.3725 83.7756C40.6463 84.0027 41.0271 84.1162 41.5147 84.1162ZM47.5226 88.1241C46.7144 88.1241 46.0998 87.8135 45.679 87.1923C45.2582 86.5711 45.0477 85.6726 45.0477 84.497C45.0477 83.7088 45.1413 83.0475 45.3283 82.5131C45.5153 81.972 45.7925 81.5646 46.1599 81.2907C46.534 81.0168 46.9882 80.8799 47.5226 80.8799C48.3375 80.8799 48.9521 81.1872 49.3662 81.8017C49.7871 82.4096 49.9975 83.3046 49.9975 84.487C49.9975 85.2752 49.9039 85.9398 49.7169 86.4809C49.5299 87.0219 49.2527 87.4328 48.8853 87.7133C48.5179 87.9872 48.0637 88.1241 47.5226 88.1241ZM47.5226 87.4127C48.0837 87.4127 48.4979 87.1756 48.765 86.7013C49.0389 86.2204 49.1759 85.4823 49.1759 84.487C49.1759 83.485 49.0389 82.7536 48.765 82.2927C48.4979 81.8251 48.0837 81.5913 47.5226 81.5913C46.9682 81.5913 46.554 81.8251 46.2802 82.2927C46.0063 82.7602 45.8694 83.4917 45.8694 84.487C45.8694 85.4823 46.0063 86.2204 46.2802 86.7013C46.554 87.1756 46.9682 87.4127 47.5226 87.4127Z" fill="white"/>
<path opacity="0.7" d="M41.7552 124.445C41.2008 124.445 40.7265 124.312 40.3324 124.045C39.945 123.771 39.6511 123.377 39.4507 122.862C39.2503 122.348 39.1501 121.727 39.1501 120.999C39.1501 120.384 39.2135 119.843 39.3404 119.375C39.4674 118.908 39.6544 118.514 39.9015 118.193C40.1487 117.866 40.4493 117.619 40.8033 117.452C41.1573 117.285 41.5581 117.201 42.0057 117.201C42.3129 117.201 42.6269 117.261 42.9475 117.382C43.2748 117.502 43.5621 117.672 43.8092 117.893C43.8827 117.946 43.9261 118.013 43.9395 118.093C43.9595 118.166 43.9595 118.24 43.9395 118.313C43.9194 118.38 43.8827 118.437 43.8293 118.484C43.7825 118.53 43.7224 118.557 43.6489 118.564C43.5754 118.564 43.4986 118.534 43.4185 118.474C43.1913 118.28 42.9575 118.143 42.7171 118.063C42.4766 117.976 42.2328 117.933 41.9856 117.933C41.5515 117.933 41.1807 118.04 40.8735 118.253C40.5729 118.467 40.3424 118.791 40.1821 119.225C40.0285 119.653 39.9516 120.19 39.9516 120.838V121.77H39.8615C39.9015 121.389 40.0118 121.062 40.1921 120.788C40.3792 120.508 40.6163 120.294 40.9035 120.147C41.1907 120 41.5147 119.927 41.8754 119.927C42.2896 119.927 42.657 120.02 42.9776 120.207C43.2982 120.394 43.5487 120.658 43.7291 120.999C43.9094 121.333 43.9996 121.717 43.9996 122.151C43.9996 122.592 43.9061 122.986 43.719 123.333C43.532 123.681 43.2682 123.954 42.9275 124.155C42.5868 124.349 42.1961 124.445 41.7552 124.445ZM41.7051 123.744C41.999 123.744 42.2595 123.681 42.4866 123.554C42.7137 123.42 42.8907 123.236 43.0177 123.003C43.1446 122.762 43.208 122.488 43.208 122.181C43.208 121.874 43.1446 121.603 43.0177 121.369C42.8907 121.136 42.7137 120.952 42.4866 120.818C42.2595 120.685 41.999 120.618 41.7051 120.618C41.4112 120.618 41.1507 120.685 40.9236 120.818C40.6964 120.952 40.5194 121.136 40.3925 121.369C40.2656 121.603 40.2021 121.874 40.2021 122.181C40.2021 122.488 40.2656 122.762 40.3925 123.003C40.5194 123.236 40.6964 123.42 40.9236 123.554C41.1507 123.681 41.4112 123.744 41.7051 123.744ZM47.5226 124.445C46.7144 124.445 46.0998 124.135 45.679 123.514C45.2582 122.892 45.0477 121.994 45.0477 120.818C45.0477 120.03 45.1413 119.369 45.3283 118.834C45.5153 118.293 45.7925 117.886 46.1599 117.612C46.534 117.338 46.9882 117.201 47.5226 117.201C48.3375 117.201 48.9521 117.508 49.3662 118.123C49.7871 118.731 49.9975 119.626 49.9975 120.808C49.9975 121.597 49.9039 122.261 49.7169 122.802C49.5299 123.343 49.2527 123.754 48.8853 124.035C48.5179 124.308 48.0637 124.445 47.5226 124.445ZM47.5226 123.734C48.0837 123.734 48.4979 123.497 48.765 123.023C49.0389 122.542 49.1759 121.804 49.1759 120.808C49.1759 119.806 49.0389 119.075 48.765 118.614C48.4979 118.146 48.0837 117.913 47.5226 117.913C46.9682 117.913 46.554 118.146 46.2802 118.614C46.0063 119.082 45.8694 119.813 45.8694 120.808C45.8694 121.804 46.0063 122.542 46.2802 123.023C46.554 123.497 46.9682 123.734 47.5226 123.734Z" fill="white"/>
<path opacity="0.7" d="M42.697 160.747C42.5701 160.747 42.4699 160.71 42.3964 160.637C42.323 160.563 42.2862 160.459 42.2862 160.326V159.164H39.4106C39.277 159.164 39.1701 159.134 39.09 159.073C39.0165 159.007 38.9797 158.913 38.9797 158.793C38.9797 158.719 38.9964 158.646 39.0298 158.572C39.0632 158.492 39.1234 158.392 39.2102 158.272L42.2662 153.823C42.3263 153.73 42.3931 153.659 42.4666 153.613C42.5401 153.566 42.6269 153.543 42.7271 153.543C42.834 153.543 42.9241 153.576 42.9976 153.643C43.0778 153.71 43.1179 153.816 43.1179 153.963V158.462H43.8493C43.9762 158.462 44.0731 158.492 44.1399 158.552C44.2067 158.613 44.2401 158.699 44.2401 158.813C44.2401 158.926 44.2067 159.013 44.1399 159.073C44.0731 159.134 43.9762 159.164 43.8493 159.164H43.1179V160.326C43.1179 160.459 43.0811 160.563 43.0076 160.637C42.9342 160.71 42.8306 160.747 42.697 160.747ZM42.2862 158.462V154.575H42.5267L39.7212 158.683V158.462H42.2862ZM47.5226 160.767C46.7144 160.767 46.0998 160.456 45.679 159.835C45.2582 159.214 45.0477 158.315 45.0477 157.14C45.0477 156.351 45.1413 155.69 45.3283 155.156C45.5153 154.615 45.7925 154.207 46.1599 153.933C46.534 153.659 46.9882 153.523 47.5226 153.523C48.3375 153.523 48.9521 153.83 49.3662 154.444C49.7871 155.052 49.9975 155.947 49.9975 157.13C49.9975 157.918 49.9039 158.582 49.7169 159.124C49.5299 159.665 49.2527 160.075 48.8853 160.356C48.5179 160.63 48.0637 160.767 47.5226 160.767ZM47.5226 160.055C48.0837 160.055 48.4979 159.818 48.765 159.344C49.0389 158.863 49.1759 158.125 49.1759 157.13C49.1759 156.128 49.0389 155.396 48.765 154.935C48.4979 154.468 48.0837 154.234 47.5226 154.234C46.9682 154.234 46.554 154.468 46.2802 154.935C46.0063 155.403 45.8694 156.134 45.8694 157.13C45.8694 158.125 46.0063 158.863 46.2802 159.344C46.554 159.818 46.9682 160.055 47.5226 160.055Z" fill="white"/>
<path opacity="0.7" d="M39.8013 196.998C39.6544 196.998 39.5442 196.965 39.4707 196.898C39.4039 196.824 39.3705 196.727 39.3705 196.607C39.3705 196.534 39.3872 196.464 39.4206 196.397C39.4607 196.323 39.5141 196.25 39.5809 196.176L41.8253 193.772C42.166 193.404 42.4098 193.067 42.5568 192.76C42.7104 192.446 42.7872 192.128 42.7872 191.808C42.7872 191.407 42.6636 191.103 42.4165 190.896C42.176 190.682 41.822 190.575 41.3544 190.575C41.0538 190.575 40.7699 190.622 40.5027 190.716C40.2355 190.809 39.9784 190.953 39.7312 191.146C39.6444 191.213 39.5642 191.243 39.4907 191.237C39.4239 191.23 39.3638 191.203 39.3104 191.156C39.2569 191.11 39.2202 191.05 39.2002 190.976C39.1801 190.903 39.1801 190.829 39.2002 190.756C39.2269 190.682 39.2803 190.615 39.3605 190.555C39.621 190.342 39.9349 190.171 40.3023 190.044C40.6697 189.911 41.0438 189.844 41.4245 189.844C41.8988 189.844 42.2996 189.917 42.6269 190.064C42.9542 190.211 43.2014 190.428 43.3684 190.716C43.5353 190.996 43.6188 191.34 43.6188 191.748C43.6188 192.028 43.5721 192.305 43.4786 192.579C43.3917 192.846 43.2548 193.12 43.0678 193.401C42.8874 193.681 42.6503 193.972 42.3564 194.273L40.2222 196.527V196.297H43.5988C43.7257 196.297 43.8192 196.327 43.8794 196.387C43.9462 196.44 43.9796 196.524 43.9796 196.637C43.9796 196.757 43.9462 196.848 43.8794 196.908C43.8192 196.968 43.7257 196.998 43.5988 196.998H39.8013ZM47.5226 197.088C46.7144 197.088 46.0998 196.777 45.679 196.156C45.2582 195.535 45.0477 194.637 45.0477 193.461C45.0477 192.673 45.1413 192.011 45.3283 191.477C45.5153 190.936 45.7925 190.529 46.1599 190.255C46.534 189.981 46.9882 189.844 47.5226 189.844C48.3375 189.844 48.9521 190.151 49.3662 190.766C49.7871 191.374 49.9975 192.269 49.9975 193.451C49.9975 194.239 49.9039 194.904 49.7169 195.445C49.5299 195.986 49.2527 196.397 48.8853 196.677C48.5179 196.951 48.0637 197.088 47.5226 197.088ZM47.5226 196.377C48.0837 196.377 48.4979 196.14 48.765 195.665C49.0389 195.184 49.1759 194.446 49.1759 193.451C49.1759 192.449 49.0389 191.718 48.765 191.257C48.4979 190.789 48.0837 190.555 47.5226 190.555C46.9682 190.555 46.554 190.789 46.2802 191.257C46.0063 191.724 45.8694 192.456 45.8694 193.451C45.8694 194.446 46.0063 195.184 46.2802 195.665C46.554 196.14 46.9682 196.377 47.5226 196.377Z" fill="white"/>
<path opacity="0.7" d="M46.2701 233.409C45.4619 233.409 44.8473 233.099 44.4265 232.478C44.0057 231.856 43.7953 230.958 43.7953 229.782C43.7953 228.994 43.8888 228.333 44.0758 227.798C44.2629 227.257 44.5401 226.85 44.9075 226.576C45.2815 226.302 45.7358 226.165 46.2701 226.165C47.0851 226.165 47.6996 226.472 48.1138 227.087C48.5346 227.695 48.745 228.59 48.745 229.772C48.745 230.56 48.6515 231.225 48.4645 231.766C48.2774 232.307 48.0002 232.718 47.6328 232.999C47.2654 233.272 46.8112 233.409 46.2701 233.409ZM46.2701 232.698C46.8312 232.698 47.2454 232.461 47.5126 231.987C47.7865 231.506 47.9234 230.768 47.9234 229.772C47.9234 228.77 47.7865 228.039 47.5126 227.578C47.2454 227.11 46.8312 226.877 46.2701 226.877C45.7157 226.877 45.3016 227.11 45.0277 227.578C44.7538 228.046 44.6169 228.777 44.6169 229.772C44.6169 230.768 44.7538 231.506 45.0277 231.987C45.3016 232.461 45.7157 232.698 46.2701 232.698Z" fill="white"/>
</g>
<g filter="url(#filter0_d_0_1)">
<path d="M60.2369 131.306L64.4198 137.148C68.6272 142.771 77.1154 154.781 85.4324 163.352C93.7738 172.251 102.066 177.71 110.628 166.246C118.945 154.781 127.262 125.301 135.824 125.465C144.116 125.301 152.457 154.781 160.774 163.352C169.263 172.251 177.653 160.24 185.97 166.246C194.434 172.251 202.849 195.18 211.166 186.609C219.58 177.71 228.044 137.311 236.361 140.041C244.751 142.771 253.24 164.077 261.557 187.17C269.898 210.481 278.191 210.481 286.752 195.904C296.232 181.952 300.86 176.494 311.054 168.81C321.807 161.758 328.582 172.251 336.899 160.404C345.387 148.776 353.777 113.837 362.094 107.995C370.558 102.372 378.973 125.301 387.29 128.413C395.705 131.306 404.168 113.837 408.327 105.102L412.485 96.3669" stroke="#0F172A" stroke-width="2.8403" stroke-linecap="round"/>
</g>
<g filter="url(#filter1_d_0_1)">
<ellipse cx="135.025" cy="124.929" rx="5.06232" ry="5.01832" fill="#FFA70A"/>
</g>
<g filter="url(#filter2_d_0_1)">
<ellipse cx="236.443" cy="139.417" rx="5.06232" ry="5.01832" fill="#FFA70A"/>
</g>
<g filter="url(#filter3_d_0_1)">
<ellipse cx="183.017" cy="164.772" rx="5.06232" ry="5.01832" fill="#FFA70A"/>
</g>
<line x1="235.645" y1="212.479" x2="235.645" y2="96" stroke="#0F172A" stroke-width="0.710075" stroke-dasharray="1.42 4.97"/>
</g>
<path d="M32.7159 295.897V293.909H43.1605V295.897H39.1143V307H36.7621V295.897H32.7159ZM45.0717 307V297.182H47.3857V307H45.0717ZM46.2351 295.788C45.8686 295.788 45.5533 295.667 45.2891 295.424C45.0249 295.177 44.8928 294.881 44.8928 294.536C44.8928 294.186 45.0249 293.89 45.2891 293.647C45.5533 293.4 45.8686 293.276 46.2351 293.276C46.6058 293.276 46.9212 293.4 47.1811 293.647C47.4453 293.89 47.5774 294.186 47.5774 294.536C47.5774 294.881 47.4453 295.177 47.1811 295.424C46.9212 295.667 46.6058 295.788 46.2351 295.788ZM49.7651 307V297.182H51.9767V298.85H52.0918C52.2963 298.288 52.6351 297.849 53.1081 297.533C53.5811 297.214 54.1458 297.054 54.802 297.054C55.4668 297.054 56.0272 297.216 56.4831 297.54C56.9434 297.859 57.2672 298.296 57.4547 298.85H57.557C57.7743 298.305 58.1408 297.87 58.6564 297.546C59.1763 297.218 59.7921 297.054 60.5037 297.054C61.4071 297.054 62.1444 297.339 62.7154 297.911C63.2864 298.482 63.5719 299.315 63.5719 300.41V307H61.2516V300.768C61.2516 300.158 61.0897 299.713 60.7658 299.432C60.4419 299.146 60.0456 299.004 59.5769 299.004C59.0186 299.004 58.5819 299.178 58.2665 299.528C57.9554 299.873 57.7999 300.322 57.7999 300.876V307H55.5307V300.672C55.5307 300.165 55.3773 299.76 55.0705 299.457C54.7679 299.155 54.3716 299.004 53.8816 299.004C53.5492 299.004 53.2466 299.089 52.9739 299.259C52.7012 299.425 52.4838 299.662 52.3219 299.969C52.16 300.271 52.079 300.625 52.079 301.03V307H49.7651ZM70.266 307.192C69.2816 307.192 68.4315 306.987 67.7156 306.578C67.0039 306.165 66.4563 305.581 66.0728 304.827C65.6893 304.068 65.4975 303.175 65.4975 302.148C65.4975 301.138 65.6893 300.252 66.0728 299.489C66.4606 298.722 67.0018 298.126 67.6964 297.7C68.391 297.269 69.207 297.054 70.1445 297.054C70.7496 297.054 71.3207 297.152 71.8576 297.348C72.3988 297.54 72.8761 297.838 73.2894 298.243C73.707 298.648 74.0352 299.163 74.2738 299.79C74.5124 300.412 74.6317 301.153 74.6317 302.014V302.724H66.5842V301.164H72.4137C72.4094 300.721 72.3136 300.327 72.1261 299.982C71.9386 299.632 71.6765 299.357 71.3398 299.157C71.0075 298.957 70.6197 298.857 70.1765 298.857C69.7035 298.857 69.288 298.972 68.93 299.202C68.5721 299.428 68.293 299.726 68.0927 300.097C67.8967 300.463 67.7965 300.866 67.7923 301.305V302.666C67.7923 303.237 67.8967 303.727 68.1055 304.136C68.3143 304.541 68.6062 304.852 68.9812 305.07C69.3562 305.283 69.7951 305.389 70.2979 305.389C70.6346 305.389 70.9393 305.342 71.212 305.249C71.4847 305.151 71.7212 305.008 71.9215 304.82C72.1218 304.633 72.2731 304.401 72.3754 304.124L74.5359 304.366C74.3995 304.937 74.1396 305.436 73.756 305.862C73.3768 306.284 72.891 306.612 72.2987 306.847C71.7063 307.077 71.0288 307.192 70.266 307.192ZM84.9661 307.192C84.0712 307.192 83.302 307.03 82.6586 306.706C82.0151 306.382 81.5186 305.945 81.1692 305.396C80.824 304.842 80.6515 304.217 80.6515 303.523C80.6515 302.999 80.758 302.534 80.9711 302.129C81.1884 301.724 81.4867 301.349 81.8659 301.004C82.2495 300.659 82.6926 300.316 83.1955 299.975L85.5158 298.396C85.8567 298.175 86.1145 297.94 86.2892 297.693C86.4682 297.446 86.5577 297.156 86.5577 296.824C86.5577 296.543 86.4384 296.276 86.1998 296.025C85.9654 295.773 85.6415 295.648 85.2282 295.648C84.9512 295.648 84.7061 295.714 84.4931 295.846C84.2843 295.974 84.1202 296.142 84.0009 296.351C83.8858 296.56 83.8283 296.781 83.8283 297.016C83.8283 297.301 83.9071 297.591 84.0648 297.885C84.2267 298.179 84.4355 298.484 84.6912 298.799C84.9512 299.114 85.2282 299.449 85.5222 299.803L91.665 307H89.1593L84.0584 301.158C83.6792 300.714 83.3127 300.278 82.959 299.847C82.6096 299.417 82.3219 298.969 82.0961 298.505C81.8745 298.036 81.7637 297.529 81.7637 296.984C81.7637 296.366 81.9064 295.814 82.1919 295.328C82.4775 294.838 82.8759 294.452 83.3873 294.171C83.9029 293.89 84.5059 293.749 85.1962 293.749C85.8865 293.749 86.4789 293.886 86.9732 294.158C87.4675 294.431 87.8489 294.793 88.1174 295.245C88.3858 295.697 88.5201 296.189 88.5201 296.722C88.5201 297.339 88.3667 297.893 88.0598 298.384C87.753 298.869 87.3269 299.31 86.7814 299.707L84.1351 301.643C83.7005 301.959 83.3894 302.278 83.2019 302.602C83.0144 302.922 82.9206 303.195 82.9206 303.42C82.9206 303.766 83.008 304.079 83.1827 304.36C83.3574 304.641 83.6025 304.867 83.9178 305.038C84.2374 305.204 84.6103 305.287 85.0364 305.287C85.5051 305.287 85.9675 305.183 86.4235 304.974C86.8794 304.761 87.2949 304.458 87.6699 304.066C88.0449 303.674 88.3432 303.205 88.5648 302.66C88.7864 302.11 88.8972 301.501 88.8972 300.832H90.8851C90.8851 301.658 90.7935 302.379 90.6103 302.992C90.427 303.602 90.1905 304.117 89.9007 304.539C89.611 304.957 89.3042 305.291 88.9803 305.543C88.878 305.615 88.78 305.688 88.6863 305.76C88.5925 305.832 88.4945 305.905 88.3922 305.977C87.932 306.395 87.3929 306.702 86.775 306.898C86.1614 307.094 85.5584 307.192 84.9661 307.192ZM99.2379 307H96.7067L101.315 293.909H104.243L108.858 307H106.327L102.83 296.594H102.728L99.2379 307ZM99.321 301.867H106.224V303.772H99.321V301.867ZM114.767 297.182V298.972H109.123V297.182H114.767ZM110.517 294.83H112.831V304.047C112.831 304.358 112.877 304.597 112.971 304.763C113.069 304.925 113.197 305.036 113.355 305.095C113.512 305.155 113.687 305.185 113.879 305.185C114.024 305.185 114.156 305.174 114.275 305.153C114.399 305.131 114.493 305.112 114.556 305.095L114.946 306.904C114.823 306.947 114.646 306.994 114.416 307.045C114.19 307.096 113.913 307.126 113.585 307.134C113.005 307.151 112.483 307.064 112.019 306.872C111.554 306.676 111.186 306.374 110.913 305.964C110.645 305.555 110.512 305.044 110.517 304.43V294.83ZM121.605 297.182V298.972H115.961V297.182H121.605ZM117.355 294.83H119.669V304.047C119.669 304.358 119.715 304.597 119.809 304.763C119.907 304.925 120.035 305.036 120.193 305.095C120.35 305.155 120.525 305.185 120.717 305.185C120.862 305.185 120.994 305.174 121.113 305.153C121.237 305.131 121.33 305.112 121.394 305.095L121.784 306.904C121.661 306.947 121.484 306.994 121.254 307.045C121.028 307.096 120.751 307.126 120.423 307.134C119.843 307.151 119.321 307.064 118.857 306.872C118.392 306.676 118.024 306.374 117.751 305.964C117.482 305.555 117.35 305.044 117.355 304.43V294.83ZM127.782 307.192C126.797 307.192 125.947 306.987 125.231 306.578C124.52 306.165 123.972 305.581 123.588 304.827C123.205 304.068 123.013 303.175 123.013 302.148C123.013 301.138 123.205 300.252 123.588 299.489C123.976 298.722 124.517 298.126 125.212 297.7C125.907 297.269 126.723 297.054 127.66 297.054C128.265 297.054 128.836 297.152 129.373 297.348C129.914 297.54 130.392 297.838 130.805 298.243C131.223 298.648 131.551 299.163 131.789 299.79C132.028 300.412 132.147 301.153 132.147 302.014V302.724H124.1V301.164H129.929C129.925 300.721 129.829 300.327 129.642 299.982C129.454 299.632 129.192 299.357 128.855 299.157C128.523 298.957 128.135 298.857 127.692 298.857C127.219 298.857 126.804 298.972 126.446 299.202C126.088 299.428 125.809 299.726 125.608 300.097C125.412 300.463 125.312 300.866 125.308 301.305V302.666C125.308 303.237 125.412 303.727 125.621 304.136C125.83 304.541 126.122 304.852 126.497 305.07C126.872 305.283 127.311 305.389 127.814 305.389C128.15 305.389 128.455 305.342 128.728 305.249C129 305.151 129.237 305.008 129.437 304.82C129.637 304.633 129.789 304.401 129.891 304.124L132.051 304.366C131.915 304.937 131.655 305.436 131.272 305.862C130.892 306.284 130.407 306.612 129.814 306.847C129.222 307.077 128.544 307.192 127.782 307.192ZM136.419 301.247V307H134.105V297.182H136.317V298.85H136.432C136.657 298.3 137.018 297.864 137.512 297.54C138.01 297.216 138.626 297.054 139.359 297.054C140.037 297.054 140.627 297.199 141.13 297.489C141.637 297.778 142.029 298.198 142.306 298.748C142.587 299.298 142.726 299.964 142.721 300.749V307H140.407V301.107C140.407 300.45 140.237 299.937 139.896 299.566C139.559 299.195 139.093 299.01 138.496 299.01C138.091 299.01 137.731 299.099 137.416 299.278C137.105 299.453 136.86 299.707 136.681 300.039C136.506 300.371 136.419 300.774 136.419 301.247ZM148.717 307.173C147.946 307.173 147.256 306.974 146.646 306.578C146.037 306.182 145.555 305.607 145.202 304.852C144.848 304.098 144.671 303.182 144.671 302.104C144.671 301.013 144.85 300.092 145.208 299.342C145.57 298.588 146.058 298.019 146.672 297.636C147.285 297.248 147.969 297.054 148.724 297.054C149.299 297.054 149.772 297.152 150.143 297.348C150.513 297.54 150.807 297.772 151.025 298.045C151.242 298.313 151.41 298.567 151.53 298.805H151.626V293.909H153.946V307H151.67V305.453H151.53C151.41 305.692 151.238 305.945 151.012 306.214C150.786 306.478 150.488 306.704 150.117 306.891C149.746 307.079 149.28 307.173 148.717 307.173ZM149.363 305.274C149.853 305.274 150.27 305.142 150.616 304.878C150.961 304.609 151.223 304.237 151.402 303.759C151.581 303.282 151.67 302.726 151.67 302.091C151.67 301.456 151.581 300.904 151.402 300.435C151.227 299.967 150.967 299.602 150.622 299.342C150.281 299.082 149.861 298.952 149.363 298.952C148.847 298.952 148.417 299.087 148.072 299.355C147.726 299.624 147.466 299.994 147.292 300.467C147.117 300.94 147.03 301.482 147.03 302.091C147.03 302.705 147.117 303.252 147.292 303.734C147.471 304.211 147.733 304.588 148.078 304.865C148.427 305.138 148.856 305.274 149.363 305.274ZM159.237 307.198C158.615 307.198 158.054 307.087 157.556 306.866C157.061 306.64 156.669 306.308 156.38 305.869C156.094 305.43 155.951 304.888 155.951 304.245C155.951 303.691 156.054 303.233 156.258 302.871C156.463 302.509 156.742 302.219 157.096 302.001C157.449 301.784 157.848 301.62 158.291 301.509C158.738 301.394 159.201 301.311 159.678 301.26C160.253 301.2 160.72 301.147 161.078 301.1C161.436 301.049 161.696 300.972 161.858 300.87C162.024 300.763 162.107 300.599 162.107 300.378V300.339C162.107 299.858 161.964 299.485 161.679 299.221C161.393 298.957 160.982 298.825 160.445 298.825C159.878 298.825 159.429 298.948 159.096 299.195C158.768 299.442 158.547 299.734 158.431 300.071L156.271 299.764C156.441 299.168 156.723 298.669 157.115 298.268C157.507 297.864 157.986 297.561 158.553 297.361C159.12 297.156 159.746 297.054 160.432 297.054C160.905 297.054 161.376 297.109 161.845 297.22C162.314 297.331 162.742 297.514 163.13 297.77C163.517 298.021 163.828 298.364 164.063 298.799C164.301 299.234 164.421 299.777 164.421 300.429V307H162.196V305.651H162.12C161.979 305.924 161.781 306.18 161.525 306.418C161.274 306.653 160.956 306.842 160.573 306.987C160.194 307.128 159.748 307.198 159.237 307.198ZM159.838 305.498C160.302 305.498 160.705 305.406 161.046 305.223C161.387 305.036 161.649 304.788 161.832 304.482C162.02 304.175 162.113 303.84 162.113 303.478V302.321C162.041 302.381 161.917 302.436 161.743 302.487C161.572 302.538 161.38 302.583 161.167 302.621C160.954 302.66 160.743 302.694 160.534 302.724C160.326 302.754 160.145 302.779 159.991 302.8C159.646 302.847 159.337 302.924 159.064 303.031C158.792 303.137 158.576 303.286 158.419 303.478C158.261 303.665 158.182 303.908 158.182 304.207C158.182 304.633 158.338 304.955 158.649 305.172C158.96 305.389 159.356 305.498 159.838 305.498ZM169.061 301.247V307H166.748V297.182H168.959V298.85H169.074C169.3 298.3 169.66 297.864 170.154 297.54C170.653 297.216 171.269 297.054 172.002 297.054C172.679 297.054 173.27 297.199 173.772 297.489C174.279 297.778 174.672 298.198 174.949 298.748C175.23 299.298 175.368 299.964 175.364 300.749V307H173.05V301.107C173.05 300.45 172.88 299.937 172.539 299.566C172.202 299.195 171.735 299.01 171.139 299.01C170.734 299.01 170.374 299.099 170.059 299.278C169.748 299.453 169.502 299.707 169.324 300.039C169.149 300.371 169.061 300.774 169.061 301.247ZM181.999 307.192C181.019 307.192 180.177 306.977 179.474 306.546C178.775 306.116 178.236 305.521 177.857 304.763C177.482 304 177.294 303.122 177.294 302.129C177.294 301.132 177.486 300.252 177.87 299.489C178.253 298.722 178.794 298.126 179.493 297.7C180.196 297.269 181.027 297.054 181.986 297.054C182.783 297.054 183.488 297.201 184.102 297.495C184.72 297.785 185.212 298.196 185.578 298.729C185.945 299.257 186.154 299.875 186.205 300.582H183.993C183.904 300.109 183.691 299.715 183.354 299.4C183.022 299.08 182.576 298.92 182.018 298.92C181.545 298.92 181.13 299.048 180.772 299.304C180.414 299.555 180.135 299.918 179.934 300.391C179.738 300.864 179.64 301.43 179.64 302.091C179.64 302.76 179.738 303.335 179.934 303.817C180.13 304.294 180.405 304.663 180.759 304.923C181.117 305.178 181.537 305.306 182.018 305.306C182.359 305.306 182.664 305.242 182.932 305.114C183.205 304.982 183.433 304.793 183.616 304.545C183.799 304.298 183.925 303.998 183.993 303.644H186.205C186.15 304.339 185.945 304.955 185.591 305.491C185.238 306.024 184.756 306.442 184.147 306.744C183.537 307.043 182.821 307.192 181.999 307.192ZM192.452 307.192C191.467 307.192 190.617 306.987 189.901 306.578C189.189 306.165 188.642 305.581 188.258 304.827C187.875 304.068 187.683 303.175 187.683 302.148C187.683 301.138 187.875 300.252 188.258 299.489C188.646 298.722 189.187 298.126 189.882 297.7C190.577 297.269 191.393 297.054 192.33 297.054C192.935 297.054 193.506 297.152 194.043 297.348C194.584 297.54 195.062 297.838 195.475 298.243C195.893 298.648 196.221 299.163 196.459 299.79C196.698 300.412 196.817 301.153 196.817 302.014V302.724H188.77V301.164H194.599C194.595 300.721 194.499 300.327 194.312 299.982C194.124 299.632 193.862 299.357 193.525 299.157C193.193 298.957 192.805 298.857 192.362 298.857C191.889 298.857 191.474 298.972 191.116 299.202C190.758 299.428 190.479 299.726 190.278 300.097C190.082 300.463 189.982 300.866 189.978 301.305V302.666C189.978 303.237 190.082 303.727 190.291 304.136C190.5 304.541 190.792 304.852 191.167 305.07C191.542 305.283 191.981 305.389 192.483 305.389C192.82 305.389 193.125 305.342 193.398 305.249C193.67 305.151 193.907 305.008 194.107 304.82C194.307 304.633 194.459 304.401 194.561 304.124L196.721 304.366C196.585 304.937 196.325 305.436 195.942 305.862C195.562 306.284 195.077 306.612 194.484 306.847C193.892 307.077 193.214 307.192 192.452 307.192Z" fill="#3D474D"/>
<path d="M32.3331 318.818H34.0781L36.7379 323.447H36.8473L39.5071 318.818H41.2521L37.5582 325.003V329H36.027V325.003L32.3331 318.818ZM44.5421 329.154C43.8262 329.154 43.2014 328.99 42.6678 328.662C42.1342 328.334 41.7199 327.875 41.4249 327.285C41.1299 326.695 40.9824 326.005 40.9824 325.217C40.9824 324.424 41.1299 323.732 41.4249 323.138C41.7199 322.545 42.1342 322.085 42.6678 321.756C43.2014 321.428 43.8262 321.264 44.5421 321.264C45.258 321.264 45.8828 321.428 46.4164 321.756C46.95 322.085 47.3643 322.545 47.6593 323.138C47.9542 323.732 48.1017 324.424 48.1017 325.217C48.1017 326.005 47.9542 326.695 47.6593 327.285C47.3643 327.875 46.95 328.334 46.4164 328.662C45.8828 328.99 45.258 329.154 44.5421 329.154ZM44.5471 327.906C45.0111 327.906 45.3955 327.784 45.7005 327.538C46.0054 327.293 46.2308 326.967 46.3766 326.559C46.5257 326.151 46.6003 325.702 46.6003 325.212C46.6003 324.724 46.5257 324.277 46.3766 323.869C46.2308 323.458 46.0054 323.129 45.7005 322.88C45.3955 322.631 45.0111 322.507 44.5471 322.507C44.0797 322.507 43.6919 322.631 43.3837 322.88C43.0788 323.129 42.8517 323.458 42.7026 323.869C42.5568 324.277 42.4838 324.724 42.4838 325.212C42.4838 325.702 42.5568 326.151 42.7026 326.559C42.8517 326.967 43.0788 327.293 43.3837 327.538C43.6919 327.784 44.0797 327.906 44.5471 327.906ZM54.5984 325.833V321.364H56.0898V329H54.6282V327.678H54.5487C54.373 328.085 54.0913 328.425 53.7035 328.697C53.319 328.965 52.8401 329.099 52.2667 329.099C51.7762 329.099 51.342 328.992 50.9641 328.776C50.5896 328.558 50.2946 328.234 50.0792 327.807C49.8671 327.379 49.761 326.851 49.761 326.221V321.364H51.2475V326.042C51.2475 326.562 51.3917 326.977 51.68 327.285C51.9684 327.593 52.3429 327.747 52.8036 327.747C53.082 327.747 53.3588 327.678 53.6339 327.538C53.9123 327.399 54.1426 327.189 54.3249 326.907C54.5105 326.625 54.6017 326.267 54.5984 325.833ZM58.0872 329V321.364H59.524V322.577H59.6035C59.7427 322.166 59.988 321.843 60.3393 321.607C60.694 321.369 61.095 321.249 61.5424 321.249C61.6352 321.249 61.7446 321.253 61.8706 321.259C61.9998 321.266 62.1009 321.274 62.1738 321.284V322.706C62.1142 322.689 62.0081 322.671 61.8556 322.651C61.7032 322.628 61.5507 322.616 61.3983 322.616C61.0469 322.616 60.7337 322.691 60.4586 322.84C60.1868 322.986 59.9714 323.19 59.8123 323.452C59.6532 323.71 59.5737 324.005 59.5737 324.337V329H58.0872ZM67.2846 329V318.818H70.9139C71.706 318.818 72.3623 318.962 72.8826 319.251C73.403 319.539 73.7924 319.933 74.051 320.434C74.3095 320.931 74.4387 321.491 74.4387 322.114C74.4387 322.741 74.3078 323.304 74.046 323.805C73.7875 324.302 73.3964 324.696 72.8727 324.988C72.3523 325.276 71.6977 325.42 70.9089 325.42H68.4132V324.118H70.7697C71.2702 324.118 71.6762 324.032 71.9877 323.859C72.2993 323.684 72.528 323.445 72.6738 323.143C72.8197 322.842 72.8926 322.499 72.8926 322.114C72.8926 321.73 72.8197 321.388 72.6738 321.09C72.528 320.792 72.2976 320.558 71.9828 320.389C71.6712 320.22 71.2602 320.136 70.7498 320.136H68.8208V329H67.2846ZM79.3159 329.154C78.5635 329.154 77.9155 328.993 77.372 328.672C76.8317 328.347 76.4141 327.891 76.1191 327.305C75.8275 326.715 75.6816 326.024 75.6816 325.232C75.6816 324.449 75.8275 323.76 76.1191 323.163C76.4141 322.567 76.8251 322.101 77.3521 321.766C77.8824 321.432 78.5022 321.264 79.2115 321.264C79.6423 321.264 80.06 321.335 80.4643 321.478C80.8687 321.621 81.2316 321.844 81.5531 322.149C81.8746 322.454 82.1281 322.85 82.3137 323.337C82.4993 323.821 82.5922 324.41 82.5922 325.102V325.629H76.5218V324.516H81.1355C81.1355 324.125 81.0559 323.778 80.8968 323.477C80.7377 323.172 80.514 322.931 80.2257 322.756C79.9406 322.58 79.6059 322.492 79.2214 322.492C78.8038 322.492 78.4392 322.595 78.1277 322.8C77.8194 323.003 77.5808 323.268 77.4118 323.596C77.246 323.921 77.1632 324.274 77.1632 324.655V325.525C77.1632 326.035 77.2527 326.469 77.4316 326.827C77.6139 327.185 77.8675 327.459 78.1923 327.648C78.5171 327.833 78.8966 327.926 79.3308 327.926C79.6125 327.926 79.8694 327.886 80.1014 327.807C80.3334 327.724 80.5339 327.601 80.7029 327.439C80.872 327.277 81.0012 327.076 81.0907 326.837L82.4977 327.091C82.385 327.505 82.1828 327.868 81.8912 328.18C81.6028 328.488 81.2399 328.728 80.8024 328.901C80.3682 329.07 79.8727 329.154 79.3159 329.154ZM87.4581 329.154C86.7422 329.154 86.1174 328.99 85.5838 328.662C85.0502 328.334 84.6359 327.875 84.3409 327.285C84.0459 326.695 83.8984 326.005 83.8984 325.217C83.8984 324.424 84.0459 323.732 84.3409 323.138C84.6359 322.545 85.0502 322.085 85.5838 321.756C86.1174 321.428 86.7422 321.264 87.4581 321.264C88.174 321.264 88.7988 321.428 89.3324 321.756C89.866 322.085 90.2803 322.545 90.5753 323.138C90.8703 323.732 91.0178 324.424 91.0178 325.217C91.0178 326.005 90.8703 326.695 90.5753 327.285C90.2803 327.875 89.866 328.334 89.3324 328.662C88.7988 328.99 88.174 329.154 87.4581 329.154ZM87.4631 327.906C87.9271 327.906 88.3116 327.784 88.6165 327.538C88.9214 327.293 89.1468 326.967 89.2926 326.559C89.4418 326.151 89.5163 325.702 89.5163 325.212C89.5163 324.724 89.4418 324.277 89.2926 323.869C89.1468 323.458 88.9214 323.129 88.6165 322.88C88.3116 322.631 87.9271 322.507 87.4631 322.507C86.9957 322.507 86.608 322.631 86.2997 322.88C85.9948 323.129 85.7678 323.458 85.6186 323.869C85.4728 324.277 85.3999 324.724 85.3999 325.212C85.3999 325.702 85.4728 326.151 85.6186 326.559C85.7678 326.967 85.9948 327.293 86.2997 327.538C86.608 327.784 86.9957 327.906 87.4631 327.906ZM92.677 331.864V321.364H94.1287V322.602H94.253C94.3392 322.442 94.4635 322.259 94.6259 322.05C94.7883 321.841 95.0137 321.659 95.302 321.503C95.5904 321.344 95.9715 321.264 96.4455 321.264C97.062 321.264 97.6122 321.42 98.0961 321.732C98.58 322.043 98.9595 322.492 99.2346 323.079C99.513 323.665 99.6522 324.371 99.6522 325.197C99.6522 326.022 99.5146 326.73 99.2395 327.32C98.9644 327.906 98.5866 328.359 98.106 328.677C97.6254 328.992 97.0769 329.149 96.4604 329.149C95.9964 329.149 95.6169 329.071 95.3219 328.915C95.0302 328.76 94.8016 328.577 94.6358 328.369C94.4701 328.16 94.3425 327.974 94.253 327.812H94.1635V331.864H92.677ZM94.1337 325.182C94.1337 325.719 94.2116 326.189 94.3674 326.594C94.5231 326.998 94.7485 327.315 95.0435 327.543C95.3385 327.769 95.6998 327.881 96.1273 327.881C96.5714 327.881 96.9426 327.764 97.2409 327.528C97.5392 327.29 97.7646 326.967 97.9171 326.559C98.0729 326.151 98.1507 325.692 98.1507 325.182C98.1507 324.678 98.0745 324.226 97.9221 323.825C97.7729 323.424 97.5475 323.107 97.2459 322.875C96.9476 322.643 96.5748 322.527 96.1273 322.527C95.6964 322.527 95.3319 322.638 95.0336 322.86C94.7386 323.082 94.5149 323.392 94.3624 323.79C94.2099 324.187 94.1337 324.652 94.1337 325.182ZM102.804 318.818V329H101.318V318.818H102.804ZM108.095 329.154C107.343 329.154 106.695 328.993 106.151 328.672C105.611 328.347 105.193 327.891 104.898 327.305C104.607 326.715 104.461 326.024 104.461 325.232C104.461 324.449 104.607 323.76 104.898 323.163C105.193 322.567 105.604 322.101 106.131 321.766C106.662 321.432 107.281 321.264 107.991 321.264C108.422 321.264 108.839 321.335 109.244 321.478C109.648 321.621 110.011 321.844 110.332 322.149C110.654 322.454 110.907 322.85 111.093 323.337C111.279 323.821 111.371 324.41 111.371 325.102V325.629H105.301V324.516H109.915C109.915 324.125 109.835 323.778 109.676 323.477C109.517 323.172 109.293 322.931 109.005 322.756C108.72 322.58 108.385 322.492 108.001 322.492C107.583 322.492 107.219 322.595 106.907 322.8C106.599 323.003 106.36 323.268 106.191 323.596C106.025 323.921 105.942 324.274 105.942 324.655V325.525C105.942 326.035 106.032 326.469 106.211 326.827C106.393 327.185 106.647 327.459 106.972 327.648C107.296 327.833 107.676 327.926 108.11 327.926C108.392 327.926 108.649 327.886 108.881 327.807C109.113 327.724 109.313 327.601 109.482 327.439C109.651 327.277 109.781 327.076 109.87 326.837L111.277 327.091C111.164 327.505 110.962 327.868 110.67 328.18C110.382 328.488 110.019 328.728 109.582 328.901C109.147 329.07 108.652 329.154 108.095 329.154ZM116.433 322V321.045C116.433 320.764 116.486 320.467 116.592 320.156C116.698 319.844 116.845 319.546 117.034 319.261C117.223 318.976 117.445 318.732 117.7 318.53L118.436 319.057C118.234 319.352 118.062 319.66 117.919 319.982C117.777 320.303 117.705 320.653 117.705 321.031V322H116.433ZM119.72 329V321.364H121.206V329H119.72ZM120.471 320.185C120.212 320.185 119.99 320.099 119.805 319.927C119.622 319.751 119.531 319.542 119.531 319.3C119.531 319.055 119.622 318.846 119.805 318.674C119.99 318.498 120.212 318.411 120.471 318.411C120.729 318.411 120.95 318.498 121.132 318.674C121.318 318.846 121.41 319.055 121.41 319.3C121.41 319.542 121.318 319.751 121.132 319.927C120.95 320.099 120.729 320.185 120.471 320.185ZM124.693 324.466V329H123.206V321.364H124.633V322.607H124.728C124.903 322.202 125.178 321.877 125.553 321.632C125.931 321.387 126.406 321.264 126.98 321.264C127.5 321.264 127.956 321.374 128.347 321.592C128.738 321.808 129.041 322.129 129.257 322.557C129.472 322.984 129.58 323.513 129.58 324.143V329H128.093V324.322C128.093 323.768 127.949 323.336 127.661 323.024C127.373 322.709 126.976 322.552 126.473 322.552C126.128 322.552 125.821 322.626 125.553 322.776C125.288 322.925 125.077 323.143 124.922 323.432C124.769 323.717 124.693 324.062 124.693 324.466ZM137.501 329.169C137.017 329.169 136.579 329.08 136.188 328.901C135.797 328.718 135.487 328.455 135.259 328.11C135.033 327.765 134.921 327.343 134.921 326.842C134.921 326.411 135.003 326.057 135.169 325.778C135.335 325.5 135.559 325.28 135.84 325.117C136.122 324.955 136.437 324.832 136.785 324.749C137.133 324.666 137.488 324.603 137.849 324.56C138.306 324.507 138.677 324.464 138.963 324.431C139.248 324.395 139.455 324.337 139.584 324.257C139.713 324.178 139.778 324.048 139.778 323.869V323.835C139.778 323.4 139.655 323.064 139.41 322.825C139.168 322.587 138.807 322.467 138.326 322.467C137.826 322.467 137.431 322.578 137.143 322.8C136.858 323.019 136.661 323.263 136.551 323.531L135.154 323.213C135.32 322.749 135.562 322.375 135.88 322.089C136.202 321.801 136.571 321.592 136.989 321.463C137.406 321.33 137.846 321.264 138.306 321.264C138.611 321.264 138.934 321.301 139.276 321.374C139.62 321.443 139.942 321.572 140.24 321.761C140.542 321.95 140.789 322.22 140.981 322.572C141.173 322.92 141.269 323.372 141.269 323.929V329H139.818V327.956H139.758C139.662 328.148 139.518 328.337 139.325 328.523C139.133 328.708 138.886 328.862 138.585 328.985C138.283 329.108 137.922 329.169 137.501 329.169ZM137.824 327.976C138.235 327.976 138.586 327.895 138.878 327.732C139.173 327.57 139.397 327.358 139.549 327.096C139.705 326.831 139.783 326.547 139.783 326.246V325.261C139.73 325.314 139.627 325.364 139.475 325.411C139.325 325.454 139.155 325.492 138.963 325.525C138.77 325.555 138.583 325.583 138.401 325.609C138.218 325.633 138.066 325.652 137.943 325.669C137.655 325.705 137.392 325.767 137.153 325.853C136.918 325.939 136.729 326.063 136.586 326.226C136.447 326.385 136.377 326.597 136.377 326.862C136.377 327.23 136.513 327.509 136.785 327.697C137.057 327.883 137.403 327.976 137.824 327.976ZM144.736 324.466V329H143.249V321.364H144.676V322.607H144.771C144.946 322.202 145.221 321.877 145.596 321.632C145.974 321.387 146.449 321.264 147.023 321.264C147.543 321.264 147.999 321.374 148.39 321.592C148.781 321.808 149.084 322.129 149.3 322.557C149.515 322.984 149.623 323.513 149.623 324.143V329H148.136V324.322C148.136 323.768 147.992 323.336 147.704 323.024C147.415 322.709 147.019 322.552 146.516 322.552C146.171 322.552 145.864 322.626 145.596 322.776C145.331 322.925 145.12 323.143 144.964 323.432C144.812 323.717 144.736 324.062 144.736 324.466ZM154.475 329.149C153.859 329.149 153.308 328.992 152.825 328.677C152.344 328.359 151.966 327.906 151.691 327.32C151.419 326.73 151.283 326.022 151.283 325.197C151.283 324.371 151.421 323.665 151.696 323.079C151.974 322.492 152.356 322.043 152.839 321.732C153.323 321.42 153.872 321.264 154.485 321.264C154.959 321.264 155.34 321.344 155.629 321.503C155.92 321.659 156.146 321.841 156.305 322.05C156.467 322.259 156.593 322.442 156.683 322.602H156.772V318.818H158.259V329H156.807V327.812H156.683C156.593 327.974 156.464 328.16 156.295 328.369C156.129 328.577 155.9 328.76 155.609 328.915C155.317 329.071 154.939 329.149 154.475 329.149ZM154.803 327.881C155.231 327.881 155.592 327.769 155.887 327.543C156.185 327.315 156.411 326.998 156.563 326.594C156.719 326.189 156.797 325.719 156.797 325.182C156.797 324.652 156.721 324.187 156.568 323.79C156.416 323.392 156.192 323.082 155.897 322.86C155.602 322.638 155.237 322.527 154.803 322.527C154.356 322.527 153.983 322.643 153.685 322.875C153.386 323.107 153.161 323.424 153.009 323.825C152.859 324.226 152.785 324.678 152.785 325.182C152.785 325.692 152.861 326.151 153.013 326.559C153.166 326.967 153.391 327.29 153.69 327.528C153.991 327.764 154.362 327.881 154.803 327.881ZM167.302 329.154C166.586 329.154 165.961 328.99 165.428 328.662C164.894 328.334 164.48 327.875 164.185 327.285C163.89 326.695 163.742 326.005 163.742 325.217C163.742 324.424 163.89 323.732 164.185 323.138C164.48 322.545 164.894 322.085 165.428 321.756C165.961 321.428 166.586 321.264 167.302 321.264C168.018 321.264 168.643 321.428 169.176 321.756C169.71 322.085 170.124 322.545 170.419 323.138C170.714 323.732 170.862 324.424 170.862 325.217C170.862 326.005 170.714 326.695 170.419 327.285C170.124 327.875 169.71 328.334 169.176 328.662C168.643 328.99 168.018 329.154 167.302 329.154ZM167.307 327.906C167.771 327.906 168.155 327.784 168.46 327.538C168.765 327.293 168.991 326.967 169.136 326.559C169.286 326.151 169.36 325.702 169.36 325.212C169.36 324.724 169.286 324.277 169.136 323.869C168.991 323.458 168.765 323.129 168.46 322.88C168.155 322.631 167.771 322.507 167.307 322.507C166.839 322.507 166.452 322.631 166.143 322.88C165.839 323.129 165.612 323.458 165.462 323.869C165.317 324.277 165.244 324.724 165.244 325.212C165.244 325.702 165.317 326.151 165.462 326.559C165.612 326.967 165.839 327.293 166.143 327.538C166.452 327.784 166.839 327.906 167.307 327.906ZM177.358 325.833V321.364H178.85V329H177.388V327.678H177.308C177.133 328.085 176.851 328.425 176.463 328.697C176.079 328.965 175.6 329.099 175.026 329.099C174.536 329.099 174.102 328.992 173.724 328.776C173.349 328.558 173.054 328.234 172.839 327.807C172.627 327.379 172.521 326.851 172.521 326.221V321.364H174.007V326.042C174.007 326.562 174.151 326.977 174.44 327.285C174.728 327.593 175.103 327.747 175.563 327.747C175.842 327.747 176.119 327.678 176.394 327.538C176.672 327.399 176.902 327.189 177.085 326.907C177.27 326.625 177.361 326.267 177.358 325.833ZM184.412 321.364V322.557H180.24V321.364H184.412ZM181.359 319.534H182.846V326.758C182.846 327.046 182.889 327.263 182.975 327.409C183.061 327.552 183.172 327.649 183.308 327.702C183.447 327.752 183.598 327.777 183.76 327.777C183.88 327.777 183.984 327.769 184.074 327.752C184.163 327.736 184.233 327.722 184.282 327.712L184.551 328.94C184.465 328.973 184.342 329.007 184.183 329.04C184.024 329.076 183.825 329.096 183.586 329.099C183.195 329.106 182.831 329.036 182.493 328.891C182.154 328.745 181.881 328.519 181.672 328.214C181.463 327.91 181.359 327.527 181.359 327.066V319.534ZM187.716 318.818V319.773C187.716 320.054 187.663 320.351 187.557 320.663C187.455 320.971 187.309 321.268 187.12 321.553C186.931 321.838 186.709 322.083 186.454 322.288L185.718 321.761C185.913 321.476 186.082 321.173 186.225 320.852C186.371 320.53 186.444 320.175 186.444 319.788V318.818H187.716ZM195.155 329.169C194.671 329.169 194.234 329.08 193.843 328.901C193.452 328.718 193.142 328.455 192.913 328.11C192.688 327.765 192.575 327.343 192.575 326.842C192.575 326.411 192.658 326.057 192.824 325.778C192.989 325.5 193.213 325.28 193.495 325.117C193.776 324.955 194.091 324.832 194.439 324.749C194.787 324.666 195.142 324.603 195.503 324.56C195.961 324.507 196.332 324.464 196.617 324.431C196.902 324.395 197.109 324.337 197.238 324.257C197.368 324.178 197.432 324.048 197.432 323.869V323.835C197.432 323.4 197.31 323.064 197.064 322.825C196.822 322.587 196.461 322.467 195.98 322.467C195.48 322.467 195.086 322.578 194.797 322.8C194.512 323.019 194.315 323.263 194.206 323.531L192.809 323.213C192.974 322.749 193.216 322.375 193.534 322.089C193.856 321.801 194.225 321.592 194.643 321.463C195.061 321.33 195.5 321.264 195.961 321.264C196.266 321.264 196.589 321.301 196.93 321.374C197.275 321.443 197.596 321.572 197.895 321.761C198.196 321.95 198.443 322.22 198.635 322.572C198.828 322.92 198.924 323.372 198.924 323.929V329H197.472V327.956H197.412C197.316 328.148 197.172 328.337 196.98 328.523C196.788 328.708 196.541 328.862 196.239 328.985C195.937 329.108 195.576 329.169 195.155 329.169ZM195.478 327.976C195.889 327.976 196.241 327.895 196.532 327.732C196.827 327.57 197.051 327.358 197.203 327.096C197.359 326.831 197.437 326.547 197.437 326.246V325.261C197.384 325.314 197.281 325.364 197.129 325.411C196.98 325.454 196.809 325.492 196.617 325.525C196.425 325.555 196.237 325.583 196.055 325.609C195.873 325.633 195.72 325.652 195.598 325.669C195.309 325.705 195.046 325.767 194.807 325.853C194.572 325.939 194.383 326.063 194.24 326.226C194.101 326.385 194.032 326.597 194.032 326.862C194.032 327.23 194.167 327.509 194.439 327.697C194.711 327.883 195.057 327.976 195.478 327.976ZM200.904 329V321.364H202.34V322.577H202.42C202.559 322.166 202.804 321.843 203.156 321.607C203.51 321.369 203.911 321.249 204.359 321.249C204.452 321.249 204.561 321.253 204.687 321.259C204.816 321.266 204.917 321.274 204.99 321.284V322.706C204.931 322.689 204.825 322.671 204.672 322.651C204.52 322.628 204.367 322.616 204.215 322.616C203.863 322.616 203.55 322.691 203.275 322.84C203.003 322.986 202.788 323.19 202.629 323.452C202.47 323.71 202.39 324.005 202.39 324.337V329H200.904ZM209.294 329.154C208.542 329.154 207.894 328.993 207.35 328.672C206.81 328.347 206.393 327.891 206.098 327.305C205.806 326.715 205.66 326.024 205.66 325.232C205.66 324.449 205.806 323.76 206.098 323.163C206.393 322.567 206.804 322.101 207.331 321.766C207.861 321.432 208.481 321.264 209.19 321.264C209.621 321.264 210.038 321.335 210.443 321.478C210.847 321.621 211.21 321.844 211.532 322.149C211.853 322.454 212.107 322.85 212.292 323.337C212.478 323.821 212.571 324.41 212.571 325.102V325.629H206.5V324.516H211.114C211.114 324.125 211.034 323.778 210.875 323.477C210.716 323.172 210.493 322.931 210.204 322.756C209.919 322.58 209.584 322.492 209.2 322.492C208.782 322.492 208.418 322.595 208.106 322.8C207.798 323.003 207.559 323.268 207.39 323.596C207.225 323.921 207.142 324.274 207.142 324.655V325.525C207.142 326.035 207.231 326.469 207.41 326.827C207.592 327.185 207.846 327.459 208.171 327.648C208.496 327.833 208.875 327.926 209.309 327.926C209.591 327.926 209.848 327.886 210.08 327.807C210.312 327.724 210.512 327.601 210.681 327.439C210.85 327.277 210.98 327.076 211.069 326.837L212.476 327.091C212.364 327.505 212.161 327.868 211.87 328.18C211.581 328.488 211.218 328.728 210.781 328.901C210.347 329.07 209.851 329.154 209.294 329.154ZM219.412 324.466V329H217.925V321.364H219.352V322.607H219.446C219.622 322.202 219.897 321.877 220.272 321.632C220.65 321.387 221.125 321.264 221.699 321.264C222.219 321.264 222.675 321.374 223.066 321.592C223.457 321.808 223.76 322.129 223.975 322.557C224.191 322.984 224.299 323.513 224.299 324.143V329H222.812V324.322C222.812 323.768 222.668 323.336 222.38 323.024C222.091 322.709 221.695 322.552 221.191 322.552C220.847 322.552 220.54 322.626 220.272 322.776C220.007 322.925 219.796 323.143 219.64 323.432C219.488 323.717 219.412 324.062 219.412 324.466ZM229.509 329.154C228.793 329.154 228.168 328.99 227.635 328.662C227.101 328.334 226.687 327.875 226.392 327.285C226.097 326.695 225.949 326.005 225.949 325.217C225.949 324.424 226.097 323.732 226.392 323.138C226.687 322.545 227.101 322.085 227.635 321.756C228.168 321.428 228.793 321.264 229.509 321.264C230.225 321.264 230.85 321.428 231.383 321.756C231.917 322.085 232.331 322.545 232.626 323.138C232.921 323.732 233.069 324.424 233.069 325.217C233.069 326.005 232.921 326.695 232.626 327.285C232.331 327.875 231.917 328.334 231.383 328.662C230.85 328.99 230.225 329.154 229.509 329.154ZM229.514 327.906C229.978 327.906 230.362 327.784 230.667 327.538C230.972 327.293 231.198 326.967 231.343 326.559C231.493 326.151 231.567 325.702 231.567 325.212C231.567 324.724 231.493 324.277 231.343 323.869C231.198 323.458 230.972 323.129 230.667 322.88C230.362 322.631 229.978 322.507 229.514 322.507C229.047 322.507 228.659 322.631 228.35 322.88C228.046 323.129 227.819 323.458 227.669 323.869C227.524 324.277 227.451 324.724 227.451 325.212C227.451 325.702 227.524 326.151 227.669 326.559C227.819 326.967 228.046 327.293 228.35 327.538C228.659 327.784 229.047 327.906 229.514 327.906ZM236.151 329L233.904 321.364H235.44L236.936 326.972H237.011L238.512 321.364H240.049L241.54 326.947H241.615L243.101 321.364H244.637L242.395 329H240.879L239.328 323.487H239.213L237.662 329H236.151ZM251.975 329.169C251.492 329.169 251.054 329.08 250.663 328.901C250.272 328.718 249.962 328.455 249.733 328.11C249.508 327.765 249.395 327.343 249.395 326.842C249.395 326.411 249.478 326.057 249.644 325.778C249.81 325.5 250.033 325.28 250.315 325.117C250.597 324.955 250.912 324.832 251.26 324.749C251.608 324.666 251.962 324.603 252.324 324.56C252.781 324.507 253.152 324.464 253.437 324.431C253.722 324.395 253.929 324.337 254.059 324.257C254.188 324.178 254.252 324.048 254.252 323.869V323.835C254.252 323.4 254.13 323.064 253.885 322.825C253.643 322.587 253.281 322.467 252.801 322.467C252.3 322.467 251.906 322.578 251.618 322.8C251.333 323.019 251.135 323.263 251.026 323.531L249.629 323.213C249.795 322.749 250.037 322.375 250.355 322.089C250.676 321.801 251.046 321.592 251.463 321.463C251.881 321.33 252.32 321.264 252.781 321.264C253.086 321.264 253.409 321.301 253.75 321.374C254.095 321.443 254.417 321.572 254.715 321.761C255.016 321.95 255.263 322.22 255.456 322.572C255.648 322.92 255.744 323.372 255.744 323.929V329H254.292V327.956H254.233C254.136 328.148 253.992 328.337 253.8 328.523C253.608 328.708 253.361 328.862 253.059 328.985C252.758 329.108 252.396 329.169 251.975 329.169ZM252.299 327.976C252.71 327.976 253.061 327.895 253.353 327.732C253.648 327.57 253.871 327.358 254.024 327.096C254.18 326.831 254.257 326.547 254.257 326.246V325.261C254.204 325.314 254.102 325.364 253.949 325.411C253.8 325.454 253.629 325.492 253.437 325.525C253.245 325.555 253.058 325.583 252.875 325.609C252.693 325.633 252.541 325.652 252.418 325.669C252.13 325.705 251.866 325.767 251.627 325.853C251.392 325.939 251.203 326.063 251.061 326.226C250.922 326.385 250.852 326.597 250.852 326.862C250.852 327.23 250.988 327.509 251.26 327.697C251.531 327.883 251.878 327.976 252.299 327.976ZM261.289 321.364V322.557H257.117V321.364H261.289ZM258.236 319.534H259.722V326.758C259.722 327.046 259.766 327.263 259.852 327.409C259.938 327.552 260.049 327.649 260.185 327.702C260.324 327.752 260.475 327.777 260.637 327.777C260.757 327.777 260.861 327.769 260.95 327.752C261.04 327.736 261.11 327.722 261.159 327.712L261.428 328.94C261.342 328.973 261.219 329.007 261.06 329.04C260.901 329.076 260.702 329.096 260.463 329.099C260.072 329.106 259.708 329.036 259.369 328.891C259.031 328.745 258.758 328.519 258.549 328.214C258.34 327.91 258.236 327.527 258.236 327.066V319.534ZM33.9389 347.864C33.7169 347.864 33.5147 347.845 33.3324 347.809C33.1501 347.776 33.0142 347.739 32.9247 347.7L33.2827 346.482C33.5545 346.554 33.7964 346.586 34.0085 346.576C34.2206 346.566 34.4079 346.487 34.5703 346.337C34.736 346.188 34.8819 345.945 35.0078 345.607L35.1918 345.099L32.3977 337.364H33.9886L35.9226 343.29H36.0021L37.9361 337.364H39.532L36.3849 346.019C36.2391 346.417 36.0535 346.753 35.8281 347.028C35.6027 347.307 35.3343 347.516 35.0227 347.655C34.7112 347.794 34.3499 347.864 33.9389 347.864ZM43.8858 345.154C43.1699 345.154 42.5452 344.99 42.0115 344.662C41.4779 344.334 41.0636 343.875 40.7686 343.285C40.4737 342.695 40.3262 342.005 40.3262 341.217C40.3262 340.424 40.4737 339.732 40.7686 339.138C41.0636 338.545 41.4779 338.085 42.0115 337.756C42.5452 337.428 43.1699 337.264 43.8858 337.264C44.6017 337.264 45.2265 337.428 45.7601 337.756C46.2937 338.085 46.708 338.545 47.003 339.138C47.298 339.732 47.4455 340.424 47.4455 341.217C47.4455 342.005 47.298 342.695 47.003 343.285C46.708 343.875 46.2937 344.334 45.7601 344.662C45.2265 344.99 44.6017 345.154 43.8858 345.154ZM43.8908 343.906C44.3548 343.906 44.7393 343.784 45.0442 343.538C45.3491 343.293 45.5745 342.967 45.7203 342.559C45.8695 342.151 45.9441 341.702 45.9441 341.212C45.9441 340.724 45.8695 340.277 45.7203 339.869C45.5745 339.458 45.3491 339.129 45.0442 338.88C44.7393 338.631 44.3548 338.507 43.8908 338.507C43.4235 338.507 43.0357 338.631 42.7275 338.88C42.4225 339.129 42.1955 339.458 42.0463 339.869C41.9005 340.277 41.8276 340.724 41.8276 341.212C41.8276 341.702 41.9005 342.151 42.0463 342.559C42.1955 342.967 42.4225 343.293 42.7275 343.538C43.0357 343.784 43.4235 343.906 43.8908 343.906ZM53.9421 341.833V337.364H55.4336V345H53.9719V343.678H53.8924C53.7167 344.085 53.435 344.425 53.0472 344.697C52.6628 344.965 52.1838 345.099 51.6104 345.099C51.1199 345.099 50.6857 344.992 50.3079 344.776C49.9334 344.558 49.6384 344.234 49.4229 343.807C49.2108 343.379 49.1048 342.851 49.1048 342.221V337.364H50.5913V342.042C50.5913 342.562 50.7354 342.977 51.0238 343.285C51.3121 343.593 51.6867 343.747 52.1474 343.747C52.4258 343.747 52.7025 343.678 52.9776 343.538C53.256 343.399 53.4864 343.189 53.6687 342.907C53.8543 342.625 53.9454 342.267 53.9421 341.833ZM57.4309 345V337.364H58.8677V338.577H58.9473C59.0865 338.166 59.3317 337.843 59.6831 337.607C60.0377 337.369 60.4387 337.249 60.8862 337.249C60.979 337.249 61.0884 337.253 61.2143 337.259C61.3436 337.266 61.4447 337.274 61.5176 337.284V338.706C61.4579 338.689 61.3519 338.671 61.1994 338.651C61.0469 338.628 60.8945 338.616 60.742 338.616C60.3907 338.616 60.0775 338.691 59.8024 338.84C59.5306 338.986 59.3152 339.19 59.1561 339.452C58.997 339.71 58.9174 340.005 58.9174 340.337V345H57.4309ZM70.1433 337.364V338.557H65.8279V337.364H70.1433ZM67.0112 345V336.479C67.0112 336.001 67.1156 335.605 67.3244 335.29C67.5332 334.972 67.81 334.735 68.1547 334.58C68.4993 334.42 68.8739 334.341 69.2782 334.341C69.5765 334.341 69.8317 334.366 70.0439 334.415C70.256 334.462 70.4134 334.505 70.5162 334.545L70.1681 335.748C70.0985 335.728 70.0091 335.705 69.8997 335.678C69.7903 335.648 69.6577 335.634 69.502 335.634C69.1407 335.634 68.8822 335.723 68.7264 335.902C68.5739 336.081 68.4977 336.339 68.4977 336.678V345H67.0112ZM71.677 345V337.364H73.1635V345H71.677ZM72.4277 336.185C72.1692 336.185 71.9471 336.099 71.7615 335.927C71.5792 335.751 71.4881 335.542 71.4881 335.3C71.4881 335.055 71.5792 334.846 71.7615 334.674C71.9471 334.498 72.1692 334.411 72.4277 334.411C72.6863 334.411 72.9067 334.498 73.089 334.674C73.2746 334.846 73.3674 335.055 73.3674 335.3C73.3674 335.542 73.2746 335.751 73.089 335.927C72.9067 336.099 72.6863 336.185 72.4277 336.185ZM76.6499 340.466V345H75.1634V337.364H76.5902V338.607H76.6847C76.8603 338.202 77.1354 337.877 77.5099 337.632C77.8878 337.387 78.3634 337.264 78.9368 337.264C79.4571 337.264 79.9129 337.374 80.304 337.592C80.6951 337.808 80.9983 338.129 81.2138 338.557C81.4292 338.984 81.5369 339.513 81.5369 340.143V345H80.0504V340.322C80.0504 339.768 79.9063 339.336 79.6179 339.024C79.3295 338.709 78.9335 338.552 78.4297 338.552C78.085 338.552 77.7784 338.626 77.5099 338.776C77.2448 338.925 77.0343 339.143 76.8786 339.432C76.7261 339.717 76.6499 340.062 76.6499 340.466ZM86.7322 348.023C86.1257 348.023 85.6037 347.943 85.1662 347.784C84.732 347.625 84.3774 347.415 84.1023 347.153C83.8272 346.891 83.6217 346.604 83.4858 346.293L84.7635 345.766C84.853 345.911 84.9723 346.066 85.1214 346.228C85.2739 346.394 85.4794 346.535 85.7379 346.651C85.9998 346.767 86.3362 346.825 86.7472 346.825C87.3106 346.825 87.7763 346.687 88.1442 346.412C88.5121 346.14 88.696 345.706 88.696 345.109V343.608H88.6016C88.5121 343.77 88.3828 343.951 88.2138 344.15C88.0481 344.349 87.8194 344.521 87.5277 344.667C87.236 344.813 86.8565 344.886 86.3892 344.886C85.786 344.886 85.2424 344.745 84.7585 344.463C84.2779 344.178 83.8968 343.759 83.6151 343.205C83.3366 342.648 83.1974 341.964 83.1974 341.152C83.1974 340.34 83.335 339.644 83.6101 339.064C83.8885 338.484 84.2696 338.04 84.7536 337.732C85.2375 337.42 85.786 337.264 86.3991 337.264C86.8731 337.264 87.2559 337.344 87.5476 337.503C87.8393 337.659 88.0663 337.841 88.2287 338.05C88.3944 338.259 88.522 338.442 88.6115 338.602H88.7209V337.364H90.1776V345.169C90.1776 345.825 90.0251 346.364 89.7202 346.785C89.4152 347.206 89.0026 347.517 88.4822 347.719C87.9652 347.922 87.3819 348.023 86.7322 348.023ZM86.7173 343.653C87.1449 343.653 87.5062 343.553 87.8011 343.354C88.0994 343.152 88.3248 342.864 88.4773 342.489C88.633 342.112 88.7109 341.659 88.7109 341.132C88.7109 340.618 88.6347 340.166 88.4822 339.775C88.3298 339.384 88.1061 339.079 87.8111 338.86C87.5161 338.638 87.1515 338.527 86.7173 338.527C86.2699 338.527 85.897 338.643 85.5987 338.875C85.3004 339.104 85.075 339.415 84.9226 339.81C84.7734 340.204 84.6989 340.645 84.6989 341.132C84.6989 341.633 84.7751 342.072 84.9276 342.45C85.08 342.827 85.3054 343.122 85.6037 343.335C85.9053 343.547 86.2765 343.653 86.7173 343.653ZM95.4624 345.154C94.71 345.154 94.062 344.993 93.5185 344.672C92.9782 344.347 92.5606 343.891 92.2656 343.305C91.974 342.715 91.8281 342.024 91.8281 341.232C91.8281 340.449 91.974 339.76 92.2656 339.163C92.5606 338.567 92.9716 338.101 93.4986 337.766C94.0289 337.432 94.6487 337.264 95.358 337.264C95.7888 337.264 96.2064 337.335 96.6108 337.478C97.0152 337.621 97.3781 337.844 97.6996 338.149C98.0211 338.454 98.2746 338.85 98.4602 339.337C98.6458 339.821 98.7386 340.41 98.7386 341.102V341.629H92.6683V340.516H97.282C97.282 340.125 97.2024 339.778 97.0433 339.477C96.8842 339.172 96.6605 338.931 96.3722 338.756C96.0871 338.58 95.7524 338.492 95.3679 338.492C94.9503 338.492 94.5857 338.595 94.2741 338.8C93.9659 339.003 93.7273 339.268 93.5582 339.596C93.3925 339.921 93.3097 340.274 93.3097 340.655V341.525C93.3097 342.035 93.3991 342.469 93.5781 342.827C93.7604 343.185 94.014 343.459 94.3388 343.648C94.6636 343.833 95.0431 343.926 95.4773 343.926C95.759 343.926 96.0159 343.886 96.2479 343.807C96.4799 343.724 96.6804 343.601 96.8494 343.439C97.0185 343.277 97.1477 343.076 97.2372 342.837L98.6442 343.091C98.5315 343.505 98.3293 343.868 98.0376 344.18C97.7493 344.488 97.3864 344.728 96.9489 344.901C96.5147 345.07 96.0192 345.154 95.4624 345.154ZM100.388 345V337.364H101.825V338.577H101.904C102.044 338.166 102.289 337.843 102.64 337.607C102.995 337.369 103.396 337.249 103.843 337.249C103.936 337.249 104.045 337.253 104.171 337.259C104.301 337.266 104.402 337.274 104.475 337.284V338.706C104.415 338.689 104.309 338.671 104.156 338.651C104.004 338.628 103.852 338.616 103.699 338.616C103.348 338.616 103.035 338.691 102.759 338.84C102.488 338.986 102.272 339.19 102.113 339.452C101.954 339.71 101.874 340.005 101.874 340.337V345H100.388ZM109.777 337.364V338.557H105.606V337.364H109.777ZM106.724 335.534H108.211V342.758C108.211 343.046 108.254 343.263 108.34 343.409C108.426 343.552 108.537 343.649 108.673 343.702C108.812 343.752 108.963 343.777 109.126 343.777C109.245 343.777 109.349 343.769 109.439 343.752C109.528 343.736 109.598 343.722 109.648 343.712L109.916 344.94C109.83 344.973 109.707 345.007 109.548 345.04C109.389 345.076 109.19 345.096 108.952 345.099C108.56 345.106 108.196 345.036 107.858 344.891C107.52 344.745 107.246 344.519 107.037 344.214C106.829 343.91 106.724 343.527 106.724 343.066V335.534ZM111.421 345V337.364H112.908V345H111.421ZM112.172 336.185C111.913 336.185 111.691 336.099 111.506 335.927C111.323 335.751 111.232 335.542 111.232 335.3C111.232 335.055 111.323 334.846 111.506 334.674C111.691 334.498 111.913 334.411 112.172 334.411C112.43 334.411 112.651 334.498 112.833 334.674C113.019 334.846 113.112 335.055 113.112 335.3C113.112 335.542 113.019 335.751 112.833 335.927C112.651 336.099 112.43 336.185 112.172 336.185ZM114.907 347.864V337.364H116.359V338.602H116.483C116.57 338.442 116.694 338.259 116.856 338.05C117.019 337.841 117.244 337.659 117.532 337.503C117.821 337.344 118.202 337.264 118.676 337.264C119.292 337.264 119.843 337.42 120.327 337.732C120.81 338.043 121.19 338.492 121.465 339.079C121.743 339.665 121.883 340.371 121.883 341.197C121.883 342.022 121.745 342.73 121.47 343.32C121.195 343.906 120.817 344.359 120.336 344.677C119.856 344.992 119.307 345.149 118.691 345.149C118.227 345.149 117.847 345.071 117.552 344.915C117.261 344.76 117.032 344.577 116.866 344.369C116.701 344.16 116.573 343.974 116.483 343.812H116.394V347.864H114.907ZM116.364 341.182C116.364 341.719 116.442 342.189 116.598 342.594C116.754 342.998 116.979 343.315 117.274 343.543C117.569 343.769 117.93 343.881 118.358 343.881C118.802 343.881 119.173 343.764 119.471 343.528C119.77 343.29 119.995 342.967 120.148 342.559C120.303 342.151 120.381 341.692 120.381 341.182C120.381 340.678 120.305 340.226 120.153 339.825C120.003 339.424 119.778 339.107 119.476 338.875C119.178 338.643 118.805 338.527 118.358 338.527C117.927 338.527 117.562 338.638 117.264 338.86C116.969 339.082 116.745 339.392 116.593 339.79C116.44 340.187 116.364 340.652 116.364 341.182ZM129.27 339.228L127.923 339.467C127.867 339.294 127.777 339.13 127.655 338.974C127.535 338.819 127.373 338.691 127.167 338.592C126.962 338.492 126.705 338.442 126.397 338.442C125.976 338.442 125.625 338.537 125.343 338.726C125.061 338.911 124.92 339.152 124.92 339.447C124.92 339.702 125.015 339.907 125.204 340.063C125.393 340.219 125.698 340.347 126.118 340.446L127.331 340.724C128.034 340.887 128.558 341.137 128.903 341.475C129.247 341.813 129.42 342.252 129.42 342.793C129.42 343.25 129.287 343.658 129.022 344.016C128.76 344.37 128.394 344.649 127.923 344.851C127.456 345.053 126.914 345.154 126.297 345.154C125.442 345.154 124.745 344.972 124.204 344.607C123.664 344.239 123.333 343.717 123.21 343.041L124.647 342.822C124.736 343.197 124.92 343.48 125.199 343.673C125.477 343.862 125.84 343.956 126.287 343.956C126.775 343.956 127.164 343.855 127.456 343.653C127.747 343.447 127.893 343.197 127.893 342.902C127.893 342.663 127.804 342.463 127.625 342.3C127.449 342.138 127.179 342.015 126.814 341.933L125.522 341.649C124.809 341.487 124.282 341.228 123.941 340.874C123.603 340.519 123.434 340.07 123.434 339.526C123.434 339.076 123.56 338.681 123.812 338.343C124.064 338.005 124.412 337.741 124.856 337.553C125.3 337.36 125.809 337.264 126.382 337.264C127.207 337.264 127.857 337.443 128.331 337.801C128.805 338.156 129.118 338.631 129.27 339.228ZM132.033 345.094C131.762 345.094 131.528 344.998 131.332 344.806C131.137 344.611 131.039 344.375 131.039 344.1C131.039 343.828 131.137 343.596 131.332 343.404C131.528 343.209 131.762 343.111 132.033 343.111C132.305 343.111 132.539 343.209 132.734 343.404C132.93 343.596 133.028 343.828 133.028 344.1C133.028 344.282 132.981 344.45 132.888 344.602C132.799 344.751 132.68 344.871 132.531 344.96C132.381 345.05 132.216 345.094 132.033 345.094Z" fill="#3D474D"/>
</g>
<defs>
<filter id="filter0_d_0_1" x="55.9763" y="94.9464" width="360.77" height="118.091" filterUnits="userSpaceOnUse" color-interpolation-filters="sRGB">
<feFlood flood-opacity="0" result="BackgroundImageFix"/>
<feColorMatrix in="SourceAlpha" type="matrix" values="0 0 0 0 0 0 0 0 0 0 0 0 0 0 0 0 0 0 127 0" result="hardAlpha"/>
<feOffset dy="2.8403"/>
<feGaussianBlur stdDeviation="1.42015"/>
<feColorMatrix type="matrix" values="0 0 0 0 0.156863 0 0 0 0 0.635294 0 0 0 0 0.388235 0 0 0 0.18 0"/>
<feBlend mode="normal" in2="BackgroundImageFix" result="effect1_dropShadow_0_1"/>
<feBlend mode="normal" in="SourceGraphic" in2="effect1_dropShadow_0_1" result="shape"/>
</filter>
<filter id="filter1_d_0_1" x="127.122" y="119.91" width="15.8052" height="15.7172" filterUnits="userSpaceOnUse" color-interpolation-filters="sRGB">
<feFlood flood-opacity="0" result="BackgroundImageFix"/>
<feColorMatrix in="SourceAlpha" type="matrix" values="0 0 0 0 0 0 0 0 0 0 0 0 0 0 0 0 0 0 127 0" result="hardAlpha"/>
<feOffset dy="2.8403"/>
<feGaussianBlur stdDeviation="1.42015"/>
<feColorMatrix type="matrix" values="0 0 0 0 0.156863 0 0 0 0 0.635294 0 0 0 0 0.388235 0 0 0 0.03 0"/>
<feBlend mode="normal" in2="BackgroundImageFix" result="effect1_dropShadow_0_1"/>
<feBlend mode="normal" in="SourceGraphic" in2="effect1_dropShadow_0_1" result="shape"/>
</filter>
<filter id="filter2_d_0_1" x="228.541" y="134.399" width="15.8052" height="15.7172" filterUnits="userSpaceOnUse" color-interpolation-filters="sRGB">
<feFlood flood-opacity="0" result="BackgroundImageFix"/>
<feColorMatrix in="SourceAlpha" type="matrix" values="0 0 0 0 0 0 0 0 0 0 0 0 0 0 0 0 0 0 127 0" result="hardAlpha"/>
<feOffset dy="2.8403"/>
<feGaussianBlur stdDeviation="1.42015"/>
<feColorMatrix type="matrix" values="0 0 0 0 0.156863 0 0 0 0 0.635294 0 0 0 0 0.388235 0 0 0 0.03 0"/>
<feBlend mode="normal" in2="BackgroundImageFix" result="effect1_dropShadow_0_1"/>
<feBlend mode="normal" in="SourceGraphic" in2="effect1_dropShadow_0_1" result="shape"/>
</filter>
<filter id="filter3_d_0_1" x="175.115" y="159.754" width="15.8052" height="15.7172" filterUnits="userSpaceOnUse" color-interpolation-filters="sRGB">
<feFlood flood-opacity="0" result="BackgroundImageFix"/>
<feColorMatrix in="SourceAlpha" type="matrix" values="0 0 0 0 0 0 0 0 0 0 0 0 0 0 0 0 0 0 127 0" result="hardAlpha"/>
<feOffset dy="2.8403"/>
<feGaussianBlur stdDeviation="1.42015"/>
<feColorMatrix type="matrix" values="0 0 0 0 0.156863 0 0 0 0 0.635294 0 0 0 0 0.388235 0 0 0 0.12 0"/>
<feBlend mode="normal" in2="BackgroundImageFix" result="effect1_dropShadow_0_1"/>
<feBlend mode="normal" in="SourceGraphic" in2="effect1_dropShadow_0_1" result="shape"/>
</filter>
<clipPath id="clip0_0_1">
<rect width="300" height="380" rx="24" fill="white"/>
</clipPath>
<clipPath id="clip1_0_1">
<rect width="300" height="380" rx="24" fill="white"/>
</clipPath>
</defs>
</svg>
