<svg width="300" height="380" viewBox="0 0 300 380" fill="none" xmlns="http://www.w3.org/2000/svg">
<g clip-path="url(#clip0_0_1)">
<rect width="300" height="380" rx="24" fill="#111218"/>
<path d="M190.919 225.919C207.797 209.041 217.279 186.149 217.279 162.279C217.279 138.41 207.797 115.518 190.919 98.6396C174.041 81.7614 151.149 72.2792 127.279 72.2792C103.41 72.2792 80.5179 81.7613 63.6396 98.6396L106.915 141.915C112.316 136.514 119.641 133.479 127.279 133.479C134.917 133.479 142.243 136.514 147.644 141.915C153.045 147.316 156.079 154.641 156.079 162.279C156.079 169.917 153.045 177.243 147.644 182.644L190.919 225.919Z" fill="#FFA70A"/>
<path d="M33.2912 307V293.909H41.8054V295.897H35.6626V299.451H41.3643V301.439H35.6626V305.012H41.8565V307H33.2912ZM44.1225 307V297.182H46.3342V298.85H46.4492C46.6538 298.288 46.9925 297.849 47.4656 297.533C47.9386 297.214 48.5032 297.054 49.1594 297.054C49.8242 297.054 50.3846 297.216 50.8406 297.54C51.3008 297.859 51.6246 298.296 51.8121 298.85H51.9144C52.1317 298.305 52.4982 297.87 53.0139 297.546C53.5337 297.218 54.1495 297.054 54.8612 297.054C55.7646 297.054 56.5018 297.339 57.0728 297.911C57.6438 298.482 57.9293 299.315 57.9293 300.41V307H55.609V300.768C55.609 300.158 55.4471 299.713 55.1232 299.432C54.7994 299.146 54.4031 299.004 53.9343 299.004C53.3761 299.004 52.9393 299.178 52.6239 299.528C52.3129 299.873 52.1573 300.322 52.1573 300.876V307H49.8881V300.672C49.8881 300.165 49.7347 299.76 49.4279 299.457C49.1254 299.155 48.729 299.004 48.239 299.004C47.9066 299.004 47.604 299.089 47.3313 299.259C47.0586 299.425 46.8413 299.662 46.6793 299.969C46.5174 300.271 46.4364 300.625 46.4364 301.03V307H44.1225ZM60.2768 310.682V297.182H62.5524V298.805H62.6866C62.8059 298.567 62.9743 298.313 63.1916 298.045C63.4089 297.772 63.7029 297.54 64.0737 297.348C64.4444 297.152 64.9174 297.054 65.4927 297.054C66.2512 297.054 66.9352 297.248 67.5446 297.636C68.1582 298.019 68.644 298.588 69.002 299.342C69.3642 300.092 69.5453 301.013 69.5453 302.104C69.5453 303.182 69.3684 304.098 69.0147 304.852C68.661 305.607 68.1795 306.182 67.5701 306.578C66.9608 306.974 66.2704 307.173 65.4991 307.173C64.9366 307.173 64.47 307.079 64.0993 306.891C63.7285 306.704 63.4302 306.478 63.2044 306.214C62.9828 305.945 62.8102 305.692 62.6866 305.453H62.5907V310.682H60.2768ZM62.546 302.091C62.546 302.726 62.6355 303.282 62.8145 303.759C62.9977 304.237 63.2598 304.609 63.6007 304.878C63.9458 305.142 64.3635 305.274 64.8535 305.274C65.3649 305.274 65.7931 305.138 66.1383 304.865C66.4835 304.588 66.7434 304.211 66.9181 303.734C67.0971 303.252 67.1866 302.705 67.1866 302.091C67.1866 301.482 67.0993 300.94 66.9245 300.467C66.7498 299.994 66.4899 299.624 66.1447 299.355C65.7995 299.087 65.3691 298.952 64.8535 298.952C64.3592 298.952 63.9395 299.082 63.5943 299.342C63.2491 299.602 62.987 299.967 62.8081 300.435C62.6333 300.904 62.546 301.456 62.546 302.091ZM73.8407 293.909V307H71.5268V293.909H73.8407ZM80.5028 307.192C79.544 307.192 78.7131 306.981 78.0099 306.559C77.3068 306.137 76.7614 305.547 76.3736 304.788C75.9901 304.03 75.7983 303.143 75.7983 302.129C75.7983 301.115 75.9901 300.227 76.3736 299.464C76.7614 298.701 77.3068 298.109 78.0099 297.687C78.7131 297.265 79.544 297.054 80.5028 297.054C81.4616 297.054 82.2926 297.265 82.9957 297.687C83.6989 298.109 84.2422 298.701 84.6257 299.464C85.0135 300.227 85.2074 301.115 85.2074 302.129C85.2074 303.143 85.0135 304.03 84.6257 304.788C84.2422 305.547 83.6989 306.137 82.9957 306.559C82.2926 306.981 81.4616 307.192 80.5028 307.192ZM80.5156 305.338C81.0355 305.338 81.4702 305.195 81.8196 304.91C82.169 304.62 82.429 304.232 82.5994 303.746C82.7741 303.261 82.8615 302.719 82.8615 302.123C82.8615 301.522 82.7741 300.979 82.5994 300.493C82.429 300.003 82.169 299.613 81.8196 299.323C81.4702 299.033 81.0355 298.888 80.5156 298.888C79.983 298.888 79.5398 299.033 79.1861 299.323C78.8366 299.613 78.5746 300.003 78.3999 300.493C78.2294 300.979 78.1442 301.522 78.1442 302.123C78.1442 302.719 78.2294 303.261 78.3999 303.746C78.5746 304.232 78.8366 304.62 79.1861 304.91C79.5398 305.195 79.983 305.338 80.5156 305.338ZM88.2756 310.682C87.9602 310.682 87.6683 310.656 87.3999 310.605C87.1357 310.558 86.9247 310.503 86.767 310.439L87.304 308.636C87.6406 308.734 87.9411 308.781 88.2053 308.777C88.4695 308.773 88.7017 308.69 88.902 308.528C89.1065 308.37 89.2791 308.106 89.4197 307.735L89.6179 307.205L86.0575 297.182H88.5121L90.7749 304.597H90.8771L93.1463 297.182H95.6072L91.6761 308.189C91.4929 308.709 91.25 309.154 90.9474 309.525C90.6449 309.9 90.2741 310.185 89.8352 310.381C89.4006 310.582 88.8807 310.682 88.2756 310.682ZM101.221 307.192C100.237 307.192 99.3865 306.987 98.6706 306.578C97.959 306.165 97.4114 305.581 97.0279 304.827C96.6444 304.068 96.4526 303.175 96.4526 302.148C96.4526 301.138 96.6444 300.252 97.0279 299.489C97.4157 298.722 97.9569 298.126 98.6515 297.7C99.3461 297.269 100.162 297.054 101.1 297.054C101.705 297.054 102.276 297.152 102.813 297.348C103.354 297.54 103.831 297.838 104.244 298.243C104.662 298.648 104.99 299.163 105.229 299.79C105.468 300.412 105.587 301.153 105.587 302.014V302.724H97.5392V301.164H103.369C103.365 300.721 103.269 300.327 103.081 299.982C102.894 299.632 102.632 299.357 102.295 299.157C101.963 298.957 101.575 298.857 101.132 298.857C100.659 298.857 100.243 298.972 99.8851 299.202C99.5272 299.428 99.248 299.726 99.0478 300.097C98.8517 300.463 98.7516 300.866 98.7473 301.305V302.666C98.7473 303.237 98.8517 303.727 99.0605 304.136C99.2694 304.541 99.5613 304.852 99.9363 305.07C100.311 305.283 100.75 305.389 101.253 305.389C101.59 305.389 101.894 305.342 102.167 305.249C102.44 305.151 102.676 305.008 102.877 304.82C103.077 304.633 103.228 304.401 103.33 304.124L105.491 304.366C105.355 304.937 105.095 305.436 104.711 305.862C104.332 306.284 103.846 306.612 103.254 306.847C102.661 307.077 101.984 307.192 101.221 307.192ZM111.891 307.192C110.907 307.192 110.056 306.987 109.341 306.578C108.629 306.165 108.081 305.581 107.698 304.827C107.314 304.068 107.123 303.175 107.123 302.148C107.123 301.138 107.314 300.252 107.698 299.489C108.086 298.722 108.627 298.126 109.321 297.7C110.016 297.269 110.832 297.054 111.77 297.054C112.375 297.054 112.946 297.152 113.483 297.348C114.024 297.54 114.501 297.838 114.914 298.243C115.332 298.648 115.66 299.163 115.899 299.79C116.137 300.412 116.257 301.153 116.257 302.014V302.724H108.209V301.164H114.039C114.034 300.721 113.939 300.327 113.751 299.982C113.564 299.632 113.301 299.357 112.965 299.157C112.632 298.957 112.245 298.857 111.801 298.857C111.328 298.857 110.913 298.972 110.555 299.202C110.197 299.428 109.918 299.726 109.718 300.097C109.522 300.463 109.422 300.866 109.417 301.305V302.666C109.417 303.237 109.522 303.727 109.73 304.136C109.939 304.541 110.231 304.852 110.606 305.07C110.981 305.283 111.42 305.389 111.923 305.389C112.26 305.389 112.564 305.342 112.837 305.249C113.11 305.151 113.346 305.008 113.547 304.82C113.747 304.633 113.898 304.401 114 304.124L116.161 304.366C116.025 304.937 115.765 305.436 115.381 305.862C115.002 306.284 114.516 306.612 113.924 306.847C113.331 307.077 112.654 307.192 111.891 307.192ZM122.781 307V293.909H127.691C128.696 293.909 129.54 294.084 130.222 294.433C130.908 294.783 131.426 295.273 131.775 295.903C132.129 296.53 132.306 297.261 132.306 298.096C132.306 298.935 132.127 299.664 131.769 300.282C131.415 300.896 130.893 301.371 130.203 301.707C129.512 302.04 128.664 302.206 127.659 302.206H124.162V300.237H127.339C127.927 300.237 128.409 300.156 128.784 299.994C129.159 299.828 129.436 299.587 129.615 299.272C129.798 298.952 129.889 298.56 129.889 298.096C129.889 297.631 129.798 297.235 129.615 296.907C129.431 296.575 129.152 296.323 128.777 296.153C128.402 295.978 127.919 295.891 127.326 295.891H125.153V307H122.781ZM129.544 301.068L132.785 307H130.139L126.955 301.068H129.544ZM138.592 307.192C137.608 307.192 136.758 306.987 136.042 306.578C135.33 306.165 134.782 305.581 134.399 304.827C134.015 304.068 133.824 303.175 133.824 302.148C133.824 301.138 134.015 300.252 134.399 299.489C134.787 298.722 135.328 298.126 136.023 297.7C136.717 297.269 137.533 297.054 138.471 297.054C139.076 297.054 139.647 297.152 140.184 297.348C140.725 297.54 141.202 297.838 141.616 298.243C142.033 298.648 142.361 299.163 142.6 299.79C142.839 300.412 142.958 301.153 142.958 302.014V302.724H134.91V301.164H140.74C140.736 300.721 140.64 300.327 140.452 299.982C140.265 299.632 140.003 299.357 139.666 299.157C139.334 298.957 138.946 298.857 138.503 298.857C138.03 298.857 137.614 298.972 137.256 299.202C136.898 299.428 136.619 299.726 136.419 300.097C136.223 300.463 136.123 300.866 136.118 301.305V302.666C136.118 303.237 136.223 303.727 136.432 304.136C136.64 304.541 136.932 304.852 137.307 305.07C137.682 305.283 138.121 305.389 138.624 305.389C138.961 305.389 139.265 305.342 139.538 305.249C139.811 305.151 140.047 305.008 140.248 304.82C140.448 304.633 140.599 304.401 140.702 304.124L142.862 304.366C142.726 304.937 142.466 305.436 142.082 305.862C141.703 306.284 141.217 306.612 140.625 306.847C140.032 307.077 139.355 307.192 138.592 307.192ZM149.198 307.192C148.218 307.192 147.376 306.977 146.673 306.546C145.974 306.116 145.435 305.521 145.056 304.763C144.681 304 144.494 303.122 144.494 302.129C144.494 301.132 144.685 300.252 145.069 299.489C145.452 298.722 145.994 298.126 146.692 297.7C147.396 297.269 148.227 297.054 149.185 297.054C149.982 297.054 150.688 297.201 151.301 297.495C151.919 297.785 152.411 298.196 152.778 298.729C153.144 299.257 153.353 299.875 153.404 300.582H151.192C151.103 300.109 150.89 299.715 150.553 299.4C150.221 299.08 149.776 298.92 149.217 298.92C148.744 298.92 148.329 299.048 147.971 299.304C147.613 299.555 147.334 299.918 147.134 300.391C146.938 300.864 146.839 301.43 146.839 302.091C146.839 302.76 146.938 303.335 147.134 303.817C147.33 304.294 147.604 304.663 147.958 304.923C148.316 305.178 148.736 305.306 149.217 305.306C149.558 305.306 149.863 305.242 150.131 305.114C150.404 304.982 150.632 304.793 150.815 304.545C150.999 304.298 151.124 303.998 151.192 303.644H153.404C153.349 304.339 153.144 304.955 152.79 305.491C152.437 306.024 151.955 306.442 151.346 306.744C150.737 307.043 150.021 307.192 149.198 307.192ZM159.587 307.192C158.628 307.192 157.797 306.981 157.094 306.559C156.391 306.137 155.845 305.547 155.458 304.788C155.074 304.03 154.882 303.143 154.882 302.129C154.882 301.115 155.074 300.227 155.458 299.464C155.845 298.701 156.391 298.109 157.094 297.687C157.797 297.265 158.628 297.054 159.587 297.054C160.546 297.054 161.377 297.265 162.08 297.687C162.783 298.109 163.326 298.701 163.71 299.464C164.097 300.227 164.291 301.115 164.291 302.129C164.291 303.143 164.097 304.03 163.71 304.788C163.326 305.547 162.783 306.137 162.08 306.559C161.377 306.981 160.546 307.192 159.587 307.192ZM159.6 305.338C160.119 305.338 160.554 305.195 160.904 304.91C161.253 304.62 161.513 304.232 161.683 303.746C161.858 303.261 161.945 302.719 161.945 302.123C161.945 301.522 161.858 300.979 161.683 300.493C161.513 300.003 161.253 299.613 160.904 299.323C160.554 299.033 160.119 298.888 159.6 298.888C159.067 298.888 158.624 299.033 158.27 299.323C157.921 299.613 157.659 300.003 157.484 300.493C157.313 300.979 157.228 301.522 157.228 302.123C157.228 302.719 157.313 303.261 157.484 303.746C157.659 304.232 157.921 304.62 158.27 304.91C158.624 305.195 159.067 305.338 159.6 305.338ZM166.255 307V297.182H168.499V298.818H168.601C168.78 298.251 169.087 297.815 169.522 297.508C169.961 297.197 170.461 297.041 171.024 297.041C171.152 297.041 171.294 297.048 171.452 297.06C171.614 297.069 171.748 297.084 171.855 297.105V299.234C171.757 299.2 171.601 299.17 171.388 299.144C171.179 299.114 170.977 299.099 170.781 299.099C170.359 299.099 169.98 299.191 169.643 299.374C169.311 299.553 169.049 299.803 168.857 300.122C168.665 300.442 168.569 300.81 168.569 301.228V307H166.255ZM176.631 307.173C175.86 307.173 175.17 306.974 174.56 306.578C173.951 306.182 173.469 305.607 173.116 304.852C172.762 304.098 172.585 303.182 172.585 302.104C172.585 301.013 172.764 300.092 173.122 299.342C173.484 298.588 173.972 298.019 174.586 297.636C175.199 297.248 175.883 297.054 176.638 297.054C177.213 297.054 177.686 297.152 178.057 297.348C178.427 297.54 178.721 297.772 178.939 298.045C179.156 298.313 179.324 298.567 179.444 298.805H179.54V293.909H181.86V307H179.584V305.453H179.444C179.324 305.692 179.152 305.945 178.926 306.214C178.7 306.478 178.402 306.704 178.031 306.891C177.66 307.079 177.194 307.173 176.631 307.173ZM177.277 305.274C177.767 305.274 178.184 305.142 178.53 304.878C178.875 304.609 179.137 304.237 179.316 303.759C179.495 303.282 179.584 302.726 179.584 302.091C179.584 301.456 179.495 300.904 179.316 300.435C179.141 299.967 178.881 299.602 178.536 299.342C178.195 299.082 177.775 298.952 177.277 298.952C176.761 298.952 176.331 299.087 175.986 299.355C175.64 299.624 175.381 299.994 175.206 300.467C175.031 300.94 174.944 301.482 174.944 302.091C174.944 302.705 175.031 303.252 175.206 303.734C175.385 304.211 175.647 304.588 175.992 304.865C176.341 305.138 176.77 305.274 177.277 305.274ZM192.086 299.777L189.976 300.007C189.917 299.794 189.812 299.594 189.663 299.406C189.518 299.219 189.322 299.067 189.075 298.952C188.828 298.837 188.525 298.78 188.167 298.78C187.686 298.78 187.281 298.884 186.953 299.093C186.629 299.302 186.469 299.572 186.473 299.905C186.469 300.19 186.574 300.423 186.787 300.602C187.004 300.781 187.362 300.928 187.86 301.043L189.535 301.401C190.464 301.601 191.154 301.918 191.606 302.353C192.062 302.788 192.292 303.357 192.297 304.06C192.292 304.678 192.111 305.223 191.753 305.696C191.4 306.165 190.907 306.531 190.277 306.795C189.646 307.06 188.922 307.192 188.103 307.192C186.902 307.192 185.934 306.94 185.201 306.438C184.468 305.93 184.032 305.225 183.891 304.322L186.147 304.104C186.25 304.548 186.467 304.882 186.799 305.108C187.132 305.334 187.564 305.447 188.097 305.447C188.647 305.447 189.088 305.334 189.42 305.108C189.757 304.882 189.925 304.603 189.925 304.271C189.925 303.989 189.816 303.757 189.599 303.574C189.386 303.391 189.054 303.25 188.602 303.152L186.927 302.8C185.985 302.604 185.289 302.274 184.837 301.81C184.385 301.341 184.162 300.749 184.166 300.033C184.162 299.428 184.326 298.903 184.658 298.46C184.995 298.013 185.461 297.668 186.058 297.425C186.659 297.178 187.351 297.054 188.135 297.054C189.286 297.054 190.191 297.299 190.852 297.789C191.517 298.279 191.928 298.942 192.086 299.777Z" fill="#C8C9D0"/>
<path d="M33.9787 329H32.348L36.0121 318.818H37.7869L41.451 329H39.8203L36.9418 320.668H36.8622L33.9787 329ZM34.2521 325.013H39.5419V326.305H34.2521V325.013ZM45.8956 329.154C45.1565 329.154 44.5201 328.987 43.9865 328.652C43.4562 328.314 43.0485 327.848 42.7635 327.255C42.4785 326.662 42.3359 325.982 42.3359 325.217C42.3359 324.441 42.4818 323.757 42.7734 323.163C43.0651 322.567 43.4761 322.101 44.0064 321.766C44.5367 321.432 45.1615 321.264 45.8807 321.264C46.4607 321.264 46.9777 321.372 47.4318 321.587C47.8859 321.799 48.2521 322.098 48.5305 322.482C48.8123 322.867 48.9796 323.316 49.0327 323.83H47.5859C47.5064 323.472 47.3241 323.163 47.0391 322.905C46.7573 322.646 46.3795 322.517 45.9055 322.517C45.4912 322.517 45.1283 322.626 44.8168 322.845C44.5085 323.061 44.2682 323.369 44.0959 323.77C43.9235 324.168 43.8374 324.638 43.8374 325.182C43.8374 325.739 43.9219 326.219 44.0909 326.624C44.2599 327.028 44.4986 327.341 44.8068 327.563C45.1184 327.785 45.4846 327.896 45.9055 327.896C46.1873 327.896 46.4425 327.845 46.6712 327.742C46.9032 327.636 47.0971 327.485 47.2528 327.29C47.4119 327.094 47.523 326.859 47.5859 326.584H49.0327C48.9796 327.078 48.8189 327.518 48.5504 327.906C48.282 328.294 47.9223 328.599 47.4716 328.821C47.0241 329.043 46.4988 329.154 45.8956 329.154ZM52.1088 324.466V329H50.6223V318.818H52.089V322.607H52.1834C52.3624 322.196 52.6358 321.869 53.0037 321.627C53.3716 321.385 53.8522 321.264 54.4455 321.264C54.9692 321.264 55.4266 321.372 55.8176 321.587C56.2121 321.803 56.517 322.124 56.7324 322.552C56.9512 322.976 57.0605 323.506 57.0605 324.143V329H55.574V324.322C55.574 323.762 55.4299 323.327 55.1415 323.019C54.8532 322.708 54.4521 322.552 53.9384 322.552C53.5871 322.552 53.2722 322.626 52.9938 322.776C52.7187 322.925 52.5016 323.143 52.3425 323.432C52.1867 323.717 52.1088 324.062 52.1088 324.466ZM59.0442 329V321.364H60.5307V329H59.0442ZM59.7949 320.185C59.5364 320.185 59.3143 320.099 59.1287 319.927C58.9464 319.751 58.8553 319.542 58.8553 319.3C58.8553 319.055 58.9464 318.846 59.1287 318.674C59.3143 318.498 59.5364 318.411 59.7949 318.411C60.0534 318.411 60.2739 318.498 60.4561 318.674C60.6417 318.846 60.7346 319.055 60.7346 319.3C60.7346 319.542 60.6417 319.751 60.4561 319.927C60.2739 320.099 60.0534 320.185 59.7949 320.185ZM65.8217 329.154C65.0694 329.154 64.4214 328.993 63.8778 328.672C63.3376 328.347 62.92 327.891 62.625 327.305C62.3333 326.715 62.1875 326.024 62.1875 325.232C62.1875 324.449 62.3333 323.76 62.625 323.163C62.92 322.567 63.331 322.101 63.858 321.766C64.3883 321.432 65.008 321.264 65.7173 321.264C66.1482 321.264 66.5658 321.335 66.9702 321.478C67.3745 321.621 67.7375 321.844 68.0589 322.149C68.3804 322.454 68.634 322.85 68.8196 323.337C69.0052 323.821 69.098 324.41 69.098 325.102V325.629H63.0277V324.516H67.6413C67.6413 324.125 67.5618 323.778 67.4027 323.477C67.2436 323.172 67.0199 322.931 66.7315 322.756C66.4465 322.58 66.1117 322.492 65.7273 322.492C65.3097 322.492 64.9451 322.595 64.6335 322.8C64.3253 323.003 64.0866 323.268 63.9176 323.596C63.7519 323.921 63.669 324.274 63.669 324.655V325.525C63.669 326.035 63.7585 326.469 63.9375 326.827C64.1198 327.185 64.3733 327.459 64.6982 327.648C65.023 327.833 65.4025 327.926 65.8366 327.926C66.1184 327.926 66.3752 327.886 66.6072 327.807C66.8393 327.724 67.0398 327.601 67.2088 327.439C67.3778 327.277 67.5071 327.076 67.5966 326.837L69.0036 327.091C68.8909 327.505 68.6887 327.868 68.397 328.18C68.1087 328.488 67.7457 328.728 67.3082 328.901C66.8741 329.07 66.3786 329.154 65.8217 329.154ZM77.0613 321.364L74.2921 329H72.7012L69.927 321.364H71.5229L73.4569 327.24H73.5364L75.4654 321.364H77.0613ZM81.4897 329.154C80.7373 329.154 80.0894 328.993 79.5458 328.672C79.0056 328.347 78.5879 327.891 78.293 327.305C78.0013 326.715 77.8555 326.024 77.8555 325.232C77.8555 324.449 78.0013 323.76 78.293 323.163C78.5879 322.567 78.9989 322.101 79.5259 321.766C80.0562 321.432 80.676 321.264 81.3853 321.264C81.8162 321.264 82.2338 321.335 82.6381 321.478C83.0425 321.621 83.4054 321.844 83.7269 322.149C84.0484 322.454 84.302 322.85 84.4876 323.337C84.6732 323.821 84.766 324.41 84.766 325.102V325.629H78.6957V324.516H83.3093C83.3093 324.125 83.2298 323.778 83.0707 323.477C82.9116 323.172 82.6879 322.931 82.3995 322.756C82.1145 322.58 81.7797 322.492 81.3952 322.492C80.9776 322.492 80.613 322.595 80.3015 322.8C79.9933 323.003 79.7546 323.268 79.5856 323.596C79.4199 323.921 79.337 324.274 79.337 324.655V325.525C79.337 326.035 79.4265 326.469 79.6055 326.827C79.7878 327.185 80.0413 327.459 80.3661 327.648C80.6909 327.833 81.0704 327.926 81.5046 327.926C81.7863 327.926 82.0432 327.886 82.2752 327.807C82.5072 327.724 82.7077 327.601 82.8768 327.439C83.0458 327.277 83.1751 327.076 83.2646 326.837L84.6715 327.091C84.5588 327.505 84.3567 327.868 84.065 328.18C83.7766 328.488 83.4137 328.728 82.9762 328.901C82.542 329.07 82.0465 329.154 81.4897 329.154ZM90.2397 329V318.818H93.869C94.6611 318.818 95.3174 318.962 95.8377 319.251C96.3581 319.539 96.7475 319.933 97.006 320.434C97.2646 320.931 97.3938 321.491 97.3938 322.114C97.3938 322.741 97.2629 323.304 97.0011 323.805C96.7425 324.302 96.3514 324.696 95.8278 324.988C95.3074 325.276 94.6528 325.42 93.864 325.42H91.3683V324.118H93.7248C94.2253 324.118 94.6313 324.032 94.9428 323.859C95.2544 323.684 95.4831 323.445 95.6289 323.143C95.7747 322.842 95.8477 322.499 95.8477 322.114C95.8477 321.73 95.7747 321.388 95.6289 321.09C95.4831 320.792 95.2527 320.558 94.9379 320.389C94.6263 320.22 94.2153 320.136 93.7049 320.136H91.7759V329H90.2397ZM102.271 329.154C101.519 329.154 100.871 328.993 100.327 328.672C99.7868 328.347 99.3692 327.891 99.0742 327.305C98.7826 326.715 98.6367 326.024 98.6367 325.232C98.6367 324.449 98.7826 323.76 99.0742 323.163C99.3692 322.567 99.7802 322.101 100.307 321.766C100.837 321.432 101.457 321.264 102.167 321.264C102.597 321.264 103.015 321.335 103.419 321.478C103.824 321.621 104.187 321.844 104.508 322.149C104.83 322.454 105.083 322.85 105.269 323.337C105.454 323.821 105.547 324.41 105.547 325.102V325.629H99.4769V324.516H104.091C104.091 324.125 104.011 323.778 103.852 323.477C103.693 323.172 103.469 322.931 103.181 322.756C102.896 322.58 102.561 322.492 102.176 322.492C101.759 322.492 101.394 322.595 101.083 322.8C100.775 323.003 100.536 323.268 100.367 323.596C100.201 323.921 100.118 324.274 100.118 324.655V325.525C100.118 326.035 100.208 326.469 100.387 326.827C100.569 327.185 100.823 327.459 101.147 327.648C101.472 327.833 101.852 327.926 102.286 327.926C102.568 327.926 102.824 327.886 103.056 327.807C103.288 327.724 103.489 327.601 103.658 327.439C103.827 327.277 103.956 327.076 104.046 326.837L105.453 327.091C105.34 327.505 105.138 327.868 104.846 328.18C104.558 328.488 104.195 328.728 103.757 328.901C103.323 329.07 102.828 329.154 102.271 329.154ZM109.419 329.169C108.935 329.169 108.497 329.08 108.106 328.901C107.715 328.718 107.405 328.455 107.177 328.11C106.951 327.765 106.839 327.343 106.839 326.842C106.839 326.411 106.921 326.057 107.087 325.778C107.253 325.5 107.477 325.28 107.758 325.117C108.04 324.955 108.355 324.832 108.703 324.749C109.051 324.666 109.406 324.603 109.767 324.56C110.224 324.507 110.595 324.464 110.881 324.431C111.166 324.395 111.373 324.337 111.502 324.257C111.631 324.178 111.696 324.048 111.696 323.869V323.835C111.696 323.4 111.573 323.064 111.328 322.825C111.086 322.587 110.725 322.467 110.244 322.467C109.744 322.467 109.349 322.578 109.061 322.8C108.776 323.019 108.579 323.263 108.469 323.531L107.072 323.213C107.238 322.749 107.48 322.375 107.798 322.089C108.12 321.801 108.489 321.592 108.907 321.463C109.324 321.33 109.764 321.264 110.224 321.264C110.529 321.264 110.852 321.301 111.194 321.374C111.538 321.443 111.86 321.572 112.158 321.761C112.46 321.95 112.707 322.22 112.899 322.572C113.091 322.92 113.187 323.372 113.187 323.929V329H111.736V327.956H111.676C111.58 328.148 111.436 328.337 111.243 328.523C111.051 328.708 110.804 328.862 110.503 328.985C110.201 329.108 109.84 329.169 109.419 329.169ZM109.742 327.976C110.153 327.976 110.504 327.895 110.796 327.732C111.091 327.57 111.315 327.358 111.467 327.096C111.623 326.831 111.701 326.547 111.701 326.246V325.261C111.648 325.314 111.545 325.364 111.393 325.411C111.243 325.454 111.073 325.492 110.881 325.525C110.688 325.555 110.501 325.583 110.319 325.609C110.136 325.633 109.984 325.652 109.861 325.669C109.573 325.705 109.309 325.767 109.071 325.853C108.836 325.939 108.647 326.063 108.504 326.226C108.365 326.385 108.295 326.597 108.295 326.862C108.295 327.23 108.431 327.509 108.703 327.697C108.975 327.883 109.321 327.976 109.742 327.976ZM116.534 326.41L116.525 324.595H116.783L119.826 321.364H121.605L118.135 325.043H117.902L116.534 326.41ZM115.167 329V318.818H116.654V329H115.167ZM119.99 329L117.255 325.371L118.279 324.332L121.814 329H119.99ZM126.785 329V318.818H133.168V320.141H128.321V323.243H132.835V324.56H128.321V327.678H133.228V329H126.785ZM138.735 321.364V322.557H134.42V321.364H138.735ZM135.603 329V320.479C135.603 320.001 135.707 319.605 135.916 319.29C136.125 318.972 136.402 318.735 136.746 318.58C137.091 318.42 137.466 318.341 137.87 318.341C138.168 318.341 138.424 318.366 138.636 318.415C138.848 318.462 139.005 318.505 139.108 318.545L138.76 319.748C138.69 319.728 138.601 319.705 138.491 319.678C138.382 319.648 138.25 319.634 138.094 319.634C137.732 319.634 137.474 319.723 137.318 319.902C137.166 320.081 137.089 320.339 137.089 320.678V329H135.603ZM143.903 321.364V322.557H139.588V321.364H143.903ZM140.771 329V320.479C140.771 320.001 140.875 319.605 141.084 319.29C141.293 318.972 141.57 318.735 141.914 318.58C142.259 318.42 142.634 318.341 143.038 318.341C143.336 318.341 143.592 318.366 143.804 318.415C144.016 318.462 144.173 318.505 144.276 318.545L143.928 319.748C143.858 319.728 143.769 319.705 143.659 319.678C143.55 319.648 143.417 319.634 143.262 319.634C142.9 319.634 142.642 319.723 142.486 319.902C142.334 320.081 142.257 320.339 142.257 320.678V329H140.771ZM145.437 329V321.364H146.923V329H145.437ZM146.188 320.185C145.929 320.185 145.707 320.099 145.521 319.927C145.339 319.751 145.248 319.542 145.248 319.3C145.248 319.055 145.339 318.846 145.521 318.674C145.707 318.498 145.929 318.411 146.188 318.411C146.446 318.411 146.666 318.498 146.849 318.674C147.034 318.846 147.127 319.055 147.127 319.3C147.127 319.542 147.034 319.751 146.849 319.927C146.666 320.099 146.446 320.185 146.188 320.185ZM152.14 329.154C151.401 329.154 150.764 328.987 150.231 328.652C149.7 328.314 149.293 327.848 149.008 327.255C148.723 326.662 148.58 325.982 148.58 325.217C148.58 324.441 148.726 323.757 149.018 323.163C149.309 322.567 149.72 322.101 150.251 321.766C150.781 321.432 151.406 321.264 152.125 321.264C152.705 321.264 153.222 321.372 153.676 321.587C154.13 321.799 154.496 322.098 154.775 322.482C155.056 322.867 155.224 323.316 155.277 323.83H153.83C153.751 323.472 153.568 323.163 153.283 322.905C153.001 322.646 152.624 322.517 152.15 322.517C151.735 322.517 151.372 322.626 151.061 322.845C150.753 323.061 150.512 323.369 150.34 323.77C150.168 324.168 150.081 324.638 150.081 325.182C150.081 325.739 150.166 326.219 150.335 326.624C150.504 327.028 150.743 327.341 151.051 327.563C151.363 327.785 151.729 327.896 152.15 327.896C152.431 327.896 152.687 327.845 152.915 327.742C153.147 327.636 153.341 327.485 153.497 327.29C153.656 327.094 153.767 326.859 153.83 326.584H155.277C155.224 327.078 155.063 327.518 154.795 327.906C154.526 328.294 154.166 328.599 153.716 328.821C153.268 329.043 152.743 329.154 152.14 329.154ZM156.866 329V321.364H158.353V329H156.866ZM157.617 320.185C157.359 320.185 157.137 320.099 156.951 319.927C156.769 319.751 156.678 319.542 156.678 319.3C156.678 319.055 156.769 318.846 156.951 318.674C157.137 318.498 157.359 318.411 157.617 318.411C157.876 318.411 158.096 318.498 158.278 318.674C158.464 318.846 158.557 319.055 158.557 319.3C158.557 319.542 158.464 319.751 158.278 319.927C158.096 320.099 157.876 320.185 157.617 320.185ZM163.644 329.154C162.892 329.154 162.244 328.993 161.7 328.672C161.16 328.347 160.742 327.891 160.447 327.305C160.156 326.715 160.01 326.024 160.01 325.232C160.01 324.449 160.156 323.76 160.447 323.163C160.742 322.567 161.153 322.101 161.68 321.766C162.211 321.432 162.83 321.264 163.54 321.264C163.97 321.264 164.388 321.335 164.792 321.478C165.197 321.621 165.56 321.844 165.881 322.149C166.203 322.454 166.456 322.85 166.642 323.337C166.827 323.821 166.92 324.41 166.92 325.102V325.629H160.85V324.516H165.464C165.464 324.125 165.384 323.778 165.225 323.477C165.066 323.172 164.842 322.931 164.554 322.756C164.269 322.58 163.934 322.492 163.55 322.492C163.132 322.492 162.767 322.595 162.456 322.8C162.148 323.003 161.909 323.268 161.74 323.596C161.574 323.921 161.491 324.274 161.491 324.655V325.525C161.491 326.035 161.581 326.469 161.76 326.827C161.942 327.185 162.196 327.459 162.52 327.648C162.845 327.833 163.225 327.926 163.659 327.926C163.941 327.926 164.198 327.886 164.43 327.807C164.662 327.724 164.862 327.601 165.031 327.439C165.2 327.277 165.329 327.076 165.419 326.837L166.826 327.091C166.713 327.505 166.511 327.868 166.219 328.18C165.931 328.488 165.568 328.728 165.131 328.901C164.696 329.07 164.201 329.154 163.644 329.154ZM170.056 324.466V329H168.57V321.364H169.996V322.607H170.091C170.267 322.202 170.542 321.877 170.916 321.632C171.294 321.387 171.77 321.264 172.343 321.264C172.863 321.264 173.319 321.374 173.71 321.592C174.101 321.808 174.405 322.129 174.62 322.557C174.835 322.984 174.943 323.513 174.943 324.143V329H173.457V324.322C173.457 323.768 173.313 323.336 173.024 323.024C172.736 322.709 172.34 322.552 171.836 322.552C171.491 322.552 171.185 322.626 170.916 322.776C170.651 322.925 170.441 323.143 170.285 323.432C170.132 323.717 170.056 324.062 170.056 324.466ZM180.153 329.154C179.414 329.154 178.778 328.987 178.244 328.652C177.714 328.314 177.306 327.848 177.021 327.255C176.736 326.662 176.594 325.982 176.594 325.217C176.594 324.441 176.74 323.757 177.031 323.163C177.323 322.567 177.734 322.101 178.264 321.766C178.795 321.432 179.419 321.264 180.138 321.264C180.719 321.264 181.236 321.372 181.69 321.587C182.144 321.799 182.51 322.098 182.788 322.482C183.07 322.867 183.237 323.316 183.29 323.83H181.844C181.764 323.472 181.582 323.163 181.297 322.905C181.015 322.646 180.637 322.517 180.163 322.517C179.749 322.517 179.386 322.626 179.075 322.845C178.766 323.061 178.526 323.369 178.354 323.77C178.181 324.168 178.095 324.638 178.095 325.182C178.095 325.739 178.18 326.219 178.349 326.624C178.518 327.028 178.756 327.341 179.065 327.563C179.376 327.785 179.742 327.896 180.163 327.896C180.445 327.896 180.7 327.845 180.929 327.742C181.161 327.636 181.355 327.485 181.511 327.29C181.67 327.094 181.781 326.859 181.844 326.584H183.29C183.237 327.078 183.077 327.518 182.808 327.906C182.54 328.294 182.18 328.599 181.729 328.821C181.282 329.043 180.757 329.154 180.153 329.154ZM185.82 331.864C185.598 331.864 185.396 331.845 185.213 331.809C185.031 331.776 184.895 331.739 184.806 331.7L185.164 330.482C185.435 330.554 185.677 330.586 185.889 330.576C186.102 330.566 186.289 330.487 186.451 330.337C186.617 330.188 186.763 329.945 186.889 329.607L187.073 329.099L184.279 321.364H185.869L187.803 327.29H187.883L189.817 321.364H191.413L188.266 330.019C188.12 330.417 187.934 330.753 187.709 331.028C187.484 331.307 187.215 331.516 186.904 331.655C186.592 331.794 186.231 331.864 185.82 331.864ZM198.17 329L195.923 321.364H197.46L198.956 326.972H199.031L200.532 321.364H202.068L203.56 326.947H203.634L205.121 321.364H206.657L204.415 329H202.898L201.347 323.487H201.233L199.682 329H198.17ZM208.068 329V321.364H209.554V329H208.068ZM208.818 320.185C208.56 320.185 208.338 320.099 208.152 319.927C207.97 319.751 207.879 319.542 207.879 319.3C207.879 319.055 207.97 318.846 208.152 318.674C208.338 318.498 208.56 318.411 208.818 318.411C209.077 318.411 209.297 318.498 209.48 318.674C209.665 318.846 209.758 319.055 209.758 319.3C209.758 319.542 209.665 319.751 209.48 319.927C209.297 320.099 209.077 320.185 208.818 320.185ZM215.119 321.364V322.557H210.947V321.364H215.119ZM212.066 319.534H213.553V326.758C213.553 327.046 213.596 327.263 213.682 327.409C213.768 327.552 213.879 327.649 214.015 327.702C214.154 327.752 214.305 327.777 214.467 327.777C214.587 327.777 214.691 327.769 214.781 327.752C214.87 327.736 214.94 327.722 214.989 327.712L215.258 328.94C215.172 328.973 215.049 329.007 214.89 329.04C214.731 329.076 214.532 329.096 214.293 329.099C213.902 329.106 213.538 329.036 213.2 328.891C212.862 328.745 212.588 328.519 212.379 328.214C212.17 327.91 212.066 327.527 212.066 327.066V319.534ZM218.414 324.466V329H216.927V318.818H218.394V322.607H218.488C218.667 322.196 218.941 321.869 219.308 321.627C219.676 321.385 220.157 321.264 220.75 321.264C221.274 321.264 221.731 321.372 222.122 321.587C222.517 321.803 222.822 322.124 223.037 322.552C223.256 322.976 223.365 323.506 223.365 324.143V329H221.879V324.322C221.879 323.762 221.735 323.327 221.446 323.019C221.158 322.708 220.757 322.552 220.243 322.552C219.892 322.552 219.577 322.626 219.298 322.776C219.023 322.925 218.806 323.143 218.647 323.432C218.491 323.717 218.414 324.062 218.414 324.466ZM228.388 318.818H230.133L232.793 323.447H232.902L235.562 318.818H237.307L233.613 325.003V329H232.082V325.003L228.388 318.818ZM240.597 329.154C239.881 329.154 239.256 328.99 238.722 328.662C238.189 328.334 237.775 327.875 237.48 327.285C237.185 326.695 237.037 326.005 237.037 325.217C237.037 324.424 237.185 323.732 237.48 323.138C237.775 322.545 238.189 322.085 238.722 321.756C239.256 321.428 239.881 321.264 240.597 321.264C241.313 321.264 241.937 321.428 242.471 321.756C243.005 322.085 243.419 322.545 243.714 323.138C244.009 323.732 244.156 324.424 244.156 325.217C244.156 326.005 244.009 326.695 243.714 327.285C243.419 327.875 243.005 328.334 242.471 328.662C241.937 328.99 241.313 329.154 240.597 329.154ZM240.602 327.906C241.066 327.906 241.45 327.784 241.755 327.538C242.06 327.293 242.285 326.967 242.431 326.559C242.58 326.151 242.655 325.702 242.655 325.212C242.655 324.724 242.58 324.277 242.431 323.869C242.285 323.458 242.06 323.129 241.755 322.88C241.45 322.631 241.066 322.507 240.602 322.507C240.134 322.507 239.747 322.631 239.438 322.88C239.133 323.129 238.906 323.458 238.757 323.869C238.611 324.277 238.539 324.724 238.539 325.212C238.539 325.702 238.611 326.151 238.757 326.559C238.906 326.967 239.133 327.293 239.438 327.538C239.747 327.784 240.134 327.906 240.602 327.906ZM250.653 325.833V321.364H252.145V329H250.683V327.678H250.603C250.428 328.085 250.146 328.425 249.758 328.697C249.374 328.965 248.895 329.099 248.321 329.099C247.831 329.099 247.397 328.992 247.019 328.776C246.644 328.558 246.349 328.234 246.134 327.807C245.922 327.379 245.816 326.851 245.816 326.221V321.364H247.302V326.042C247.302 326.562 247.446 326.977 247.735 327.285C248.023 327.593 248.398 327.747 248.858 327.747C249.137 327.747 249.413 327.678 249.689 327.538C249.967 327.399 250.197 327.189 250.38 326.907C250.565 326.625 250.656 326.267 250.653 325.833ZM254.142 329V321.364H255.579V322.577H255.658C255.797 322.166 256.043 321.843 256.394 321.607C256.749 321.369 257.15 321.249 257.597 321.249C257.69 321.249 257.799 321.253 257.925 321.259C258.055 321.266 258.156 321.274 258.229 321.284V322.706C258.169 322.689 258.063 322.671 257.91 322.651C257.758 322.628 257.605 322.616 257.453 322.616C257.102 322.616 256.788 322.691 256.513 322.84C256.242 322.986 256.026 323.19 255.867 323.452C255.708 323.71 255.628 324.005 255.628 324.337V329H254.142ZM33.1186 345V334.818H39.5021V336.141H34.6548V339.243H39.169V340.56H34.6548V343.678H39.5618V345H33.1186ZM41.4348 345V337.364H42.8617V338.607H42.9561C43.1152 338.186 43.3754 337.857 43.7367 337.622C44.098 337.384 44.5305 337.264 45.0343 337.264C45.5447 337.264 45.9722 337.384 46.3169 337.622C46.665 337.861 46.9218 338.189 47.0875 338.607H47.1671C47.3494 338.199 47.6394 337.874 48.0371 337.632C48.4348 337.387 48.9088 337.264 49.459 337.264C50.1517 337.264 50.7168 337.481 51.1543 337.915C51.5951 338.35 51.8155 339.004 51.8155 339.879V345H50.329V340.018C50.329 339.501 50.1882 339.127 49.9064 338.895C49.6247 338.663 49.2883 338.547 48.8972 338.547C48.4133 338.547 48.0371 338.696 47.7686 338.994C47.5002 339.289 47.3659 339.669 47.3659 340.133V345H45.8844V339.924C45.8844 339.51 45.7551 339.177 45.4966 338.925C45.2381 338.673 44.9017 338.547 44.4874 338.547C44.2057 338.547 43.9455 338.621 43.7069 338.771C43.4715 338.916 43.281 339.12 43.1351 339.382C42.9926 339.644 42.9213 339.947 42.9213 340.292V345H41.4348ZM53.8079 347.864V337.364H55.2596V338.602H55.3839C55.4701 338.442 55.5943 338.259 55.7567 338.05C55.9192 337.841 56.1445 337.659 56.4329 337.503C56.7212 337.344 57.1024 337.264 57.5763 337.264C58.1928 337.264 58.743 337.42 59.2269 337.732C59.7108 338.043 60.0903 338.492 60.3654 339.079C60.6438 339.665 60.783 340.371 60.783 341.197C60.783 342.022 60.6455 342.73 60.3704 343.32C60.0953 343.906 59.7174 344.359 59.2369 344.677C58.7563 344.992 58.2077 345.149 57.5913 345.149C57.1272 345.149 56.7478 345.071 56.4528 344.915C56.1611 344.76 55.9324 344.577 55.7667 344.369C55.601 344.16 55.4734 343.974 55.3839 343.812H55.2944V347.864H53.8079ZM55.2646 341.182C55.2646 341.719 55.3424 342.189 55.4982 342.594C55.654 342.998 55.8794 343.315 56.1744 343.543C56.4693 343.769 56.8306 343.881 57.2582 343.881C57.7023 343.881 58.0735 343.764 58.3718 343.528C58.6701 343.29 58.8955 342.967 59.0479 342.559C59.2037 342.151 59.2816 341.692 59.2816 341.182C59.2816 340.678 59.2054 340.226 59.0529 339.825C58.9038 339.424 58.6784 339.107 58.3768 338.875C58.0785 338.643 57.7056 338.527 57.2582 338.527C56.8273 338.527 56.4627 338.638 56.1644 338.86C55.8694 339.082 55.6457 339.392 55.4933 339.79C55.3408 340.187 55.2646 340.652 55.2646 341.182ZM63.935 334.818V345H62.4485V334.818H63.935ZM69.1515 345.154C68.4355 345.154 67.8108 344.99 67.2772 344.662C66.7435 344.334 66.3292 343.875 66.0343 343.285C65.7393 342.695 65.5918 342.005 65.5918 341.217C65.5918 340.424 65.7393 339.732 66.0343 339.138C66.3292 338.545 66.7435 338.085 67.2772 337.756C67.8108 337.428 68.4355 337.264 69.1515 337.264C69.8674 337.264 70.4921 337.428 71.0257 337.756C71.5594 338.085 71.9737 338.545 72.2686 339.138C72.5636 339.732 72.7111 340.424 72.7111 341.217C72.7111 342.005 72.5636 342.695 72.2686 343.285C71.9737 343.875 71.5594 344.334 71.0257 344.662C70.4921 344.99 69.8674 345.154 69.1515 345.154ZM69.1564 343.906C69.6204 343.906 70.0049 343.784 70.3098 343.538C70.6148 343.293 70.8401 342.967 70.986 342.559C71.1351 342.151 71.2097 341.702 71.2097 341.212C71.2097 340.724 71.1351 340.277 70.986 339.869C70.8401 339.458 70.6148 339.129 70.3098 338.88C70.0049 338.631 69.6204 338.507 69.1564 338.507C68.6891 338.507 68.3013 338.631 67.9931 338.88C67.6882 339.129 67.4611 339.458 67.312 339.869C67.1661 340.277 67.0932 340.724 67.0932 341.212C67.0932 341.702 67.1661 342.151 67.312 342.559C67.4611 342.967 67.6882 343.293 67.9931 343.538C68.3013 343.784 68.6891 343.906 69.1564 343.906ZM75.0502 347.864C74.8282 347.864 74.626 347.845 74.4437 347.809C74.2614 347.776 74.1255 347.739 74.036 347.7L74.394 346.482C74.6658 346.554 74.9077 346.586 75.1199 346.576C75.332 346.566 75.5192 346.487 75.6816 346.337C75.8474 346.188 75.9932 345.945 76.1191 345.607L76.3031 345.099L73.5091 337.364H75.1L77.0339 343.29H77.1135L79.0474 337.364H80.6433L77.4963 346.019C77.3504 346.417 77.1648 346.753 76.9395 347.028C76.7141 347.307 76.4456 347.516 76.1341 347.655C75.8225 347.794 75.4612 347.864 75.0502 347.864ZM85.0717 345.154C84.3194 345.154 83.6714 344.993 83.1278 344.672C82.5876 344.347 82.17 343.891 81.875 343.305C81.5833 342.715 81.4375 342.024 81.4375 341.232C81.4375 340.449 81.5833 339.76 81.875 339.163C82.17 338.567 82.581 338.101 83.108 337.766C83.6383 337.432 84.258 337.264 84.9673 337.264C85.3982 337.264 85.8158 337.335 86.2202 337.478C86.6245 337.621 86.9875 337.844 87.3089 338.149C87.6304 338.454 87.884 338.85 88.0696 339.337C88.2552 339.821 88.348 340.41 88.348 341.102V341.629H82.2777V340.516H86.8913C86.8913 340.125 86.8118 339.778 86.6527 339.477C86.4936 339.172 86.2699 338.931 85.9815 338.756C85.6965 338.58 85.3617 338.492 84.9773 338.492C84.5597 338.492 84.1951 338.595 83.8835 338.8C83.5753 339.003 83.3366 339.268 83.1676 339.596C83.0019 339.921 82.919 340.274 82.919 340.655V341.525C82.919 342.035 83.0085 342.469 83.1875 342.827C83.3698 343.185 83.6233 343.459 83.9482 343.648C84.273 343.833 84.6525 343.926 85.0866 343.926C85.3684 343.926 85.6252 343.886 85.8572 343.807C86.0893 343.724 86.2898 343.601 86.4588 343.439C86.6278 343.277 86.7571 343.076 86.8466 342.837L88.2536 343.091C88.1409 343.505 87.9387 343.868 87.647 344.18C87.3587 344.488 86.9957 344.728 86.5582 344.901C86.1241 345.07 85.6286 345.154 85.0717 345.154ZM93.2885 345.154C92.5362 345.154 91.8882 344.993 91.3446 344.672C90.8044 344.347 90.3868 343.891 90.0918 343.305C89.8001 342.715 89.6543 342.024 89.6543 341.232C89.6543 340.449 89.8001 339.76 90.0918 339.163C90.3868 338.567 90.7978 338.101 91.3248 337.766C91.8551 337.432 92.4748 337.264 93.1841 337.264C93.615 337.264 94.0326 337.335 94.437 337.478C94.8413 337.621 95.2042 337.844 95.5257 338.149C95.8472 338.454 96.1008 338.85 96.2864 339.337C96.472 339.821 96.5648 340.41 96.5648 341.102V341.629H90.4945V340.516H95.1081C95.1081 340.125 95.0286 339.778 94.8695 339.477C94.7104 339.172 94.4867 338.931 94.1983 338.756C93.9133 338.58 93.5785 338.492 93.1941 338.492C92.7765 338.492 92.4119 338.595 92.1003 338.8C91.7921 339.003 91.5534 339.268 91.3844 339.596C91.2187 339.921 91.1358 340.274 91.1358 340.655V341.525C91.1358 342.035 91.2253 342.469 91.4043 342.827C91.5866 343.185 91.8401 343.459 92.165 343.648C92.4898 343.833 92.8693 343.926 93.3034 343.926C93.5852 343.926 93.842 343.886 94.074 343.807C94.306 343.724 94.5066 343.601 94.6756 343.439C94.8446 343.277 94.9739 343.076 95.0634 342.837L96.4703 343.091C96.3577 343.505 96.1555 343.868 95.8638 344.18C95.5755 344.488 95.2125 344.728 94.775 344.901C94.3408 345.07 93.8453 345.154 93.2885 345.154ZM103.936 339.228L102.589 339.467C102.533 339.294 102.443 339.13 102.321 338.974C102.201 338.819 102.039 338.691 101.833 338.592C101.628 338.492 101.371 338.442 101.063 338.442C100.642 338.442 100.291 338.537 100.009 338.726C99.7272 338.911 99.5863 339.152 99.5863 339.447C99.5863 339.702 99.6808 339.907 99.8697 340.063C100.059 340.219 100.364 340.347 100.784 340.446L101.998 340.724C102.7 340.887 103.224 341.137 103.569 341.475C103.913 341.813 104.086 342.252 104.086 342.793C104.086 343.25 103.953 343.658 103.688 344.016C103.426 344.37 103.06 344.649 102.589 344.851C102.122 345.053 101.58 345.154 100.963 345.154C100.108 345.154 99.4106 344.972 98.8704 344.607C98.3301 344.239 97.9987 343.717 97.8761 343.041L99.3129 342.822C99.4023 343.197 99.5863 343.48 99.8647 343.673C100.143 343.862 100.506 343.956 100.953 343.956C101.441 343.956 101.83 343.855 102.122 343.653C102.413 343.447 102.559 343.197 102.559 342.902C102.559 342.663 102.47 342.463 102.291 342.3C102.115 342.138 101.845 342.015 101.48 341.933L100.188 341.649C99.4753 341.487 98.9483 341.228 98.6069 340.874C98.2688 340.519 98.0998 340.07 98.0998 339.526C98.0998 339.076 98.2257 338.681 98.4776 338.343C98.7295 338.005 99.0775 337.741 99.5217 337.553C99.9658 337.36 100.475 337.264 101.048 337.264C101.873 337.264 102.523 337.443 102.997 337.801C103.471 338.156 103.784 338.631 103.936 339.228ZM106.699 345.094C106.428 345.094 106.194 344.998 105.998 344.806C105.803 344.611 105.705 344.375 105.705 344.1C105.705 343.828 105.803 343.596 105.998 343.404C106.194 343.209 106.428 343.111 106.699 343.111C106.971 343.111 107.205 343.209 107.4 343.404C107.596 343.596 107.694 343.828 107.694 344.1C107.694 344.282 107.647 344.45 107.555 344.602C107.465 344.751 107.346 344.871 107.197 344.96C107.047 345.05 106.882 345.094 106.699 345.094Z" fill="#F7F7F7"/>
</g>
<defs>
<clipPath id="clip0_0_1">
<rect width="300" height="380" rx="24" fill="white"/>
</clipPath>
</defs>
</svg>
