<svg width="32" height="32" viewBox="0 0 32 32" fill="none" xmlns="http://www.w3.org/2000/svg">
<path d="M16 1C19.893 4.44429 24.9741 6.23761 30.1667 6C30.9226 8.57169 31.154 11.2691 30.8469 13.932C30.5398 16.5948 29.7005 19.1688 28.379 21.5009C27.0575 23.833 25.2806 25.8756 23.1541 27.5075C21.0275 29.1393 18.5946 30.327 16 31C13.4053 30.327 10.9725 29.1393 8.8459 27.5075C6.71934 25.8756 4.9425 23.833 3.62098 21.5009C2.29946 19.1688 1.46021 16.5948 1.15311 13.932C0.846017 11.2691 1.07733 8.57169 1.83332 6C7.02587 6.23761 12.1069 4.44429 16 1Z" fill="#0F172A"/>
<path d="M16 1C19.893 4.44429 24.9741 6.23761 30.1667 6C30.9226 8.57169 31.154 11.2691 30.8469 13.932C30.5398 16.5948 29.7005 19.1688 28.379 21.5009C27.0575 23.833 25.2806 25.8756 23.1541 27.5075C21.0275 29.1393 18.5946 30.327 16 31C13.4053 30.327 10.9725 29.1393 8.8459 27.5075C6.71934 25.8756 4.9425 23.833 3.62098 21.5009C2.29946 19.1688 1.46021 16.5948 1.15311 13.932C0.846017 11.2691 1.07733 8.57169 1.83332 6C7.02587 6.23761 12.1069 4.44429 16 1" stroke="#0F172A" stroke-width="2" stroke-linecap="round" stroke-linejoin="round"/>
</svg>
