<svg width="34" height="33" viewBox="0 0 34 33" fill="none" xmlns="http://www.w3.org/2000/svg">
<path d="M26.2667 32.0001C26.0001 32.0011 25.7372 31.9383 25.5 31.8167L17 27.3667L8.5 31.8167C7.93689 32.1128 7.25432 32.0625 6.74071 31.6871C6.2271 31.3116 5.97205 30.6765 6.08333 30.0501L7.75 20.6667L0.883331 14.0001C0.446759 13.5644 0.286472 12.9232 0.466665 12.3334C0.663738 11.7291 1.18737 11.2895 1.81666 11.2001L11.3167 9.81672L15.5 1.26672C15.7785 0.691738 16.3611 0.326538 17 0.326538C17.6389 0.326538 18.2215 0.691738 18.5 1.26672L22.7333 9.80006L32.2333 11.1834C32.8626 11.2728 33.3863 11.7124 33.5833 12.3167C33.7635 12.9066 33.6032 13.5477 33.1667 13.9834L26.3 20.6501L27.9667 30.0334C28.0882 30.6714 27.828 31.3218 27.3 31.7001C26.9982 31.9116 26.6348 32.0171 26.2667 32.0001V32.0001Z" fill="#0F172A"/>
</svg>
