<svg width="28" height="38" viewBox="0 0 28 38" fill="none" xmlns="http://www.w3.org/2000/svg">
<path d="M12.5167 37.3334C12.3234 37.3331 12.1317 37.2993 11.95 37.2334C11.2288 36.9693 10.7814 36.2466 10.8667 35.4834L12.15 23.6667H2.33333C1.71631 23.6676 1.14926 23.3276 0.859445 22.7829C0.569627 22.2382 0.604465 21.5779 0.949997 21.0667L14.1 1.40003C14.5279 0.766795 15.3317 0.505745 16.05 0.766694C16.7391 1.02254 17.1793 1.69969 17.1333 2.43336L15.85 14.3334H25.6667C26.2837 14.3324 26.8507 14.6725 27.1405 15.2172C27.4304 15.7619 27.3955 16.4222 27.05 16.9334L13.9 36.6C13.5895 37.0593 13.071 37.3342 12.5167 37.3334V37.3334Z" fill="#0F172A"/>
</svg>
