<svg width="33" height="33" viewBox="0 0 33 33" fill="none" xmlns="http://www.w3.org/2000/svg">
<path d="M32 1L21.1667 31C21.0935 31.1596 20.9761 31.2948 20.8284 31.3896C20.6807 31.4844 20.5089 31.5348 20.3333 31.5348C20.1578 31.5348 19.986 31.4844 19.8382 31.3896C19.6905 31.2948 19.5731 31.1596 19.5 31L13.6667 19.3333L2 13.5C1.84043 13.4269 1.70521 13.3095 1.61041 13.1618C1.5156 13.014 1.46521 12.8422 1.46521 12.6667C1.46521 12.4911 1.5156 12.3193 1.61041 12.1716C1.70521 12.0239 1.84043 11.9065 2 11.8333L32 1Z" fill="#0F172A" stroke="#0F172A" stroke-width="2" stroke-linecap="round" stroke-linejoin="round"/>
</svg>
